# This file uses meters as units for non-parametric coordinates.

mtllib 102_2.mtl
g default
v -339.599989 2.758150 80.200007
v -339.599989 2.501851 80.700007
v -340.099988 2.758150 80.700007
v -339.599989 2.576900 80.346457
v -339.953538 2.576900 80.700007
v -339.953538 2.758150 80.346457
v -339.449989 3.624999 80.850007
v -339.504339 3.758149 80.700007
v -339.599989 3.758149 80.795656
v -339.449989 3.674999 80.746457
v -339.553539 3.674999 80.850007
v -339.576889 3.758149 80.723106
v -339.599989 31.899970 80.200009
v -340.099988 31.899970 80.700009
v -339.953538 31.899970 80.346459
v -339.504339 31.899970 80.700009
v -339.599989 31.899970 80.795659
v -339.576889 31.899970 80.723109
v -339.662488 31.999972 80.783709
v -339.623988 31.999972 80.676009
v -339.516289 31.999972 80.637509
v -340.037488 31.999972 80.711959
v -339.906438 31.999972 80.393559
v -339.588039 31.999972 80.262509
v -315.600011 2.758150 80.200007
v -315.600011 2.501851 80.700007
v -315.100012 2.758150 80.700007
v -315.600011 2.576900 80.346457
v -315.246462 2.576900 80.700007
v -315.246462 2.758150 80.346457
v -315.750011 3.624999 80.850007
v -315.695661 3.758149 80.700007
v -315.600011 3.758149 80.795656
v -315.750011 3.674999 80.746457
v -315.646461 3.674999 80.850007
v -315.623111 3.758149 80.723106
v -315.600011 31.899970 80.200009
v -315.100012 31.899970 80.700009
v -315.246462 31.899970 80.346459
v -315.695661 31.899970 80.700009
v -315.600011 31.899970 80.795659
v -315.623111 31.899970 80.723109
v -315.537512 31.999972 80.783709
v -315.576012 31.999972 80.676009
v -315.683711 31.999972 80.637509
v -315.162512 31.999972 80.711959
v -315.293562 31.999972 80.393559
v -315.611961 31.999972 80.262509
v -339.599989 2.758149 95.199993
v -339.599989 2.501849 94.699993
v -340.099988 2.758149 94.699993
v -339.599989 2.576899 95.053543
v -339.953538 2.576899 94.699993
v -339.953538 2.758149 95.053543
v -339.449989 3.624998 94.549993
v -339.504339 3.758148 94.699993
v -339.599989 3.758148 94.604344
v -339.449989 3.674998 94.653543
v -339.553539 3.674998 94.549993
v -339.576889 3.758148 94.676894
v -339.599989 31.899970 95.199995
v -340.099988 31.899970 94.699996
v -339.953538 31.899970 95.053545
v -339.504339 31.899970 94.699996
v -339.599989 31.899970 94.604346
v -339.576889 31.899970 94.676896
v -339.662488 31.999972 94.616296
v -339.623988 31.999972 94.723995
v -339.516289 31.999972 94.762495
v -340.037488 31.999972 94.688046
v -339.906438 31.999972 95.006445
v -339.588039 31.999972 95.137495
v -315.600011 2.758149 95.199993
v -315.600011 2.501849 94.699993
v -315.100012 2.758149 94.699993
v -315.600011 2.576899 95.053543
v -315.246462 2.576899 94.699993
v -315.246462 2.758149 95.053543
v -315.750011 3.624998 94.549993
v -315.695661 3.758148 94.699993
v -315.600011 3.758148 94.604344
v -315.750011 3.674998 94.653543
v -315.646461 3.674998 94.549993
v -315.623111 3.758148 94.676894
v -315.600011 31.899970 95.199995
v -315.100012 31.899970 94.699996
v -315.246462 31.899970 95.053545
v -315.695661 31.899970 94.699996
v -315.600011 31.899970 94.604346
v -315.623111 31.899970 94.676896
v -315.537512 31.999972 94.616296
v -315.576012 31.999972 94.723995
v -315.683711 31.999972 94.762495
v -315.162512 31.999972 94.688046
v -315.293562 31.999972 95.006445
v -315.611961 31.999972 95.137495
vt 0.497580 0.978190
vt 0.506380 0.979410
vt 0.507250 0.984000
vt 0.507400 0.985220
vt 0.808480 0.621680
vt 0.336990 0.184620
vt 0.798660 0.985220
vt 0.799680 0.979410
vt 0.987540 0.619470
vt 0.317520 0.979410
vt 0.316490 0.985220
vt 0.321990 0.985220
vt 0.314330 0.244760
vt 0.313660 0.245780
vt 0.313660 0.590050
vt 0.317660 0.013790
vt 0.317660 0.009470
vt 0.483470 0.245780
vt 0.482590 0.245780
vt 0.019740 0.245780
vt 0.326310 0.621680
vt 0.317660 0.189390
vt 0.979750 0.619470
vt 0.984070 0.621680
vt 0.628190 0.017030
vt 0.321990 0.984000
vt 0.321990 0.979410
vt 0.978580 0.985220
vt 0.497580 0.621680
vt 0.501910 0.978190
vt 0.501910 0.979410
vt 0.501910 0.984000
vt 0.804160 0.979410
vt 0.501910 0.985220
vt 0.809510 0.984000
vt 0.808630 0.979410
vt 0.316640 0.984000
vt 0.019730 0.185060
vt 0.025090 0.984000
vt 0.019730 0.013790
vt 0.321990 0.978190
vt 0.326310 0.978190
vt 0.019740 0.590050
vt 0.024060 0.978190
vt 0.984070 0.979410
vt 0.024210 0.979410
vt 0.628190 0.184620
vt 0.497580 0.619470
vt 0.501910 0.621680
vt 0.314320 0.244760
vt 0.311880 0.245780
vt 0.979600 0.979410
vt 0.626920 0.184620
vt 0.336990 0.017030
vt 0.311880 0.590050
vt 0.804160 0.621680
vt 0.808480 0.619470
vt 0.799830 0.978190
vt 0.809650 0.985220
vt 0.626920 0.185890
vt 0.506230 0.621680
vt 0.984070 0.984000
vt 0.317660 0.621680
vt 0.626920 0.017030
vt 0.626920 0.015760
vt 0.019730 0.244760
vt 0.021290 0.244760
vt 0.020620 0.245780
vt 0.317660 0.978190
vt 0.799830 0.619470
vt 0.327480 0.985220
vt 0.496560 0.984000
vt 0.497430 0.979410
vt 0.024060 0.185060
vt 0.024060 0.189390
vt 0.020620 0.590050
vt 0.024060 0.009470
vt 0.024060 0.013790
vt 0.019740 0.978190
vt 0.019740 0.984000
vt 0.019740 0.979410
vt 0.019740 0.985220
vt 0.808480 0.978190
vt 0.979750 0.621680
vt 0.481920 0.244760
vt 0.326460 0.979410
vt 0.327340 0.984000
vt 0.336990 0.015760
vt 0.496410 0.985220
vt 0.799830 0.621680
vt 0.336990 0.185890
vt 0.335720 0.184620
vt 0.804160 0.978190
vt 0.798810 0.984000
vt 0.482590 0.590050
vt 0.483470 0.590050
vt 0.483480 0.245780
vt 0.483480 0.590050
vt 0.335720 0.017030
vt 0.312770 0.245780
vt 0.311220 0.244760
vt 0.311890 0.245780
vt 0.984070 0.978190
vt 0.979750 0.978190
vt 0.312770 0.590050
vt 0.311890 0.590050
vt 0.978720 0.984000
vt 0.506230 0.978190
vt 0.804160 0.984000
vt 0.317660 0.185060
vt 0.321980 0.185060
vt 0.321990 0.621680
vt 0.326310 0.619470
vt 0.317660 0.619470
vt 0.025230 0.985220
vt 0.321980 0.013790
vt 0.024060 0.619470
vt 0.024060 0.621680
vt 0.019740 0.621680
vt 0.804160 0.985220
vt 0.984070 0.985220
vt 0.506230 0.619470
vt 0.312770 0.245780
vt 0.313660 0.245780
vt 0.312770 0.245780
vt 0.311220 0.244760
vt 0.311220 0.244760
vt 0.312770 0.245780
vt 0.312770 0.245780
vt 0.312770 0.590050
vt 0.313660 0.245780
vt 0.313660 0.590050
vt 0.312770 0.590050
vt 0.312770 0.245780
vt 0.481920 0.244760
vt 0.482590 0.245780
vt 0.019740 0.245780
vt 0.019730 0.244760
vt 0.021290 0.244760
vt 0.021290 0.244760
vt 0.020620 0.245780
vt 0.019740 0.245780
vt 0.019740 0.590050
vt 0.019740 0.245780
vt 0.020620 0.245780
vt 0.020620 0.590050
vt 0.482590 0.590050
vt 0.482590 0.245780
vt 0.020620 0.245780
vt 0.021290 0.244760
vt 0.311220 0.244760
vt 0.020620 0.590050
vt 0.020620 0.245780
vt 0.313660 0.245780
vt 0.313660 0.590050
vt 0.313660 0.245780
vt 0.481920 0.244760
vt 0.482590 0.245780
vt 0.482590 0.245780
vt 0.482590 0.590050
vn -0.159461 -0.836096 -0.524895
vn -0.103124 -0.989308 -0.103124
vn -0.524898 -0.836101 -0.159432
vn -0.657162 -0.369156 -0.657162
vn -0.524898 -0.836101 -0.159432
vn -0.931139 -0.317368 -0.179605
vn -0.524898 -0.836101 -0.159432
vn -0.657162 -0.369156 -0.657162
vn -0.159461 -0.836096 -0.524895
vn -0.179605 -0.317368 -0.931139
vn -0.159461 -0.836096 -0.524895
vn -0.657162 -0.369156 -0.657162
vn 0.212379 0.953829 0.212379
vn 0.163275 0.747342 0.644066
vn 0.644070 0.747345 0.163245
vn 0.644070 0.747345 0.163245
vn 0.663115 0.347214 0.663115
vn 0.944552 0.284626 0.163738
vn 0.663115 0.347214 0.663115
vn 0.644070 0.747345 0.163245
vn 0.163275 0.747342 0.644066
vn 0.163275 0.747342 0.644066
vn 0.163736 0.284654 0.944544
vn 0.663115 0.347214 0.663115
vn -0.187508 0.269969 -0.944435
vn -0.179605 -0.317368 -0.931139
vn -0.657162 -0.369156 -0.657162
vn -0.680236 0.273053 -0.680236
vn -0.680236 0.273053 -0.680236
vn -0.657162 -0.369156 -0.657162
vn -0.931139 -0.317368 -0.179605
vn -0.944435 0.269969 -0.187508
vn 0.668987 0.323903 0.668987
vn 0.663115 0.347214 0.663115
vn 0.163736 0.284654 0.944544
vn 0.151222 0.284102 0.946793
vn 0.946802 0.284074 0.151223
vn 0.944552 0.284626 0.163738
vn 0.663115 0.347214 0.663115
vn 0.668987 0.323903 0.668987
vn 0.248820 0.936043 0.248820
vn -0.390584 0.833600 -0.390584
vn -0.515129 0.850960 -0.102513
vn 0.435320 0.897314 0.072970
vn 0.072970 0.897314 0.435320
vn -0.102513 0.850960 -0.515129
vn -0.390584 0.833600 -0.390584
vn 0.248820 0.936043 0.248820
vn 0.151222 0.284102 0.946793
vn 0.072970 0.897314 0.435320
vn 0.248820 0.936043 0.248820
vn 0.668987 0.323903 0.668987
vn 0.668987 0.323903 0.668987
vn 0.248820 0.936043 0.248820
vn 0.435320 0.897314 0.072970
vn 0.946802 0.284074 0.151223
vn -0.680236 0.273053 -0.680236
vn -0.390584 0.833600 -0.390584
vn -0.102513 0.850960 -0.515129
vn -0.187508 0.269969 -0.944435
vn -0.944435 0.269969 -0.187508
vn -0.515129 0.850960 -0.102513
vn -0.390584 0.833600 -0.390584
vn -0.680236 0.273053 -0.680236
vn 0.103124 -0.989308 -0.103124
vn 0.159461 -0.836096 -0.524895
vn 0.524898 -0.836101 -0.159432
vn 0.524898 -0.836101 -0.159432
vn 0.657162 -0.369156 -0.657162
vn 0.931139 -0.317368 -0.179605
vn 0.657162 -0.369156 -0.657162
vn 0.524898 -0.836101 -0.159432
vn 0.159461 -0.836096 -0.524895
vn 0.159461 -0.836096 -0.524895
vn 0.179605 -0.317368 -0.931139
vn 0.657162 -0.369156 -0.657162
vn -0.163275 0.747342 0.644066
vn -0.212379 0.953829 0.212379
vn -0.644070 0.747345 0.163245
vn -0.663115 0.347214 0.663115
vn -0.644070 0.747345 0.163245
vn -0.944552 0.284626 0.163738
vn -0.644070 0.747345 0.163245
vn -0.663115 0.347214 0.663115
vn -0.163275 0.747342 0.644066
vn -0.163736 0.284654 0.944544
vn -0.163275 0.747342 0.644066
vn -0.663115 0.347214 0.663115
vn 0.179605 -0.317368 -0.931139
vn 0.187508 0.269969 -0.944435
vn 0.680236 0.273053 -0.680236
vn 0.657162 -0.369156 -0.657162
vn 0.657162 -0.369156 -0.657162
vn 0.680236 0.273053 -0.680236
vn 0.944435 0.269969 -0.187508
vn 0.931139 -0.317368 -0.179605
vn -0.663115 0.347214 0.663115
vn -0.668987 0.323903 0.668987
vn -0.151222 0.284102 0.946793
vn -0.163736 0.284654 0.944544
vn -0.944552 0.284626 0.163738
vn -0.946802 0.284074 0.151223
vn -0.668987 0.323903 0.668987
vn -0.663115 0.347214 0.663115
vn 0.390584 0.833600 -0.390584
vn -0.248820 0.936043 0.248820
vn -0.435320 0.897314 0.072970
vn 0.515129 0.850960 -0.102513
vn 0.102513 0.850960 -0.515129
vn -0.072970 0.897314 0.435320
vn -0.248820 0.936043 0.248820
vn 0.390584 0.833600 -0.390584
vn -0.072970 0.897314 0.435320
vn -0.151222 0.284102 0.946793
vn -0.668987 0.323903 0.668987
vn -0.248820 0.936043 0.248820
vn -0.248820 0.936043 0.248820
vn -0.668987 0.323903 0.668987
vn -0.946802 0.284074 0.151223
vn -0.435320 0.897314 0.072970
vn 0.390584 0.833600 -0.390584
vn 0.680236 0.273053 -0.680236
vn 0.187508 0.269969 -0.944435
vn 0.102513 0.850960 -0.515129
vn 0.515129 0.850960 -0.102513
vn 0.944435 0.269969 -0.187508
vn 0.680236 0.273053 -0.680236
vn 0.390584 0.833600 -0.390584
vn -0.103124 -0.989308 0.103124
vn -0.159461 -0.836096 0.524895
vn -0.524898 -0.836101 0.159432
vn -0.524898 -0.836101 0.159432
vn -0.657162 -0.369156 0.657162
vn -0.931139 -0.317368 0.179605
vn -0.657162 -0.369156 0.657162
vn -0.524898 -0.836101 0.159432
vn -0.159461 -0.836096 0.524895
vn -0.159461 -0.836096 0.524895
vn -0.179605 -0.317368 0.931139
vn -0.657162 -0.369156 0.657162
vn 0.163275 0.747342 -0.644066
vn 0.212379 0.953829 -0.212379
vn 0.644070 0.747345 -0.163245
vn 0.663115 0.347214 -0.663115
vn 0.644070 0.747345 -0.163245
vn 0.944552 0.284626 -0.163738
vn 0.644070 0.747345 -0.163245
vn 0.663115 0.347214 -0.663115
vn 0.163275 0.747342 -0.644066
vn 0.163736 0.284654 -0.944544
vn 0.163275 0.747342 -0.644066
vn 0.663115 0.347214 -0.663115
vn -0.179605 -0.317368 0.931139
vn -0.187508 0.269969 0.944435
vn -0.680236 0.273053 0.680236
vn -0.657162 -0.369156 0.657162
vn -0.657162 -0.369156 0.657162
vn -0.680236 0.273053 0.680236
vn -0.944435 0.269969 0.187508
vn -0.931139 -0.317368 0.179605
vn 0.663115 0.347214 -0.663115
vn 0.668987 0.323903 -0.668987
vn 0.151222 0.284102 -0.946793
vn 0.163736 0.284654 -0.944544
vn 0.944552 0.284626 -0.163738
vn 0.946802 0.284074 -0.151223
vn 0.668987 0.323903 -0.668987
vn 0.663115 0.347214 -0.663115
vn -0.390584 0.833600 0.390584
vn 0.248820 0.936043 -0.248820
vn 0.435320 0.897314 -0.072970
vn -0.515129 0.850960 0.102513
vn -0.102513 0.850960 0.515129
vn 0.072970 0.897314 -0.435320
vn 0.248820 0.936043 -0.248820
vn -0.390584 0.833600 0.390584
vn 0.072970 0.897314 -0.435320
vn 0.151222 0.284102 -0.946793
vn 0.668987 0.323903 -0.668987
vn 0.248820 0.936043 -0.248820
vn 0.248820 0.936043 -0.248820
vn 0.668987 0.323903 -0.668987
vn 0.946802 0.284074 -0.151223
vn 0.435320 0.897314 -0.072970
vn -0.390584 0.833600 0.390584
vn -0.680236 0.273053 0.680236
vn -0.187508 0.269969 0.944435
vn -0.102513 0.850960 0.515129
vn -0.515129 0.850960 0.102513
vn -0.944435 0.269969 0.187508
vn -0.680236 0.273053 0.680236
vn -0.390584 0.833600 0.390584
vn 0.159461 -0.836096 0.524895
vn 0.103124 -0.989308 0.103124
vn 0.524898 -0.836101 0.159432
vn 0.657162 -0.369156 0.657162
vn 0.524898 -0.836101 0.159432
vn 0.931139 -0.317368 0.179605
vn 0.524898 -0.836101 0.159432
vn 0.657162 -0.369156 0.657162
vn 0.159461 -0.836096 0.524895
vn 0.179605 -0.317368 0.931139
vn 0.159461 -0.836096 0.524895
vn 0.657162 -0.369156 0.657162
vn -0.212379 0.953829 -0.212379
vn -0.163275 0.747342 -0.644066
vn -0.644070 0.747345 -0.163245
vn -0.644070 0.747345 -0.163245
vn -0.663115 0.347214 -0.663115
vn -0.944552 0.284626 -0.163738
vn -0.663115 0.347214 -0.663115
vn -0.644070 0.747345 -0.163245
vn -0.163275 0.747342 -0.644066
vn -0.163275 0.747342 -0.644066
vn -0.163736 0.284654 -0.944544
vn -0.663115 0.347214 -0.663115
vn 0.187508 0.269969 0.944435
vn 0.179605 -0.317368 0.931139
vn 0.657162 -0.369156 0.657162
vn 0.680236 0.273053 0.680236
vn 0.680236 0.273053 0.680236
vn 0.657162 -0.369156 0.657162
vn 0.931139 -0.317368 0.179605
vn 0.944435 0.269969 0.187508
vn -0.668987 0.323903 -0.668987
vn -0.663115 0.347214 -0.663115
vn -0.163736 0.284654 -0.944544
vn -0.151222 0.284102 -0.946793
vn -0.946802 0.284074 -0.151223
vn -0.944552 0.284626 -0.163738
vn -0.663115 0.347214 -0.663115
vn -0.668987 0.323903 -0.668987
vn -0.248820 0.936043 -0.248820
vn 0.390584 0.833600 0.390584
vn 0.515129 0.850960 0.102513
vn -0.435320 0.897314 -0.072970
vn -0.072970 0.897314 -0.435320
vn 0.102513 0.850960 0.515129
vn 0.390584 0.833600 0.390584
vn -0.248820 0.936043 -0.248820
vn -0.151222 0.284102 -0.946793
vn -0.072970 0.897314 -0.435320
vn -0.248820 0.936043 -0.248820
vn -0.668987 0.323903 -0.668987
vn -0.668987 0.323903 -0.668987
vn -0.248820 0.936043 -0.248820
vn -0.435320 0.897314 -0.072970
vn -0.946802 0.284074 -0.151223
vn 0.680236 0.273053 0.680236
vn 0.390584 0.833600 0.390584
vn 0.102513 0.850960 0.515129
vn 0.187508 0.269969 0.944435
vn 0.944435 0.269969 0.187508
vn 0.515129 0.850960 0.102513
vn 0.390584 0.833600 0.390584
vn 0.680236 0.273053 0.680236
vn -0.179605 -0.317368 -0.931139
vn 0.179605 -0.317368 -0.931139
vn 0.159461 -0.836096 -0.524895
vn -0.159461 -0.836096 -0.524895
vn -0.159461 -0.836096 -0.524895
vn 0.159461 -0.836096 -0.524895
vn 0.103124 -0.989308 -0.103124
vn -0.103124 -0.989308 -0.103124
vn 0.212379 0.953829 0.212379
vn -0.212379 0.953829 0.212379
vn -0.163275 0.747342 0.644066
vn 0.163275 0.747342 0.644066
vn 0.163275 0.747342 0.644066
vn -0.163275 0.747342 0.644066
vn -0.163736 0.284654 0.944544
vn 0.163736 0.284654 0.944544
vn 0.179605 -0.317368 -0.931139
vn -0.179605 -0.317368 -0.931139
vn -0.187508 0.269969 -0.944435
vn 0.187508 0.269969 -0.944435
vn 0.163736 0.284654 0.944544
vn -0.163736 0.284654 0.944544
vn -0.151222 0.284102 0.946793
vn 0.151222 0.284102 0.946793
vn 0.072970 0.897314 0.435320
vn -0.072970 0.897314 0.435320
vn 0.102513 0.850960 -0.515129
vn -0.102513 0.850960 -0.515129
vn 0.151222 0.284102 0.946793
vn -0.151222 0.284102 0.946793
vn -0.072970 0.897314 0.435320
vn 0.072970 0.897314 0.435320
vn -0.102513 0.850960 -0.515129
vn 0.102513 0.850960 -0.515129
vn 0.187508 0.269969 -0.944435
vn -0.187508 0.269969 -0.944435
vn -0.159461 -0.836096 0.524895
vn 0.159461 -0.836096 0.524895
vn 0.179605 -0.317368 0.931139
vn -0.179605 -0.317368 0.931139
vn -0.103124 -0.989308 0.103124
vn 0.103124 -0.989308 0.103124
vn 0.159461 -0.836096 0.524895
vn -0.159461 -0.836096 0.524895
vn 0.163275 0.747342 -0.644066
vn -0.163275 0.747342 -0.644066
vn -0.212379 0.953829 -0.212379
vn 0.212379 0.953829 -0.212379
vn 0.163736 0.284654 -0.944544
vn -0.163736 0.284654 -0.944544
vn -0.163275 0.747342 -0.644066
vn 0.163275 0.747342 -0.644066
vn -0.179605 -0.317368 0.931139
vn 0.179605 -0.317368 0.931139
vn 0.187508 0.269969 0.944435
vn -0.187508 0.269969 0.944435
vn 0.151222 0.284102 -0.946793
vn -0.151222 0.284102 -0.946793
vn -0.163736 0.284654 -0.944544
vn 0.163736 0.284654 -0.944544
vn -0.102513 0.850960 0.515129
vn 0.102513 0.850960 0.515129
vn -0.072970 0.897314 -0.435320
vn 0.072970 0.897314 -0.435320
vn 0.072970 0.897314 -0.435320
vn -0.072970 0.897314 -0.435320
vn -0.151222 0.284102 -0.946793
vn 0.151222 0.284102 -0.946793
vn -0.187508 0.269969 0.944435
vn 0.187508 0.269969 0.944435
vn 0.102513 0.850960 0.515129
vn -0.102513 0.850960 0.515129
vn -0.524898 -0.836101 -0.159432
vn -0.524898 -0.836101 0.159432
vn -0.931139 -0.317368 0.179605
vn -0.931139 -0.317368 -0.179605
vn -0.103124 -0.989308 -0.103124
vn -0.103124 -0.989308 0.103124
vn -0.524898 -0.836101 0.159432
vn -0.524898 -0.836101 -0.159432
vn 0.644070 0.747345 0.163245
vn 0.644070 0.747345 -0.163245
vn 0.212379 0.953829 -0.212379
vn 0.212379 0.953829 0.212379
vn 0.944552 0.284626 0.163738
vn 0.944552 0.284626 -0.163738
vn 0.644070 0.747345 -0.163245
vn 0.644070 0.747345 0.163245
vn -0.931139 -0.317368 -0.179605
vn -0.931139 -0.317368 0.179605
vn -0.944435 0.269969 0.187508
vn -0.944435 0.269969 -0.187508
vn 0.946802 0.284074 0.151223
vn 0.946802 0.284074 -0.151223
vn 0.944552 0.284626 -0.163738
vn 0.944552 0.284626 0.163738
vn -0.515129 0.850960 -0.102513
vn -0.515129 0.850960 0.102513
vn 0.435320 0.897314 -0.072970
vn 0.435320 0.897314 0.072970
vn 0.435320 0.897314 0.072970
vn 0.435320 0.897314 -0.072970
vn 0.946802 0.284074 -0.151223
vn 0.946802 0.284074 0.151223
vn -0.944435 0.269969 -0.187508
vn -0.944435 0.269969 0.187508
vn -0.515129 0.850960 0.102513
vn -0.515129 0.850960 -0.102513
vn 0.931139 -0.317368 -0.179605
vn 0.931139 -0.317368 0.179605
vn 0.524898 -0.836101 0.159432
vn 0.524898 -0.836101 -0.159432
vn 0.524898 -0.836101 -0.159432
vn 0.524898 -0.836101 0.159432
vn 0.103124 -0.989308 0.103124
vn 0.103124 -0.989308 -0.103124
vn -0.212379 0.953829 0.212379
vn -0.212379 0.953829 -0.212379
vn -0.644070 0.747345 -0.163245
vn -0.644070 0.747345 0.163245
vn -0.644070 0.747345 0.163245
vn -0.644070 0.747345 -0.163245
vn -0.944552 0.284626 -0.163738
vn -0.944552 0.284626 0.163738
vn 0.944435 0.269969 -0.187508
vn 0.944435 0.269969 0.187508
vn 0.931139 -0.317368 0.179605
vn 0.931139 -0.317368 -0.179605
vn -0.944552 0.284626 0.163738
vn -0.944552 0.284626 -0.163738
vn -0.946802 0.284074 -0.151223
vn -0.946802 0.284074 0.151223
vn -0.435320 0.897314 0.072970
vn -0.435320 0.897314 -0.072970
vn 0.515129 0.850960 0.102513
vn 0.515129 0.850960 -0.102513
vn -0.946802 0.284074 0.151223
vn -0.946802 0.284074 -0.151223
vn -0.435320 0.897314 -0.072970
vn -0.435320 0.897314 0.072970
vn 0.515129 0.850960 -0.102513
vn 0.515129 0.850960 0.102513
vn 0.944435 0.269969 0.187508
vn 0.944435 0.269969 -0.187508
vn 0.103124 -0.989308 -0.103124
vn 0.103124 -0.989308 0.103124
vn -0.103124 -0.989308 0.103124
vn -0.103124 -0.989308 -0.103124
vn 0.212379 0.953829 0.212379
vn 0.212379 0.953829 -0.212379
vn -0.212379 0.953829 -0.212379
vn -0.212379 0.953829 0.212379
s off
g basket01
usemtl basket01_lidSG
f 4/22/1 2/110/2 5/111/3
f 6/112/4 5/113/5 3/21/6
f 5/113/7 6/112/8 4/114/9
f 1/63/10 4/114/11 6/112/12
f 7/64/13 10/65/14 11/25/15
f 11/85/16 12/18/17 9/19/18
f 12/20/19 11/66/20 10/67/21
f 10/67/22 8/68/23 12/20/24
f 13/69/25 1/63/26 6/112/27 15/41/28
f 15/41/29 6/112/30 3/21/31 14/42/32
f 18/43/33 12/20/34 8/68/35 16/76/36
f 17/95/37 9/19/38 12/18/39 18/96/40
f 20/26/41 23/27/42 22/86/43 19/87/44
f 21/37/45 24/10/46 23/27/47 20/26/48
f 16/11/49 21/37/50 20/26/51 18/12/52
f 18/12/53 20/26/54 19/87/55 17/71/56
f 15/41/57 23/27/58 24/10/59 13/69/60
f 14/42/61 22/86/62 23/27/63 15/41/64
f 26/74/65 28/75/66 29/38/67
f 29/23/68 30/24/69 27/84/70
f 30/24/71 29/23/72 28/9/73
f 28/117/74 25/118/75 30/119/76
f 34/88/77 31/54/78 35/99/79
f 36/100/80 35/13/81 33/14/82
f 35/13/83 36/100/84 34/101/85
f 32/102/86 34/101/87 36/100/88
f 25/118/89 37/44/90 39/79/91 30/119/92
f 30/24/93 39/103/94 38/104/95 27/84/96
f 36/100/97 42/105/98 40/106/99 32/102/100
f 33/14/101 41/15/102 42/105/103 36/100/104
f 47/45/105 44/62/106 43/107/107 46/52/108
f 48/46/109 45/39/110 44/80/111 47/81/112
f 45/39/113 40/115/114 42/82/115 44/80/116
f 44/62/117 42/121/118 41/28/119 43/107/120
f 47/81/121 39/79/122 37/44/123 48/46/124
f 46/52/125 38/104/126 39/103/127 47/45/128
f 50/16/129 52/17/130 53/116/131
f 53/48/132 54/49/133 51/29/134
f 54/49/135 53/48/136 52/122/137
f 52/122/138 49/61/139 54/49/140
f 58/60/141 55/53/142 59/47/143
f 60/123/144 59/50/145 57/124/146
f 59/50/147 60/125/148 58/126/149
f 56/51/150 58/127/151 60/128/152
f 49/61/153 61/108/154 63/30/155 54/49/156
f 54/49/157 63/30/158 62/1/159 51/29/160
f 60/129/161 66/130/162 64/55/163 56/51/164
f 57/131/165 65/132/166 66/133/167 60/134/168
f 71/31/169 68/32/170 67/72/171 70/73/172
f 72/2/173 69/3/174 68/32/175 71/31/176
f 69/3/177 64/4/178 66/34/179 68/32/180
f 68/32/181 66/34/182 65/89/183 67/72/184
f 71/31/185 63/30/186 61/108/187 72/2/188
f 70/73/189 62/1/190 63/30/191 71/31/192
f 76/77/193 74/78/194 77/40/195
f 78/56/196 77/57/197 75/5/198
f 77/57/199 78/56/200 76/70/201
f 73/90/202 76/70/203 78/56/204
f 79/6/205 82/91/206 83/92/207
f 83/135/208 84/97/209 81/136/210
f 84/137/211 83/138/212 82/139/213
f 82/140/214 80/141/215 84/142/216
f 85/58/217 73/90/218 78/56/219 87/93/220
f 87/93/221 78/56/222 75/5/223 86/83/224
f 90/143/225 84/144/226 80/145/227 88/146/228
f 89/147/229 81/148/230 84/97/231 90/98/232
f 92/109/233 95/33/234 94/36/235 91/35/236
f 93/94/237 96/8/238 95/33/239 92/109/240
f 88/7/241 93/94/242 92/109/243 90/120/244
f 90/120/245 92/109/246 91/35/247 89/59/248
f 87/93/249 95/33/250 96/8/251 85/58/252
f 86/83/253 94/36/254 95/33/255 87/93/256
f 1/63/257 25/118/258 28/117/259 4/114/260
f 4/22/261 28/75/262 26/74/263 2/110/264
f 7/64/265 31/54/266 34/88/267 10/65/268
f 10/67/269 34/101/270 32/102/271 8/68/272
f 25/118/273 1/63/274 13/69/275 37/44/276
f 8/68/277 32/102/278 40/106/279 16/76/280
f 21/37/281 45/39/282 48/46/283 24/10/284
f 16/11/285 40/115/286 45/39/287 21/37/288
f 24/10/289 48/46/290 37/44/291 13/69/292
f 52/122/293 76/70/294 73/90/295 49/61/296
f 50/16/297 74/78/298 76/77/299 52/17/300
f 58/60/301 82/91/302 79/6/303 55/53/304
f 56/51/305 80/149/306 82/150/307 58/151/308
f 49/61/309 73/90/310 85/58/311 61/108/312
f 64/55/313 88/152/314 80/153/315 56/51/316
f 72/2/317 96/8/318 93/94/319 69/3/320
f 69/3/321 93/94/322 88/7/323 64/4/324
f 61/108/325 85/58/326 96/8/327 72/2/328
f 5/113/329 53/48/330 51/29/331 3/21/332
f 2/110/333 50/16/334 53/116/335 5/111/336
f 11/25/337 59/47/338 55/53/339 7/64/340
f 9/19/341 57/154/342 59/50/343 11/85/344
f 3/21/345 51/29/346 62/1/347 14/42/348
f 17/95/349 65/155/350 57/156/351 9/19/352
f 22/86/353 70/73/354 67/72/355 19/87/356
f 19/87/357 67/72/358 65/89/359 17/71/360
f 14/42/361 62/1/362 70/73/363 22/86/364
f 27/84/365 75/5/366 77/57/367 29/23/368
f 29/38/369 77/40/370 74/78/371 26/74/372
f 31/54/373 79/6/374 83/92/375 35/99/376
f 35/13/377 83/157/378 81/158/379 33/14/380
f 38/104/381 86/83/382 75/5/383 27/84/384
f 33/14/385 81/159/386 89/160/387 41/15/388
f 43/107/389 91/35/390 94/36/391 46/52/392
f 41/28/393 89/59/394 91/35/395 43/107/396
f 46/52/397 94/36/398 86/83/399 38/104/400
f 26/74/401 74/78/402 50/16/403 2/110/404
f 7/64/405 55/53/406 79/6/407 31/54/408
