# This file uses meters as units for non-parametric coordinates.

mtllib 3.mtl
g default
v 360.000000 -25.000000 510.000000
v -165.000000 -25.000000 -510.000000
v 15.000000 260.000000 510.000000
v -360.000000 260.000000 510.000000
v 360.000000 260.000000 -510.000000
v -250.000000 200.000000 510.000000
v -267.500000 200.000000 -510.000000
v -360.000000 260.000000 -510.000000
v -360.000000 -25.000000 -510.000000
v -197.500000 200.000000 -510.000000
v -267.500000 150.000000 -510.000000
v -197.500000 150.000000 -510.000000
v 280.000000 -25.000000 510.000000
v 360.000000 260.000000 510.000000
v 280.000000 200.000000 510.000000
v -165.000000 260.000000 -510.000000
v -57.500000 185.000000 -510.000000
v -57.500000 -25.000000 -510.000000
v 360.000000 -25.000000 -510.000000
v 42.500000 -25.000000 -510.000000
v -360.000000 -25.000000 510.000000
v -250.000000 -25.000000 510.000000
v 80.000000 200.000000 510.000000
v -50.000000 200.000000 510.000000
v 80.000000 -25.000000 510.000000
v -50.000000 -25.000000 510.000000
v 42.500000 185.000000 -510.000000
vt 0.799410 0.988800
vt 0.593540 0.988800
vt 0.653930 0.955860
vt 0.763720 0.955860
vt 0.938020 0.777010
vt 0.988800 0.809950
vt 0.881750 0.809950
vt 0.899590 0.777010
vt 0.899590 0.749560
vt 0.881750 0.653490
vt 0.988800 0.653490
vt 0.938020 0.749560
vt 0.988800 0.832350
vt 0.988800 0.988800
vt 0.944880 0.955860
vt 0.944880 0.832350
vt 0.835090 0.955860
vt 0.593540 0.809950
vt 0.767840 0.768770
vt 0.822740 0.768770
vt 0.822740 0.653490
vt 0.653930 0.832350
vt 0.593540 0.832350
vt 0.835090 0.832350
vt 0.763720 0.832350
vt 0.011200 0.832350
vt 0.571150 0.832350
vt 0.571150 0.988800
vt 0.011200 0.988800
vt 0.593540 0.653490
vt 0.767840 0.653490
vt 0.011200 0.653490
vt 0.571150 0.653490
vt 0.571150 0.809950
vt 0.011200 0.809950
vt 0.011200 0.071150
vt 0.406460 0.071150
vt 0.406460 0.631090
vt 0.011200 0.631090
vt 0.824110 0.071150
vt 0.824110 0.631090
vt 0.428850 0.631090
vt 0.428850 0.071150
vn 0.000000 0.000000 1.000000
vn 0.000000 0.000000 1.000000
vn 0.000000 0.000000 1.000000
vn 0.000000 0.000000 1.000000
vn 0.000000 0.000000 -1.000000
vn 0.000000 0.000000 -1.000000
vn 0.000000 0.000000 -1.000000
vn 0.000000 0.000000 -1.000000
vn 0.000000 0.000000 -1.000000
vn 0.000000 0.000000 -1.000000
vn 0.000000 0.000000 -1.000000
vn 0.000000 0.000000 -1.000000
vn 0.000000 0.000000 -1.000000
vn 0.000000 0.000000 -1.000000
vn 0.000000 0.000000 -1.000000
vn 0.000000 0.000000 -1.000000
vn 0.000000 0.000000 1.000000
vn 0.000000 0.000000 1.000000
vn 0.000000 0.000000 1.000000
vn 0.000000 0.000000 1.000000
vn 0.000000 0.000000 1.000000
vn 0.000000 0.000000 1.000000
vn 0.000000 0.000000 1.000000
vn 0.000000 0.000000 1.000000
vn 0.000000 0.000000 -1.000000
vn 0.000000 0.000000 -1.000000
vn 0.000000 0.000000 -1.000000
vn 0.000000 0.000000 -1.000000
vn 0.000000 0.000000 -1.000000
vn 0.000000 0.000000 -1.000000
vn 0.000000 0.000000 -1.000000
vn 0.000000 0.000000 -1.000000
vn 0.000000 0.000000 1.000000
vn 0.000000 0.000000 1.000000
vn 0.000000 0.000000 1.000000
vn 0.000000 0.000000 1.000000
vn 0.000000 0.000000 1.000000
vn 0.000000 0.000000 1.000000
vn 0.000000 0.000000 1.000000
vn 0.000000 0.000000 1.000000
vn 0.000000 0.000000 -1.000000
vn 0.000000 0.000000 -1.000000
vn 0.000000 0.000000 -1.000000
vn 0.000000 0.000000 -1.000000
vn -1.000000 0.000000 0.000000
vn -1.000000 0.000000 0.000000
vn -1.000000 0.000000 0.000000
vn -1.000000 0.000000 0.000000
vn 0.000000 0.000000 -1.000000
vn 0.000000 0.000000 -1.000000
vn 0.000000 0.000000 -1.000000
vn 0.000000 0.000000 -1.000000
vn 1.000000 0.000000 0.000000
vn 1.000000 0.000000 0.000000
vn 1.000000 0.000000 0.000000
vn 1.000000 0.000000 0.000000
vn 0.000000 0.000000 1.000000
vn 0.000000 0.000000 1.000000
vn 0.000000 0.000000 1.000000
vn 0.000000 -1.000000 0.000000
vn 0.000000 -1.000000 0.000000
vn 0.000000 -1.000000 0.000000
vn 0.000000 -1.000000 0.000000
vn 0.000000 1.000000 0.000000
vn 0.000000 1.000000 0.000000
vn 0.000000 1.000000 0.000000
vn 0.000000 1.000000 0.000000
s 1
g apartment01_shadow
usemtl apartment01_shadowSG1
f 4/2/1 6/3/2 3/1/3
f 3/1/3 6/3/2 24/4/4
s 2
f 8/6/5 16/7/6 7/5/7
f 7/5/7 16/7/6 10/8/8
s 3
f 12/9/9 2/10/10 11/12/11
f 11/12/11 2/10/10 9/11/12
s 4
f 10/8/13 16/7/14 12/9/15
f 12/9/15 16/7/14 2/10/16
s 5
f 14/14/17 15/15/18 1/13/19
f 1/13/19 15/15/18 13/16/20
s 6
f 14/14/21 3/1/22 15/15/23
f 15/15/23 3/1/22 23/17/24
s 7
f 5/18/25 27/19/26 16/7/27
f 16/7/27 27/19/26 17/20/28
s 8
f 18/21/29 2/10/30 17/20/31
f 17/20/31 2/10/30 16/7/32
s 9
f 22/22/33 6/3/34 21/23/35
f 21/23/35 6/3/34 4/2/36
s 10
f 25/24/37 23/17/38 26/25/39
f 26/25/39 23/17/38 24/4/40
s 11
f 7/5/41 11/12/42 8/6/43
f 8/6/43 11/12/42 9/11/44
s 12
f 9/26/45 21/27/46 8/29/47
f 8/29/47 21/27/46 4/28/48
s 13
f 5/18/49 19/30/50 27/19/51
f 27/19/51 19/30/50 20/31/52
s 14
f 1/32/53 19/33/54 14/35/55
f 14/35/55 19/33/54 5/34/56
s off
f 24/4/57 23/17/58 3/1/59
s 15
f 9/36/60 19/37/61 21/39/62
f 21/39/62 19/37/61 1/38/63
s 16
f 14/40/64 5/41/65 4/43/66
f 4/43/66 5/41/65 8/42/67
g default
v 360.000000 -25.000000 510.000000
v -165.000000 -25.000000 -510.000000
v 15.000000 260.000000 510.000000
v -360.000000 260.000000 510.000000
v 360.000000 260.000000 -510.000000
v -250.000000 200.000000 510.000000
v -267.500000 200.000000 -510.000000
v -360.000000 260.000000 -510.000000
v -360.000000 -25.000000 -510.000000
v -197.500000 200.000000 -510.000000
v -267.500000 150.000000 -510.000000
v -197.500000 150.000000 -510.000000
v 280.000000 -25.000000 510.000000
v 360.000000 260.000000 510.000000
v 280.000000 200.000000 510.000000
v -165.000000 260.000000 -510.000000
v -57.500000 185.000000 -510.000000
v -57.500000 -25.000000 -510.000000
v 360.000000 -25.000000 -510.000000
v 42.500000 -25.000000 -510.000000
v -360.000000 -25.000000 510.000000
v -250.000000 -25.000000 510.000000
v 80.000000 200.000000 510.000000
v -50.000000 200.000000 510.000000
v 80.000000 -25.000000 510.000000
v -50.000000 -25.000000 510.000000
v 42.500000 185.000000 -510.000000
vt 0.799410 0.988800
vt 0.593540 0.988800
vt 0.653930 0.955860
vt 0.763720 0.955860
vt 0.938020 0.777010
vt 0.988800 0.809950
vt 0.881750 0.809950
vt 0.899590 0.777010
vt 0.899590 0.749560
vt 0.881750 0.653490
vt 0.988800 0.653490
vt 0.938020 0.749560
vt 0.988800 0.832350
vt 0.988800 0.988800
vt 0.944880 0.955860
vt 0.944880 0.832350
vt 0.835090 0.955860
vt 0.593540 0.809950
vt 0.767840 0.768770
vt 0.822740 0.768770
vt 0.822740 0.653490
vt 0.653930 0.832350
vt 0.593540 0.832350
vt 0.835090 0.832350
vt 0.763720 0.832350
vt 0.011200 0.832350
vt 0.571150 0.832350
vt 0.571150 0.988800
vt 0.011200 0.988800
vt 0.593540 0.653490
vt 0.767840 0.653490
vt 0.011200 0.653490
vt 0.571150 0.653490
vt 0.571150 0.809950
vt 0.011200 0.809950
vt 0.011200 0.071150
vt 0.406460 0.071150
vt 0.406460 0.631090
vt 0.011200 0.631090
vt 0.824110 0.071150
vt 0.824110 0.631090
vt 0.428850 0.631090
vt 0.428850 0.071150
vn 0.000000 0.000000 1.000000
vn 0.000000 0.000000 1.000000
vn 0.000000 0.000000 1.000000
vn 0.000000 0.000000 1.000000
vn 0.000000 0.000000 -1.000000
vn 0.000000 0.000000 -1.000000
vn 0.000000 0.000000 -1.000000
vn 0.000000 0.000000 -1.000000
vn 0.000000 0.000000 -1.000000
vn 0.000000 0.000000 -1.000000
vn 0.000000 0.000000 -1.000000
vn 0.000000 0.000000 -1.000000
vn 0.000000 0.000000 -1.000000
vn 0.000000 0.000000 -1.000000
vn 0.000000 0.000000 -1.000000
vn 0.000000 0.000000 -1.000000
vn 0.000000 0.000000 1.000000
vn 0.000000 0.000000 1.000000
vn 0.000000 0.000000 1.000000
vn 0.000000 0.000000 1.000000
vn 0.000000 0.000000 1.000000
vn 0.000000 0.000000 1.000000
vn 0.000000 0.000000 1.000000
vn 0.000000 0.000000 1.000000
vn 0.000000 0.000000 -1.000000
vn 0.000000 0.000000 -1.000000
vn 0.000000 0.000000 -1.000000
vn 0.000000 0.000000 -1.000000
vn 0.000000 0.000000 -1.000000
vn 0.000000 0.000000 -1.000000
vn 0.000000 0.000000 -1.000000
vn 0.000000 0.000000 -1.000000
vn 0.000000 0.000000 1.000000
vn 0.000000 0.000000 1.000000
vn 0.000000 0.000000 1.000000
vn 0.000000 0.000000 1.000000
vn 0.000000 0.000000 1.000000
vn 0.000000 0.000000 1.000000
vn 0.000000 0.000000 1.000000
vn 0.000000 0.000000 1.000000
vn 0.000000 0.000000 -1.000000
vn 0.000000 0.000000 -1.000000
vn 0.000000 0.000000 -1.000000
vn 0.000000 0.000000 -1.000000
vn -1.000000 0.000000 0.000000
vn -1.000000 0.000000 0.000000
vn -1.000000 0.000000 0.000000
vn -1.000000 0.000000 0.000000
vn 0.000000 0.000000 -1.000000
vn 0.000000 0.000000 -1.000000
vn 0.000000 0.000000 -1.000000
vn 0.000000 0.000000 -1.000000
vn 1.000000 0.000000 0.000000
vn 1.000000 0.000000 0.000000
vn 1.000000 0.000000 0.000000
vn 1.000000 0.000000 0.000000
vn 0.000000 0.000000 1.000000
vn 0.000000 0.000000 1.000000
vn 0.000000 0.000000 1.000000
vn 0.000000 -1.000000 0.000000
vn 0.000000 -1.000000 0.000000
vn 0.000000 -1.000000 0.000000
vn 0.000000 -1.000000 0.000000
vn 0.000000 1.000000 0.000000
vn 0.000000 1.000000 0.000000
vn 0.000000 1.000000 0.000000
vn 0.000000 1.000000 0.000000
s 1
g apartment01_shadow
f 31/45/68 33/46/69 30/44/70
f 30/44/70 33/46/69 51/47/71
s 2
f 35/49/72 43/50/73 34/48/74
f 34/48/74 43/50/73 37/51/75
s 3
f 39/52/76 29/53/77 38/55/78
f 38/55/78 29/53/77 36/54/79
s 4
f 37/51/80 43/50/81 39/52/82
f 39/52/82 43/50/81 29/53/83
s 5
f 41/57/84 42/58/85 28/56/86
f 28/56/86 42/58/85 40/59/87
s 6
f 41/57/88 30/44/89 42/58/90
f 42/58/90 30/44/89 50/60/91
s 7
f 32/61/92 54/62/93 43/50/94
f 43/50/94 54/62/93 44/63/95
s 8
f 45/64/96 29/53/97 44/63/98
f 44/63/98 29/53/97 43/50/99
s 9
f 49/65/100 33/46/101 48/66/102
f 48/66/102 33/46/101 31/45/103
s 10
f 52/67/104 50/60/105 53/68/106
f 53/68/106 50/60/105 51/47/107
s 11
f 34/48/108 38/55/109 35/49/110
f 35/49/110 38/55/109 36/54/111
s 12
f 36/69/112 48/70/113 35/72/114
f 35/72/114 48/70/113 31/71/115
s 13
f 32/61/116 46/73/117 54/62/118
f 54/62/118 46/73/117 47/74/119
s 14
f 28/75/120 46/76/121 41/78/122
f 41/78/122 46/76/121 32/77/123
s off
f 51/47/124 50/60/125 30/44/126
s 15
f 36/79/127 46/80/128 48/82/129
f 48/82/129 46/80/128 28/81/130
s 16
f 41/83/131 32/84/132 31/86/133
f 31/86/133 32/84/132 35/85/134
