# This file uses meters as units for non-parametric coordinates.

mtllib 38.mtl
g default
v 334.990000 130.000000 41.500000
v 334.990000 129.425969 41.385819
v 334.990000 128.939343 41.060660
v 334.990000 128.614171 40.574025
v 334.990000 128.500000 40.000000
v 334.990000 128.614171 39.425975
v 334.990000 128.939343 38.939340
v 334.990000 129.425969 38.614181
v 334.990000 130.000000 38.500000
v 334.990000 130.574021 38.614181
v 334.990000 131.060655 38.939340
v 334.990000 131.385823 39.425975
v 334.990000 131.500000 40.000000
v 334.990000 131.385823 40.574025
v 334.990000 131.060655 41.060660
v 334.990000 130.574021 41.385820
v 97.490000 130.000000 41.500000
v 97.490000 129.425979 41.385819
v 97.490000 128.939345 41.060660
v 97.490000 128.614177 40.574025
v 97.490000 128.500000 40.000000
v 97.490000 128.614177 39.425975
v 97.490000 128.939345 38.939340
v 97.490000 129.425979 38.614181
v 97.490000 130.000000 38.500000
v 97.490000 130.574031 38.614181
v 97.490000 131.060657 38.939340
v 97.490000 131.385829 39.425975
v 97.490000 131.500000 40.000000
v 97.490000 131.385829 40.574025
v 97.490000 131.060657 41.060660
v 97.490000 130.574031 41.385820
vt 0.971905 0.172078
vt 0.973862 0.172078
vt 0.973862 0.981569
vt 0.971905 0.981569
vt 0.975520 0.172078
vt 0.975520 0.981569
vt 0.977179 0.172078
vt 0.977179 0.981569
vt 0.979136 0.172078
vt 0.979135 0.981569
vt 0.981092 0.172078
vt 0.981092 0.981569
vt 0.982751 0.172078
vt 0.982750 0.981569
vt 0.984409 0.172078
vt 0.984409 0.981569
vt 0.986366 0.172078
vt 0.986366 0.981569
vt 0.957445 0.172078
vt 0.959401 0.172078
vt 0.959401 0.981569
vt 0.957444 0.981569
vt 0.961060 0.172078
vt 0.961060 0.981569
vt 0.962718 0.172078
vt 0.962718 0.981569
vt 0.961060 0.981569
vt 0.964675 0.172078
vt 0.964675 0.981569
vt 0.966631 0.172078
vt 0.966631 0.981569
vt 0.968290 0.172078
vt 0.968290 0.981569
vt 0.969949 0.172078
vt 0.969949 0.981569
vn -0.000000 -0.000000 1.000000
vn -0.000000 -0.382686 0.923879
vn -0.000000 -0.382686 0.923879
vn -0.000000 -0.000000 1.000000
vn -0.000000 -0.382686 0.923879
vn -0.000000 -0.707103 0.707111
vn -0.000000 -0.707103 0.707111
vn -0.000000 -0.382686 0.923879
vn -0.000000 -0.707103 0.707111
vn -0.000000 -0.923879 0.382686
vn -0.000000 -0.923879 0.382686
vn -0.000000 -0.707103 0.707111
vn -0.000000 -0.923879 0.382686
vn -0.000000 -1.000000 0.000000
vn -0.000000 -1.000000 0.000000
vn -0.000000 -0.923879 0.382686
vn -0.000000 -1.000000 0.000000
vn -0.000000 -0.923879 -0.382686
vn -0.000000 -0.923879 -0.382686
vn -0.000000 -1.000000 0.000000
vn -0.000000 -0.923879 -0.382686
vn -0.000000 -0.707103 -0.707111
vn -0.000000 -0.707103 -0.707111
vn -0.000000 -0.923879 -0.382686
vn -0.000000 -0.707103 -0.707111
vn -0.000000 -0.382686 -0.923879
vn -0.000000 -0.382686 -0.923879
vn -0.000000 -0.707103 -0.707111
vn -0.000000 -0.382686 -0.923879
vn -0.000000 -0.000000 -1.000000
vn -0.000000 -0.000000 -1.000000
vn -0.000000 -0.382686 -0.923879
vn -0.000000 -0.000000 -1.000000
vn 0.000000 0.382685 -0.923879
vn 0.000000 0.382685 -0.923879
vn -0.000000 -0.000000 -1.000000
vn 0.000000 0.382685 -0.923879
vn 0.000000 0.707103 -0.707111
vn 0.000000 0.707103 -0.707111
vn 0.000000 0.382685 -0.923879
vn 0.000000 0.707103 -0.707111
vn 0.000000 0.923879 -0.382686
vn 0.000000 0.923879 -0.382686
vn 0.000000 0.707103 -0.707111
vn 0.000000 0.923879 -0.382686
vn 0.000000 1.000000 0.000000
vn 0.000000 1.000000 0.000000
vn 0.000000 0.923879 -0.382686
vn 0.000000 1.000000 0.000000
vn 0.000000 0.923879 0.382686
vn 0.000000 0.923879 0.382686
vn 0.000000 1.000000 0.000000
vn 0.000000 0.923879 0.382686
vn 0.000000 0.707103 0.707111
vn 0.000000 0.707103 0.707111
vn 0.000000 0.923879 0.382686
vn 0.000000 0.707103 0.707111
vn 0.000000 0.382685 0.923879
vn 0.000000 0.382685 0.923879
vn 0.000000 0.707103 0.707111
vn 0.000000 0.382685 0.923879
vn -0.000000 -0.000000 1.000000
vn -0.000000 -0.000000 1.000000
vn 0.000000 0.382685 0.923879
s off
g door04_bar
usemtl door04_barSG
f 17/1/1 18/2/2 2/3/3 1/4/4
f 18/2/5 19/5/6 3/6/7 2/3/8
f 19/5/9 20/7/10 4/8/11 3/6/12
f 20/7/13 21/9/14 5/10/15 4/8/16
f 21/9/17 22/11/18 6/12/19 5/10/20
f 22/11/21 23/13/22 7/14/23 6/12/24
f 23/13/25 24/15/26 8/16/27 7/14/28
f 24/15/29 25/17/30 9/18/31 8/16/32
f 25/19/33 26/20/34 10/21/35 9/22/36
f 26/20/37 27/23/38 11/24/39 10/21/40
f 27/23/41 28/25/42 12/26/43 11/27/44
f 28/25/45 29/28/46 13/29/47 12/26/48
f 29/28/49 30/30/50 14/31/51 13/29/52
f 30/30/53 31/32/54 15/33/55 14/31/56
f 31/32/57 32/34/58 16/35/59 15/33/60
f 32/34/61 17/1/62 1/4/63 16/35/64
