# This file uses meters as units for non-parametric coordinates.

mtllib 6.mtl
g default
v 180.200039 44.999994 -499.799992
v 259.799961 44.999994 -499.799992
v 180.200039 44.999996 -480.200010
v 259.799961 44.999996 -480.200010
v 180.200039 44.799996 -480.000010
v 259.799961 44.799996 -480.000010
v 180.200039 40.200001 -480.000010
v 259.799961 40.200001 -480.000010
v 180.200039 40.000001 -480.200009
v 259.799961 40.000001 -480.200009
v 180.200039 39.999999 -499.799991
v 259.799961 39.999999 -499.799991
v 180.200039 40.199999 -499.999990
v 259.799961 40.199999 -499.999990
v 180.200039 44.799995 -499.999990
v 259.799961 44.799995 -499.999990
v 259.999962 44.799995 -499.799991
v 259.999962 40.199999 -499.799991
v 259.999962 44.799996 -480.200009
v 259.999962 40.200001 -480.200009
v 180.000038 40.199999 -499.799991
v 180.000038 44.799995 -499.799991
v 180.000038 40.200001 -480.200009
v 180.000038 44.799996 -480.200009
v 180.200039 44.941396 -480.058611
v 259.799961 44.941396 -480.058611
v 180.200039 40.058601 -480.058610
v 259.799961 40.058601 -480.058610
v 180.200039 44.941395 -499.941391
v 259.799961 44.941395 -499.941391
v 180.200039 40.058599 -499.941390
v 259.799961 40.058599 -499.941390
v 259.941362 44.941395 -499.799992
v 259.941362 44.941396 -480.200010
v 259.941362 40.058599 -499.799991
v 259.941362 40.058601 -480.200009
v 180.058638 44.941395 -499.799992
v 180.058638 44.941396 -480.200010
v 180.058638 40.058599 -499.799991
v 180.058638 40.058601 -480.200009
v 259.941362 40.200001 -480.058610
v 259.941362 44.799996 -480.058610
v 259.941362 40.199999 -499.941390
v 259.941362 44.799995 -499.941390
v 180.058638 40.200001 -480.058610
v 180.058638 44.799996 -480.058610
v 180.058638 40.199999 -499.941390
v 180.058638 44.799995 -499.941390
vt 0.825540 0.447950
vt 0.707260 0.447950
vt 0.855000 0.959460
vt 0.827240 0.959460
vt 0.826390 0.988070
vt 0.826390 0.960310
vt 0.705550 0.959460
vt 0.677790 0.959460
vt 0.826390 0.476560
vt 0.705550 0.477410
vt 0.706410 0.959460
vt 0.706410 0.960310
vt 0.827240 0.477410
vt 0.826390 0.448800
vt 0.827240 0.958610
vt 0.867920 0.478260
vt 0.986200 0.478260
vt 0.677790 0.958610
vt 0.707260 0.960310
vt 0.825530 0.960310
vt 0.825530 0.988070
vt 0.707260 0.988070
vt 0.707260 0.448800
vt 0.825540 0.448800
vt 0.855850 0.477410
vt 0.706410 0.448800
vt 0.676940 0.959460
vt 0.706410 0.988070
vt 0.855000 0.477410
vt 0.826390 0.959460
vt 0.706410 0.476560
vt 0.677790 0.478260
vt 0.705550 0.478260
vt 0.705550 0.958610
vt 0.855000 0.478260
vt 0.707260 0.478260
vt 0.825540 0.478260
vt 0.825530 0.958610
vt 0.707260 0.958610
vt 0.827240 0.478260
vt 0.855000 0.958610
vt 0.825530 0.988920
vt 0.707260 0.477410
vt 0.825540 0.477410
vt 0.707260 0.988920
vt 0.706410 0.478260
vt 0.706410 0.958610
vt 0.987050 0.478260
vt 0.987050 0.958610
vt 0.676940 0.478260
vt 0.676940 0.958610
vt 0.825530 0.959460
vt 0.707260 0.959460
vt 0.986200 0.959460
vt 0.867920 0.959460
vt 0.706410 0.477410
vt 0.826390 0.477410
vt 0.986200 0.958610
vt 0.867920 0.958610
vt 0.825540 0.476560
vt 0.707260 0.476560
vt 0.826390 0.478260
vt 0.826390 0.958610
vt 0.867070 0.478260
vt 0.867070 0.958610
vt 0.855850 0.478260
vt 0.855850 0.958610
vt 0.855850 0.959460
vt 0.676940 0.477410
vt 0.677790 0.477410
vt 0.867920 0.477410
vt 0.986200 0.477410
vn -0.187755 0.964104 -0.187755
vn -0.187755 0.964104 0.187755
vn 0.187755 0.964104 0.187755
vn 0.187755 0.964104 -0.187755
vn -0.187755 0.187755 0.964104
vn -0.187755 -0.187755 0.964104
vn 0.187755 -0.187755 0.964104
vn 0.187755 0.187755 0.964104
vn -0.187755 -0.964104 0.187755
vn -0.187755 -0.964104 -0.187755
vn 0.187755 -0.964104 -0.187755
vn 0.187755 -0.964104 0.187755
vn -0.187755 -0.187755 -0.964104
vn -0.187755 0.187755 -0.964104
vn 0.187755 0.187755 -0.964104
vn 0.187755 -0.187755 -0.964104
vn 0.964104 0.187755 -0.187755
vn 0.964104 0.187755 0.187755
vn 0.964104 -0.187755 0.187755
vn 0.964104 -0.187755 -0.187755
vn -0.964104 -0.187755 -0.187755
vn -0.964104 -0.187755 0.187755
vn -0.964104 0.187755 0.187755
vn -0.964104 0.187755 -0.187755
vn -0.187755 0.964104 0.187755
vn -0.226543 0.688723 0.688723
vn 0.226543 0.688723 0.688723
vn 0.187755 0.964104 0.187755
vn -0.226543 0.688723 0.688723
vn -0.187755 0.187755 0.964104
vn 0.187755 0.187755 0.964104
vn 0.226543 0.688723 0.688723
vn -0.226543 -0.688723 0.688723
vn -0.187755 -0.964104 0.187755
vn 0.187755 -0.964104 0.187755
vn 0.226543 -0.688723 0.688723
vn -0.187755 -0.187755 0.964104
vn -0.226543 -0.688723 0.688723
vn 0.226543 -0.688723 0.688723
vn 0.187755 -0.187755 0.964104
vn -0.226543 0.688723 -0.688723
vn -0.187755 0.964104 -0.187755
vn 0.187755 0.964104 -0.187755
vn 0.226543 0.688723 -0.688723
vn -0.187755 0.187755 -0.964104
vn -0.226543 0.688723 -0.688723
vn 0.226543 0.688723 -0.688723
vn 0.187755 0.187755 -0.964104
vn -0.187755 -0.964104 -0.187755
vn -0.226543 -0.688723 -0.688723
vn 0.226543 -0.688723 -0.688723
vn 0.187755 -0.964104 -0.187755
vn -0.226543 -0.688723 -0.688723
vn -0.187755 -0.187755 -0.964104
vn 0.187755 -0.187755 -0.964104
vn 0.226543 -0.688723 -0.688723
vn 0.187755 0.964104 0.187755
vn 0.688723 0.688723 0.226543
vn 0.688723 0.688723 -0.226543
vn 0.187755 0.964104 -0.187755
vn 0.688723 0.688723 0.226543
vn 0.964104 0.187755 0.187755
vn 0.964104 0.187755 -0.187755
vn 0.688723 0.688723 -0.226543
vn 0.187755 -0.964104 -0.187755
vn 0.688723 -0.688723 -0.226543
vn 0.688723 -0.688723 0.226543
vn 0.187755 -0.964104 0.187755
vn 0.688723 -0.688723 -0.226543
vn 0.964104 -0.187755 -0.187755
vn 0.964104 -0.187755 0.187755
vn 0.688723 -0.688723 0.226543
vn -0.187755 0.964104 -0.187755
vn -0.688723 0.688723 -0.226543
vn -0.688723 0.688723 0.226543
vn -0.187755 0.964104 0.187755
vn -0.688723 0.688723 -0.226543
vn -0.964104 0.187755 -0.187755
vn -0.964104 0.187755 0.187755
vn -0.688723 0.688723 0.226543
vn -0.187755 -0.964104 0.187755
vn -0.688723 -0.688723 0.226543
vn -0.688723 -0.688723 -0.226543
vn -0.187755 -0.964104 -0.187755
vn -0.688723 -0.688723 0.226543
vn -0.964104 -0.187755 0.187755
vn -0.964104 -0.187755 -0.187755
vn -0.688723 -0.688723 -0.226543
vn 0.187755 -0.187755 0.964104
vn 0.688723 -0.226543 0.688723
vn 0.688723 0.226543 0.688723
vn 0.187755 0.187755 0.964104
vn 0.688723 -0.226543 0.688723
vn 0.964104 -0.187755 0.187755
vn 0.964104 0.187755 0.187755
vn 0.688723 0.226543 0.688723
vn 0.187755 0.187755 -0.964104
vn 0.688723 0.226543 -0.688723
vn 0.688723 -0.226543 -0.688723
vn 0.187755 -0.187755 -0.964104
vn 0.688723 0.226543 -0.688723
vn 0.964104 0.187755 -0.187755
vn 0.964104 -0.187755 -0.187755
vn 0.688723 -0.226543 -0.688723
vn -0.187755 0.187755 0.964104
vn -0.688723 0.226543 0.688723
vn -0.688723 -0.226543 0.688723
vn -0.187755 -0.187755 0.964104
vn -0.688723 0.226543 0.688723
vn -0.964104 0.187755 0.187755
vn -0.964104 -0.187755 0.187755
vn -0.688723 -0.226543 0.688723
vn -0.187755 -0.187755 -0.964104
vn -0.688723 -0.226543 -0.688723
vn -0.688723 0.226543 -0.688723
vn -0.187755 0.187755 -0.964104
vn -0.688723 -0.226543 -0.688723
vn -0.964104 -0.187755 -0.187755
vn -0.964104 0.187755 -0.187755
vn -0.688723 0.226543 -0.688723
vn 0.187755 0.964104 0.187755
vn 0.226543 0.688723 0.688723
vn 0.688723 0.688723 0.226543
vn 0.688723 0.688723 0.226543
vn 0.688723 0.226543 0.688723
vn 0.964104 0.187755 0.187755
vn 0.688723 0.226543 0.688723
vn 0.688723 0.688723 0.226543
vn 0.226543 0.688723 0.688723
vn 0.226543 0.688723 0.688723
vn 0.187755 0.187755 0.964104
vn 0.688723 0.226543 0.688723
vn -0.226543 0.688723 0.688723
vn -0.187755 0.964104 0.187755
vn -0.688723 0.688723 0.226543
vn -0.688723 0.226543 0.688723
vn -0.688723 0.688723 0.226543
vn -0.964104 0.187755 0.187755
vn -0.688723 0.688723 0.226543
vn -0.688723 0.226543 0.688723
vn -0.226543 0.688723 0.688723
vn -0.187755 0.187755 0.964104
vn -0.226543 0.688723 0.688723
vn -0.688723 0.226543 0.688723
vn 0.226543 -0.688723 0.688723
vn 0.187755 -0.964104 0.187755
vn 0.688723 -0.688723 0.226543
vn 0.688723 -0.226543 0.688723
vn 0.688723 -0.688723 0.226543
vn 0.964104 -0.187755 0.187755
vn 0.688723 -0.688723 0.226543
vn 0.688723 -0.226543 0.688723
vn 0.226543 -0.688723 0.688723
vn 0.187755 -0.187755 0.964104
vn 0.226543 -0.688723 0.688723
vn 0.688723 -0.226543 0.688723
vn 0.226543 0.688723 -0.688723
vn 0.187755 0.964104 -0.187755
vn 0.688723 0.688723 -0.226543
vn 0.688723 0.226543 -0.688723
vn 0.688723 0.688723 -0.226543
vn 0.964104 0.187755 -0.187755
vn 0.688723 0.688723 -0.226543
vn 0.688723 0.226543 -0.688723
vn 0.226543 0.688723 -0.688723
vn 0.187755 0.187755 -0.964104
vn 0.226543 0.688723 -0.688723
vn 0.688723 0.226543 -0.688723
vn -0.187755 -0.964104 0.187755
vn -0.226543 -0.688723 0.688723
vn -0.688723 -0.688723 0.226543
vn -0.688723 -0.688723 0.226543
vn -0.688723 -0.226543 0.688723
vn -0.964104 -0.187755 0.187755
vn -0.688723 -0.226543 0.688723
vn -0.688723 -0.688723 0.226543
vn -0.226543 -0.688723 0.688723
vn -0.226543 -0.688723 0.688723
vn -0.187755 -0.187755 0.964104
vn -0.688723 -0.226543 0.688723
vn 0.187755 -0.964104 -0.187755
vn 0.226543 -0.688723 -0.688723
vn 0.688723 -0.688723 -0.226543
vn 0.688723 -0.688723 -0.226543
vn 0.688723 -0.226543 -0.688723
vn 0.964104 -0.187755 -0.187755
vn 0.688723 -0.226543 -0.688723
vn 0.688723 -0.688723 -0.226543
vn 0.226543 -0.688723 -0.688723
vn 0.226543 -0.688723 -0.688723
vn 0.187755 -0.187755 -0.964104
vn 0.688723 -0.226543 -0.688723
vn -0.187755 0.964104 -0.187755
vn -0.226543 0.688723 -0.688723
vn -0.688723 0.688723 -0.226543
vn -0.688723 0.688723 -0.226543
vn -0.688723 0.226543 -0.688723
vn -0.964104 0.187755 -0.187755
vn -0.688723 0.226543 -0.688723
vn -0.688723 0.688723 -0.226543
vn -0.226543 0.688723 -0.688723
vn -0.226543 0.688723 -0.688723
vn -0.187755 0.187755 -0.964104
vn -0.688723 0.226543 -0.688723
vn -0.226543 -0.688723 -0.688723
vn -0.187755 -0.964104 -0.187755
vn -0.688723 -0.688723 -0.226543
vn -0.688723 -0.226543 -0.688723
vn -0.688723 -0.688723 -0.226543
vn -0.964104 -0.187755 -0.187755
vn -0.688723 -0.688723 -0.226543
vn -0.688723 -0.226543 -0.688723
vn -0.226543 -0.688723 -0.688723
vn -0.187755 -0.187755 -0.964104
vn -0.226543 -0.688723 -0.688723
vn -0.688723 -0.226543 -0.688723
s off
g bathtub01_shelf
usemtl bathtub01_shelfSG1
f 1/36/1 3/37/2 4/38/3 2/39/4
f 5/40/5 7/35/6 8/41/7 6/15/8
f 9/16/9 11/17/10 12/58/11 10/59/12
f 13/32/13 15/33/14 16/34/15 14/18/16
f 17/19/17 19/20/18 20/21/19 18/22/20
f 21/23/21 23/24/22 24/60/23 22/61/24
f 3/37/25 25/62/26 26/63/27 4/38/28
f 25/62/29 5/40/30 6/15/31 26/63/32
f 27/64/33 9/16/34 10/59/35 28/65/36
f 7/35/37 27/66/38 28/67/39 8/41/40
f 29/46/41 1/36/42 2/39/43 30/47/44
f 15/33/45 29/46/46 30/47/47 16/34/48
f 11/17/49 31/48/50 32/49/51 12/58/52
f 31/50/53 13/32/54 14/18/55 32/51/56
f 4/38/57 34/52/58 33/53/59 2/39/60
f 34/52/61 19/20/62 17/19/63 33/53/64
f 12/58/65 35/54/66 36/55/67 10/59/68
f 35/45/69 18/22/70 20/21/71 36/42/72
f 1/36/73 37/43/74 38/44/75 3/37/76
f 37/43/77 22/61/78 24/60/79 38/44/80
f 9/16/81 40/71/82 39/72/83 11/17/84
f 40/1/85 23/24/86 21/23/87 39/2/88
f 8/41/89 41/3/90 42/4/91 6/15/92
f 41/5/93 20/21/94 19/20/95 42/6/96
f 16/34/97 44/7/98 43/8/99 14/18/100
f 44/12/101 17/19/102 18/22/103 43/28/104
f 5/40/105 46/13/106 45/29/107 7/35/108
f 46/9/109 24/60/110 23/24/111 45/14/112
f 13/32/113 47/70/114 48/10/115 15/33/116
f 47/26/117 21/23/118 22/61/119 48/31/120
f 4/38/121 26/63/122 34/52/123
f 34/52/124 42/6/125 19/20/126
f 42/4/127 34/30/128 26/63/129
f 26/63/130 6/15/131 42/4/132
f 25/62/133 3/37/134 38/44/135
f 46/9/136 38/44/137 24/60/138
f 38/57/139 46/13/140 25/62/141
f 5/40/142 25/62/143 46/13/144
f 28/65/145 10/59/146 36/55/147
f 41/5/148 36/42/149 20/21/150
f 36/68/151 41/3/152 28/67/153
f 8/41/154 28/67/155 41/3/156
f 30/47/157 2/39/158 33/53/159
f 44/12/160 33/53/161 17/19/162
f 33/11/163 44/7/164 30/47/165
f 16/34/166 30/47/167 44/7/168
f 9/16/169 27/64/170 40/71/171
f 40/1/172 45/14/173 23/24/174
f 45/29/175 40/25/176 27/66/177
f 27/66/178 7/35/179 45/29/180
f 12/58/181 32/49/182 35/54/183
f 35/45/184 43/28/185 18/22/186
f 43/8/187 35/27/188 32/51/189
f 32/51/190 14/18/191 43/8/192
f 1/36/193 29/46/194 37/43/195
f 37/43/196 48/31/197 22/61/198
f 48/10/199 37/56/200 29/46/201
f 29/46/202 15/33/203 48/10/204
f 31/48/205 11/17/206 39/72/207
f 47/26/208 39/2/209 21/23/210
f 39/69/211 47/70/212 31/50/213
f 13/32/214 31/50/215 47/70/216
