# This file uses meters as units for non-parametric coordinates.

mtllib 69.mtl
g default
v 144.799991 84.999995 -499.800001
v 144.799991 84.999995 -498.200002
v 144.799991 84.799996 -498.000002
v 144.799991 75.200004 -498.000002
v 144.799991 75.000005 -498.200001
v 144.799991 75.000005 -499.800000
v 144.799991 75.200004 -500.000000
v 144.799991 84.799996 -500.000000
v 144.999990 84.799996 -499.800001
v 144.999990 75.200004 -499.800000
v 144.999990 84.799996 -498.200002
v 144.999990 75.200004 -498.200001
v 144.799991 84.941395 -498.058602
v 144.799991 75.058605 -498.058601
v 144.799991 84.941395 -499.941400
v 144.799991 75.058605 -499.941400
v 144.941390 84.941395 -499.800001
v 144.941390 84.941395 -498.200002
v 144.941390 75.058605 -499.800000
v 144.941390 75.058605 -498.200001
v 144.941390 75.200004 -498.058601
v 144.941390 84.799996 -498.058602
v 144.941390 75.200004 -499.941400
v 144.941390 84.799996 -499.941400
v 125.200009 84.999995 -499.800001
v 125.200009 84.999995 -498.200002
v 125.200009 84.799996 -498.000002
v 125.200009 75.200004 -498.000002
v 125.200009 75.000005 -498.200001
v 125.200009 75.000005 -499.800000
v 125.200009 75.200004 -500.000000
v 125.200009 84.799996 -500.000000
v 125.000010 84.799996 -499.800001
v 125.000010 75.200004 -499.800000
v 125.000010 84.799996 -498.200002
v 125.000010 75.200004 -498.200001
v 125.200009 84.941395 -498.058602
v 125.200009 75.058605 -498.058601
v 125.200009 84.941395 -499.941400
v 125.200009 75.058605 -499.941400
v 125.058610 84.941395 -499.800001
v 125.058610 84.941395 -498.200002
v 125.058610 75.058605 -499.800000
v 125.058610 75.058605 -498.200001
v 125.058610 75.200004 -498.058601
v 125.058610 84.799996 -498.058602
v 125.058610 75.200004 -499.941400
v 125.058610 84.799996 -499.941400
vt 0.034380 0.286530
vt 0.034380 0.966400
vt 0.027700 0.393930
vt 0.027700 0.469530
vt 0.027700 0.265640
vt 0.027700 0.190040
vt 0.027700 0.299890
vt 0.027700 0.375490
vt 0.027700 0.512800
vt 0.027700 0.966400
vt 0.021020 0.512800
vt 0.021020 0.966400
vt 0.034380 0.176670
vt 0.034380 0.973080
vt 0.967150 0.393930
vt 0.979730 0.265640
vt 0.979730 0.190040
vt 0.512770 0.265640
vt 0.960470 0.512800
vt 0.967150 0.512800
vt 0.967150 0.966400
vt 0.960470 0.966400
vt 0.973840 0.512800
vt 0.973840 0.966400
vt 0.034380 0.293210
vt 0.034380 0.476210
vt 0.023250 0.975300
vt 0.023250 0.503890
vt 0.034380 0.979760
vt 0.494660 0.190040
vt 0.494660 0.265640
vt 0.034380 0.499440
vt 0.494660 0.183360
vt 0.967150 0.375490
vt 0.960470 0.375490
vt 0.512770 0.190040
vt 0.960470 0.469530
vt 0.973050 0.190040
vt 0.973050 0.265640
vt 0.519460 0.265640
vt 0.519460 0.190040
vt 0.967150 0.469530
vt 0.960470 0.393930
vt 0.034380 0.183360
vt 0.034380 0.482890
vt 0.034380 0.506120
vt 0.034380 0.190040
vt 0.487980 0.190040
vt 0.487980 0.265640
vt 0.034380 0.265640
vt 0.960470 0.499440
vt 0.971610 0.503890
vt 0.960470 0.476210
vt 0.979730 0.183360
vt 0.960470 0.482890
vt 0.967150 0.482890
vt 0.960470 0.293210
vt 0.512770 0.183360
vt 0.960470 0.286530
vt 0.967150 0.286530
vt 0.027700 0.183360
vt 0.027700 0.482890
vt 0.034380 0.393930
vt 0.034380 0.469530
vt 0.034380 0.299890
vt 0.960470 0.299890
vt 0.967150 0.299890
vt 0.973050 0.176670
vt 0.973050 0.183360
vt 0.519460 0.183360
vt 0.519460 0.176670
vt 0.960470 0.979760
vt 0.960470 0.973080
vt 0.971610 0.975300
vt 0.960470 0.506120
vt 0.034380 0.512800
vt 0.027700 0.286530
vt 0.034380 0.375490
vt 0.487980 0.176670
vt 0.487980 0.183360
vn 0.964104 0.187755 -0.187755
vn 0.964104 0.187755 0.187755
vn 0.964104 -0.187755 0.187755
vn 0.964104 -0.187755 -0.187755
vn 0.688723 0.688723 -0.226543
vn 0.187755 0.964104 -0.187755
vn 0.187755 0.964104 0.187755
vn 0.688723 0.688723 0.226543
vn 0.688723 0.688723 0.226543
vn 0.964104 0.187755 0.187755
vn 0.964104 0.187755 -0.187755
vn 0.688723 0.688723 -0.226543
vn 0.187755 -0.964104 -0.187755
vn 0.688723 -0.688723 -0.226543
vn 0.688723 -0.688723 0.226543
vn 0.187755 -0.964104 0.187755
vn 0.688723 -0.688723 -0.226543
vn 0.964104 -0.187755 -0.187755
vn 0.964104 -0.187755 0.187755
vn 0.688723 -0.688723 0.226543
vn 0.187755 -0.187755 0.964104
vn 0.688723 -0.226543 0.688723
vn 0.688723 0.226543 0.688723
vn 0.187755 0.187755 0.964104
vn 0.688723 -0.226543 0.688723
vn 0.964104 -0.187755 0.187755
vn 0.964104 0.187755 0.187755
vn 0.688723 0.226543 0.688723
vn 0.251286 0.251285 -0.934725
vn 0.688723 0.226543 -0.688723
vn 0.688723 -0.226543 -0.688723
vn 0.251286 -0.251285 -0.934725
vn 0.688723 0.226543 -0.688723
vn 0.964104 0.187755 -0.187755
vn 0.964104 -0.187755 -0.187755
vn 0.688723 -0.226543 -0.688723
vn 0.187755 0.964104 0.187755
vn 0.226543 0.688723 0.688723
vn 0.688723 0.688723 0.226543
vn 0.688723 0.688723 0.226543
vn 0.688723 0.226543 0.688723
vn 0.964104 0.187755 0.187755
vn 0.688723 0.226543 0.688723
vn 0.688723 0.688723 0.226543
vn 0.226543 0.688723 0.688723
vn 0.226543 0.688723 0.688723
vn 0.187755 0.187755 0.964104
vn 0.688723 0.226543 0.688723
vn 0.226543 -0.688723 0.688723
vn 0.187755 -0.964104 0.187755
vn 0.688723 -0.688723 0.226543
vn 0.688723 -0.226543 0.688723
vn 0.688723 -0.688723 0.226543
vn 0.964104 -0.187755 0.187755
vn 0.688723 -0.688723 0.226543
vn 0.688723 -0.226543 0.688723
vn 0.226543 -0.688723 0.688723
vn 0.187755 -0.187755 0.964104
vn 0.226543 -0.688723 0.688723
vn 0.688723 -0.226543 0.688723
vn 0.226543 0.688723 -0.688723
vn 0.187755 0.964104 -0.187755
vn 0.688723 0.688723 -0.226543
vn 0.688723 0.226543 -0.688723
vn 0.688723 0.688723 -0.226543
vn 0.964104 0.187755 -0.187755
vn 0.688723 0.688723 -0.226543
vn 0.688723 0.226543 -0.688723
vn 0.226543 0.688723 -0.688723
vn 0.251286 0.251285 -0.934725
vn 0.226543 0.688723 -0.688723
vn 0.688723 0.226543 -0.688723
vn 0.187755 -0.964104 -0.187755
vn 0.226543 -0.688723 -0.688723
vn 0.688723 -0.688723 -0.226543
vn 0.688723 -0.688723 -0.226543
vn 0.688723 -0.226543 -0.688723
vn 0.964104 -0.187755 -0.187755
vn 0.688723 -0.226543 -0.688723
vn 0.688723 -0.688723 -0.226543
vn 0.226543 -0.688723 -0.688723
vn 0.226543 -0.688723 -0.688723
vn 0.251286 -0.251285 -0.934725
vn 0.688723 -0.226543 -0.688723
vn -0.964104 0.187755 0.187755
vn -0.964104 0.187755 -0.187755
vn -0.964104 -0.187755 -0.187755
vn -0.964104 -0.187755 0.187755
vn -0.688723 0.688723 0.226543
vn -0.187755 0.964104 0.187755
vn -0.187755 0.964104 -0.187755
vn -0.688723 0.688723 -0.226543
vn -0.964104 0.187755 0.187755
vn -0.688723 0.688723 0.226543
vn -0.688723 0.688723 -0.226543
vn -0.964104 0.187755 -0.187755
vn -0.688723 -0.688723 -0.226543
vn -0.187755 -0.964104 -0.187755
vn -0.187755 -0.964104 0.187755
vn -0.688723 -0.688723 0.226543
vn -0.964104 -0.187755 -0.187755
vn -0.688723 -0.688723 -0.226543
vn -0.688723 -0.688723 0.226543
vn -0.964104 -0.187755 0.187755
vn -0.688723 -0.226543 0.688723
vn -0.187755 -0.187755 0.964104
vn -0.187755 0.187755 0.964104
vn -0.688723 0.226543 0.688723
vn -0.964104 -0.187755 0.187755
vn -0.688723 -0.226543 0.688723
vn -0.688723 0.226543 0.688723
vn -0.964104 0.187755 0.187755
vn -0.688723 0.226543 -0.688723
vn -0.251286 0.251285 -0.934725
vn -0.251286 -0.251285 -0.934725
vn -0.688723 -0.226543 -0.688723
vn -0.964104 0.187755 -0.187755
vn -0.688723 0.226543 -0.688723
vn -0.688723 -0.226543 -0.688723
vn -0.964104 -0.187755 -0.187755
vn -0.226543 0.688723 0.688723
vn -0.187755 0.964104 0.187755
vn -0.688723 0.688723 0.226543
vn -0.688723 0.226543 0.688723
vn -0.688723 0.688723 0.226543
vn -0.964104 0.187755 0.187755
vn -0.688723 0.688723 0.226543
vn -0.688723 0.226543 0.688723
vn -0.226543 0.688723 0.688723
vn -0.187755 0.187755 0.964104
vn -0.226543 0.688723 0.688723
vn -0.688723 0.226543 0.688723
vn -0.187755 -0.964104 0.187755
vn -0.226543 -0.688723 0.688723
vn -0.688723 -0.688723 0.226543
vn -0.688723 -0.688723 0.226543
vn -0.688723 -0.226543 0.688723
vn -0.964104 -0.187755 0.187755
vn -0.688723 -0.226543 0.688723
vn -0.688723 -0.688723 0.226543
vn -0.226543 -0.688723 0.688723
vn -0.226543 -0.688723 0.688723
vn -0.187755 -0.187755 0.964104
vn -0.688723 -0.226543 0.688723
vn -0.187755 0.964104 -0.187755
vn -0.226543 0.688723 -0.688723
vn -0.688723 0.688723 -0.226543
vn -0.688723 0.688723 -0.226543
vn -0.688723 0.226543 -0.688723
vn -0.964104 0.187755 -0.187755
vn -0.688723 0.226543 -0.688723
vn -0.688723 0.688723 -0.226543
vn -0.226543 0.688723 -0.688723
vn -0.226543 0.688723 -0.688723
vn -0.251286 0.251285 -0.934725
vn -0.688723 0.226543 -0.688723
vn -0.226543 -0.688723 -0.688723
vn -0.187755 -0.964104 -0.187755
vn -0.688723 -0.688723 -0.226543
vn -0.688723 -0.226543 -0.688723
vn -0.688723 -0.688723 -0.226543
vn -0.964104 -0.187755 -0.187755
vn -0.688723 -0.688723 -0.226543
vn -0.688723 -0.226543 -0.688723
vn -0.226543 -0.688723 -0.688723
vn -0.251286 -0.251285 -0.934725
vn -0.226543 -0.688723 -0.688723
vn -0.688723 -0.226543 -0.688723
vn 0.187755 0.187755 0.964104
vn -0.187755 0.187755 0.964104
vn -0.187755 -0.187755 0.964104
vn 0.187755 -0.187755 0.964104
vn 0.226543 0.688723 0.688723
vn -0.226543 0.688723 0.688723
vn -0.187755 0.187755 0.964104
vn 0.187755 0.187755 0.964104
vn 0.187755 -0.187755 0.964104
vn -0.187755 -0.187755 0.964104
vn -0.226543 -0.688723 0.688723
vn 0.226543 -0.688723 0.688723
vn 0.187755 0.964104 0.187755
vn -0.187755 0.964104 0.187755
vn -0.226543 0.688723 0.688723
vn 0.226543 0.688723 0.688723
vn 0.226543 -0.688723 0.688723
vn -0.226543 -0.688723 0.688723
vn -0.187755 -0.964104 0.187755
vn 0.187755 -0.964104 0.187755
vn 0.187755 0.964104 -0.187755
vn -0.187755 0.964104 -0.187755
vn -0.187755 0.964104 0.187755
vn 0.187755 0.964104 0.187755
vn 0.187755 -0.964104 0.187755
vn -0.187755 -0.964104 0.187755
vn -0.187755 -0.964104 -0.187755
vn 0.187755 -0.964104 -0.187755
vn -0.187755 0.964104 -0.187755
vn 0.187755 0.964104 -0.187755
vn 0.226543 0.688723 -0.688723
vn -0.226543 0.688723 -0.688723
vn 0.187755 -0.964104 -0.187755
vn -0.187755 -0.964104 -0.187755
vn -0.226543 -0.688723 -0.688723
vn 0.226543 -0.688723 -0.688723
vn 0.251286 0.251285 -0.934725
vn -0.251286 0.251285 -0.934725
vn -0.226543 0.688723 -0.688723
vn 0.226543 0.688723 -0.688723
vn 0.226543 -0.688723 -0.688723
vn -0.226543 -0.688723 -0.688723
vn -0.251286 -0.251285 -0.934725
vn 0.251286 -0.251285 -0.934725
s off
g remoteFBXASC045control01_A
usemtl remoteFBXASC045control01_ASG
f 9/38/1 11/39/2 12/40/3 10/41/4
f 17/42/5 1/37/6 2/43/7 18/15/8
f 18/16/9 11/39/10 9/38/11 17/17/12
f 6/66/13 19/67/14 20/34/15 5/35/16
f 19/36/17 10/41/18 12/40/19 20/18/20
f 4/19/21 21/20/22 22/21/23 3/22/24
f 21/20/25 12/23/26 11/24/27 22/21/28
f 8/68/29 24/69/30 23/70/31 7/71/32
f 24/69/33 9/38/34 10/41/35 23/70/36
f 2/72/37 13/73/38 18/74/39
f 18/74/40 22/21/41 11/24/42
f 22/21/43 18/74/44 13/73/45
f 13/73/46 3/22/47 22/21/48
f 14/75/49 5/51/50 20/52/51
f 21/20/52 20/52/53 12/23/54
f 20/52/55 21/20/56 14/75/57
f 4/19/58 14/75/59 21/20/60
f 15/53/61 1/37/62 17/42/63
f 24/69/64 17/17/65 9/38/66
f 17/17/67 24/69/68 15/54/69
f 8/55/70 15/53/71 24/56/72
f 6/66/73 16/57/74 19/67/75
f 19/36/76 23/70/77 10/41/78
f 23/70/79 19/36/80 16/58/81
f 16/57/82 7/59/83 23/60/84
f 35/50/85 33/47/86 34/48/87 36/49/88
f 42/3/89 26/63/90 25/64/91 41/4/92
f 35/50/93 42/5/94 41/6/95 33/47/96
f 43/7/97 30/65/98 29/78/99 44/8/100
f 34/48/101 43/30/102 44/31/103 36/49/104
f 45/9/105 28/76/106 27/2/107 46/10/108
f 36/11/109 45/9/110 46/10/111 35/12/112
f 48/44/113 32/13/114 31/79/115 47/80/116
f 33/47/117 48/44/118 47/80/119 34/48/120
f 37/14/121 26/29/122 42/27/123
f 46/10/124 42/27/125 35/12/126
f 42/27/127 46/10/128 37/14/129
f 27/2/130 37/14/131 46/10/132
f 29/32/133 38/46/134 44/28/135
f 44/28/136 45/9/137 36/11/138
f 45/9/139 44/28/140 38/46/141
f 38/46/142 28/76/143 45/9/144
f 25/64/145 39/26/146 41/4/147
f 41/6/148 48/44/149 33/47/150
f 48/44/151 41/6/152 39/61/153
f 39/26/154 32/45/155 48/62/156
f 40/25/157 30/65/158 43/7/159
f 47/80/160 43/30/161 34/48/162
f 43/30/163 47/80/164 40/33/165
f 31/1/166 40/25/167 47/77/168
f 3/22/169 27/2/170 28/76/171 4/19/172
f 13/73/173 37/14/174 27/2/175 3/22/176
f 4/19/177 28/76/178 38/46/179 14/75/180
f 2/72/181 26/29/182 37/14/183 13/73/184
f 14/75/185 38/46/186 29/32/187 5/51/188
f 1/37/189 25/64/190 26/63/191 2/43/192
f 5/35/193 29/78/194 30/65/195 6/66/196
f 25/64/197 1/37/198 15/53/199 39/26/200
f 6/66/201 30/65/202 40/25/203 16/57/204
f 8/55/205 32/45/206 39/26/207 15/53/208
f 16/57/209 40/25/210 31/1/211 7/59/212
