# This file uses meters as units for non-parametric coordinates.

mtllib 71.mtl
g default
v -309.800001 95.999994 -445.000009
v -309.800001 95.999994 -464.599991
v -308.200002 95.999994 -445.000009
v -308.200002 95.999994 -464.599991
v -308.000002 95.799995 -445.000009
v -308.000002 95.799995 -464.599991
v -308.000002 84.200005 -445.000009
v -308.000002 84.200005 -464.599991
v -308.200001 84.000006 -445.000009
v -308.200001 84.000006 -464.599991
v -309.800000 84.000006 -445.000009
v -309.800000 84.000006 -464.599991
v -310.000000 84.200005 -445.000009
v -310.000000 84.200005 -464.599991
v -310.000000 95.799995 -445.000009
v -310.000000 95.799995 -464.599991
v -309.800001 95.799995 -464.799990
v -309.800000 84.200005 -464.799990
v -308.200002 95.799995 -464.799990
v -308.200001 84.200005 -464.799990
v -309.800000 84.200005 -444.800010
v -309.800001 95.799995 -444.800010
v -308.200001 84.200005 -444.800010
v -308.200002 95.799995 -444.800010
v -308.058602 95.941394 -445.000009
v -308.058602 95.941394 -464.599991
v -308.058601 84.058606 -445.000009
v -308.058601 84.058606 -464.599991
v -309.941401 95.941394 -445.000009
v -309.941401 95.941394 -464.599991
v -309.941400 84.058606 -445.000009
v -309.941400 84.058606 -464.599991
v -309.800001 95.941394 -464.741390
v -308.200002 95.941394 -464.741390
v -309.800000 84.058606 -464.741390
v -308.200001 84.058606 -464.741390
v -309.800001 95.941394 -444.858610
v -308.200002 95.941394 -444.858610
v -309.800000 84.058606 -444.858610
v -308.200001 84.058606 -444.858610
v -308.058601 84.200005 -464.741390
v -308.058602 95.799995 -464.741390
v -309.941400 84.200005 -464.741390
v -309.941400 95.799995 -464.741390
v -308.058601 84.200005 -444.858610
v -308.058602 95.799995 -444.858610
v -309.941400 84.200005 -444.858610
v -309.941400 95.799995 -444.858610
vt 0.903310 0.426160
vt 0.903310 0.897010
vt 0.985470 0.897010
vt 0.979740 0.897010
vt 0.979740 0.426160
vt 0.985470 0.426160
vt 0.096250 0.897010
vt 0.096250 0.426160
vt 0.014090 0.897010
vt 0.903310 0.420420
vt 0.090510 0.420420
vt 0.096250 0.902750
vt 0.897570 0.897010
vt 0.101990 0.414680
vt 0.101990 0.349730
vt 0.974000 0.426160
vt 0.025570 0.426160
vt 0.090510 0.426160
vt 0.090510 0.897010
vt 0.025570 0.897010
vt 0.101990 0.902750
vt 0.897570 0.902750
vt 0.014090 0.426160
vt 0.019830 0.426160
vt 0.025570 0.420420
vt 0.019830 0.897010
vt 0.903310 0.338250
vt 0.903310 0.902750
vt 0.019830 0.902750
vt 0.019830 0.420420
vt 0.096250 0.338250
vt 0.974000 0.897010
vt 0.909050 0.897010
vt 0.909050 0.426160
vt 0.101990 0.426160
vt 0.101990 0.973430
vt 0.101990 0.908490
vt 0.897570 0.908490
vt 0.897570 0.973430
vt 0.101990 0.897010
vt 0.897570 0.426160
vt 0.979740 0.902750
vt 0.096250 0.908490
vt 0.025570 0.902750
vt 0.090510 0.902750
vt 0.096250 0.973430
vt 0.101990 0.338250
vt 0.897570 0.338250
vt 0.903310 0.908490
vt 0.903310 0.973430
vt 0.909050 0.902750
vt 0.974000 0.902750
vt 0.903310 0.349730
vt 0.903310 0.414680
vt 0.974000 0.420420
vt 0.909050 0.420420
vt 0.096250 0.420420
vt 0.096250 0.984910
vt 0.979740 0.420420
vt 0.897570 0.349730
vt 0.897570 0.414680
vt 0.101990 0.420420
vt 0.897570 0.420420
vt 0.101990 0.979170
vt 0.897570 0.979170
vt 0.101990 0.984910
vt 0.897570 0.984910
vt 0.101990 0.343990
vt 0.897570 0.343990
vt 0.903310 0.984910
vt 0.096250 0.414680
vt 0.096250 0.349730
vn -0.187755 0.964104 0.187755
vn 0.187755 0.964104 0.187755
vn 0.187755 0.964104 -0.187755
vn -0.187755 0.964104 -0.187755
vn 0.964104 0.187755 0.187755
vn 0.964104 -0.187755 0.187755
vn 0.964104 -0.187755 -0.187755
vn 0.964104 0.187755 -0.187755
vn 0.187755 -0.964104 0.187755
vn -0.187755 -0.964104 0.187755
vn -0.187755 -0.964104 -0.187755
vn 0.187755 -0.964104 -0.187755
vn -0.187755 0.187755 -0.964104
vn 0.187755 0.187755 -0.964104
vn 0.187755 -0.187755 -0.964104
vn -0.187755 -0.187755 -0.964104
vn -0.187755 -0.187755 0.964104
vn 0.187755 -0.187755 0.964104
vn 0.187755 0.187755 0.964104
vn -0.187755 0.187755 0.964104
vn 0.187755 0.964104 0.187755
vn 0.688723 0.688723 0.226543
vn 0.688723 0.688723 -0.226543
vn 0.187755 0.964104 -0.187755
vn 0.688723 0.688723 0.226543
vn 0.964104 0.187755 0.187755
vn 0.964104 0.187755 -0.187755
vn 0.688723 0.688723 -0.226543
vn 0.688723 -0.688723 0.226543
vn 0.187755 -0.964104 0.187755
vn 0.187755 -0.964104 -0.187755
vn 0.688723 -0.688723 -0.226543
vn 0.964104 -0.187755 0.187755
vn 0.688723 -0.688723 0.226543
vn 0.688723 -0.688723 -0.226543
vn 0.964104 -0.187755 -0.187755
vn -0.688723 0.688723 0.226543
vn -0.187755 0.964104 0.187755
vn -0.187755 0.964104 -0.187755
vn -0.688723 0.688723 -0.226543
vn -0.934725 0.251285 0.251286
vn -0.688723 0.688723 0.226543
vn -0.688723 0.688723 -0.226543
vn -0.934725 0.251285 -0.251286
vn -0.187755 -0.964104 0.187755
vn -0.688723 -0.688723 0.226543
vn -0.688723 -0.688723 -0.226543
vn -0.187755 -0.964104 -0.187755
vn -0.688723 -0.688723 0.226543
vn -0.934725 -0.251285 0.251285
vn -0.934726 -0.251285 -0.251285
vn -0.688723 -0.688723 -0.226543
vn 0.187755 0.964104 -0.187755
vn 0.226543 0.688723 -0.688723
vn -0.226543 0.688723 -0.688723
vn -0.187755 0.964104 -0.187755
vn 0.226543 0.688723 -0.688723
vn 0.187755 0.187755 -0.964104
vn -0.187755 0.187755 -0.964104
vn -0.226543 0.688723 -0.688723
vn -0.187755 -0.964104 -0.187755
vn -0.226543 -0.688723 -0.688723
vn 0.226543 -0.688723 -0.688723
vn 0.187755 -0.964104 -0.187755
vn -0.226543 -0.688723 -0.688723
vn -0.187755 -0.187755 -0.964104
vn 0.187755 -0.187755 -0.964104
vn 0.226543 -0.688723 -0.688723
vn -0.187755 0.964104 0.187755
vn -0.226543 0.688723 0.688723
vn 0.226543 0.688723 0.688723
vn 0.187755 0.964104 0.187755
vn -0.226543 0.688723 0.688723
vn -0.187755 0.187755 0.964104
vn 0.187755 0.187755 0.964104
vn 0.226543 0.688723 0.688723
vn 0.187755 -0.964104 0.187755
vn 0.226543 -0.688723 0.688723
vn -0.226543 -0.688723 0.688723
vn -0.187755 -0.964104 0.187755
vn 0.226543 -0.688723 0.688723
vn 0.187755 -0.187755 0.964104
vn -0.187755 -0.187755 0.964104
vn -0.226543 -0.688723 0.688723
vn 0.964104 -0.187755 -0.187755
vn 0.688723 -0.226543 -0.688723
vn 0.688723 0.226543 -0.688723
vn 0.964104 0.187755 -0.187755
vn 0.688723 -0.226543 -0.688723
vn 0.187755 -0.187755 -0.964104
vn 0.187755 0.187755 -0.964104
vn 0.688723 0.226543 -0.688723
vn -0.934725 0.251285 -0.251286
vn -0.688723 0.226543 -0.688723
vn -0.688723 -0.226543 -0.688723
vn -0.934726 -0.251285 -0.251285
vn -0.688723 0.226543 -0.688723
vn -0.187755 0.187755 -0.964104
vn -0.187755 -0.187755 -0.964104
vn -0.688723 -0.226543 -0.688723
vn 0.964104 0.187755 0.187755
vn 0.688723 0.226543 0.688723
vn 0.688723 -0.226543 0.688723
vn 0.964104 -0.187755 0.187755
vn 0.688723 0.226543 0.688723
vn 0.187755 0.187755 0.964104
vn 0.187755 -0.187755 0.964104
vn 0.688723 -0.226543 0.688723
vn -0.934725 -0.251285 0.251285
vn -0.688723 -0.226543 0.688723
vn -0.688723 0.226543 0.688723
vn -0.934725 0.251285 0.251286
vn -0.688723 -0.226543 0.688723
vn -0.187755 -0.187755 0.964104
vn -0.187755 0.187755 0.964104
vn -0.688723 0.226543 0.688723
vn 0.187755 0.964104 -0.187755
vn 0.688723 0.688723 -0.226543
vn 0.226543 0.688723 -0.688723
vn 0.226543 0.688723 -0.688723
vn 0.688723 0.226543 -0.688723
vn 0.187755 0.187755 -0.964104
vn 0.688723 0.226543 -0.688723
vn 0.226543 0.688723 -0.688723
vn 0.688723 0.688723 -0.226543
vn 0.688723 0.688723 -0.226543
vn 0.964104 0.187755 -0.187755
vn 0.688723 0.226543 -0.688723
vn 0.688723 0.688723 0.226543
vn 0.187755 0.964104 0.187755
vn 0.226543 0.688723 0.688723
vn 0.688723 0.226543 0.688723
vn 0.226543 0.688723 0.688723
vn 0.187755 0.187755 0.964104
vn 0.226543 0.688723 0.688723
vn 0.688723 0.226543 0.688723
vn 0.688723 0.688723 0.226543
vn 0.964104 0.187755 0.187755
vn 0.688723 0.688723 0.226543
vn 0.688723 0.226543 0.688723
vn 0.688723 -0.688723 -0.226543
vn 0.187755 -0.964104 -0.187755
vn 0.226543 -0.688723 -0.688723
vn 0.688723 -0.226543 -0.688723
vn 0.226543 -0.688723 -0.688723
vn 0.187755 -0.187755 -0.964104
vn 0.226543 -0.688723 -0.688723
vn 0.688723 -0.226543 -0.688723
vn 0.688723 -0.688723 -0.226543
vn 0.964104 -0.187755 -0.187755
vn 0.688723 -0.688723 -0.226543
vn 0.688723 -0.226543 -0.688723
vn -0.688723 0.688723 -0.226543
vn -0.187755 0.964104 -0.187755
vn -0.226543 0.688723 -0.688723
vn -0.688723 0.226543 -0.688723
vn -0.226543 0.688723 -0.688723
vn -0.187755 0.187755 -0.964104
vn -0.226543 0.688723 -0.688723
vn -0.688723 0.226543 -0.688723
vn -0.688723 0.688723 -0.226543
vn -0.934725 0.251285 -0.251286
vn -0.688723 0.688723 -0.226543
vn -0.688723 0.226543 -0.688723
vn 0.187755 -0.964104 0.187755
vn 0.688723 -0.688723 0.226543
vn 0.226543 -0.688723 0.688723
vn 0.226543 -0.688723 0.688723
vn 0.688723 -0.226543 0.688723
vn 0.187755 -0.187755 0.964104
vn 0.688723 -0.226543 0.688723
vn 0.226543 -0.688723 0.688723
vn 0.688723 -0.688723 0.226543
vn 0.688723 -0.688723 0.226543
vn 0.964104 -0.187755 0.187755
vn 0.688723 -0.226543 0.688723
vn -0.187755 -0.964104 -0.187755
vn -0.688723 -0.688723 -0.226543
vn -0.226543 -0.688723 -0.688723
vn -0.226543 -0.688723 -0.688723
vn -0.688723 -0.226543 -0.688723
vn -0.187755 -0.187755 -0.964104
vn -0.688723 -0.226543 -0.688723
vn -0.226543 -0.688723 -0.688723
vn -0.688723 -0.688723 -0.226543
vn -0.688723 -0.688723 -0.226543
vn -0.934726 -0.251285 -0.251285
vn -0.688723 -0.226543 -0.688723
vn -0.187755 0.964104 0.187755
vn -0.688723 0.688723 0.226543
vn -0.226543 0.688723 0.688723
vn -0.226543 0.688723 0.688723
vn -0.688723 0.226543 0.688723
vn -0.187755 0.187755 0.964104
vn -0.688723 0.226543 0.688723
vn -0.226543 0.688723 0.688723
vn -0.688723 0.688723 0.226543
vn -0.688723 0.688723 0.226543
vn -0.934725 0.251285 0.251286
vn -0.688723 0.226543 0.688723
vn -0.688723 -0.688723 0.226543
vn -0.187755 -0.964104 0.187755
vn -0.226543 -0.688723 0.688723
vn -0.688723 -0.226543 0.688723
vn -0.226543 -0.688723 0.688723
vn -0.187755 -0.187755 0.964104
vn -0.226543 -0.688723 0.688723
vn -0.688723 -0.226543 0.688723
vn -0.688723 -0.688723 0.226543
vn -0.934725 -0.251285 0.251285
vn -0.688723 -0.688723 0.226543
vn -0.688723 -0.226543 0.688723
s off
g remoteFBXASC045control02
usemtl remoteFBXASC045control02SG
f 1/36/1 3/37/2 4/38/3 2/39/4
f 5/40/5 7/35/6 8/41/7 6/13/8
f 9/14/9 11/15/10 12/60/11 10/61/12
f 17/32/13 19/33/14 20/34/15 18/16/16
f 21/17/17 23/18/18 24/19/19 22/20/20
f 3/37/21 25/21/22 26/22/23 4/38/24
f 25/21/25 5/40/26 6/13/27 26/22/28
f 27/62/29 9/14/30 10/61/31 28/63/32
f 7/35/33 27/62/34 28/63/35 8/41/36
f 29/64/37 1/36/38 2/39/39 30/65/40
f 15/66/41 29/64/42 30/65/43 16/67/44
f 11/15/45 31/68/46 32/69/47 12/60/48
f 31/68/49 13/47/50 14/48/51 32/69/52
f 4/38/53 34/49/54 33/50/55 2/39/56
f 34/51/57 19/33/58 17/32/59 33/52/60
f 12/60/61 35/53/62 36/54/63 10/61/64
f 35/55/65 18/16/66 20/34/67 36/56/68
f 1/36/69 37/46/70 38/43/71 3/37/72
f 37/44/73 22/20/74 24/19/75 38/45/76
f 9/14/77 40/71/78 39/72/79 11/15/80
f 40/11/81 23/18/82 21/17/83 39/25/84
f 8/41/85 41/1/86 42/2/87 6/13/88
f 41/1/89 20/34/90 19/33/91 42/2/92
f 16/3/93 44/4/94 43/5/95 14/6/96
f 44/4/97 17/32/98 18/16/99 43/5/100
f 5/40/101 46/7/102 45/8/103 7/35/104
f 46/7/105 24/19/106 23/18/107 45/8/108
f 13/23/109 47/24/110 48/26/111 15/9/112
f 47/24/113 21/17/114 22/20/115 48/26/116
f 4/38/117 26/22/118 34/49/119
f 34/51/120 42/2/121 19/33/122
f 42/2/123 34/51/124 26/28/125
f 26/22/126 6/13/127 42/2/128
f 25/21/129 3/37/130 38/43/131
f 46/7/132 38/45/133 24/19/134
f 38/45/135 46/7/136 25/12/137
f 5/40/138 25/21/139 46/7/140
f 28/63/141 10/61/142 36/54/143
f 41/1/144 36/56/145 20/34/146
f 36/56/147 41/1/148 28/10/149
f 8/41/150 28/63/151 41/1/152
f 30/65/153 2/39/154 33/50/155
f 44/4/156 33/52/157 17/32/158
f 33/52/159 44/4/160 30/42/161
f 16/67/162 30/65/163 44/70/164
f 9/14/165 27/62/166 40/71/167
f 40/11/168 45/8/169 23/18/170
f 45/8/171 40/11/172 27/57/173
f 27/62/174 7/35/175 45/8/176
f 12/60/177 32/69/178 35/53/179
f 35/55/180 43/5/181 18/16/182
f 43/5/183 35/55/184 32/59/185
f 32/69/186 14/48/187 43/27/188
f 1/36/189 29/64/190 37/46/191
f 37/44/192 48/26/193 22/20/194
f 48/26/195 37/44/196 29/29/197
f 29/64/198 15/66/199 48/58/200
f 31/68/201 11/15/202 39/72/203
f 47/24/204 39/25/205 21/17/206
f 39/25/207 47/24/208 31/30/209
f 13/47/210 31/68/211 47/31/212
