# This file uses meters as units for non-parametric coordinates.

mtllib 75_1.mtl
g default
v 180.399562 1.000000 -237.775792
v 187.980371 1.000000 -286.185826
v 277.219629 1.000000 -222.614174
v 284.800438 1.000000 -271.024208
v 278.207589 0.359100 -222.459464
v 285.788398 0.359100 -270.869497
v 278.207589 0.000000 -222.459464
v 285.788398 0.000000 -270.869497
v 179.411602 0.000000 -237.930503
v 186.992411 0.000000 -286.340536
v 179.411602 0.359100 -237.930503
v 186.992411 0.359100 -286.340536
v 188.057726 0.359100 -286.679806
v 188.057726 0.000000 -286.679806
v 284.877793 0.359100 -271.518188
v 284.877793 0.000000 -271.518188
v 180.322207 0.000000 -237.281812
v 180.322207 0.359100 -237.281812
v 277.142274 0.000000 -222.120194
v 277.142274 0.359100 -222.120194
v 277.597723 1.000000 -222.554966
v 285.178532 1.000000 -270.965000
v 277.918215 0.852800 -222.504779
v 285.499024 0.852800 -270.914812
v 278.132406 0.626300 -222.471237
v 285.713215 0.626300 -270.881271
v 180.021468 1.000000 -237.835000
v 187.602277 1.000000 -286.245034
v 179.700976 0.852800 -237.885188
v 187.281785 0.852800 -286.295221
v 179.486785 0.626300 -237.918729
v 187.067594 0.626300 -286.328763
v 188.009975 1.000000 -286.374873
v 284.830042 1.000000 -271.213255
v 188.035069 0.852800 -286.535119
v 284.855136 0.852800 -271.373501
v 188.051840 0.626300 -286.642214
v 284.871906 0.626300 -271.480596
v 180.369958 1.000000 -237.586745
v 277.190025 1.000000 -222.425127
v 180.344864 0.852800 -237.426499
v 277.164931 0.852800 -222.264881
v 180.328094 0.626300 -237.319404
v 277.148160 0.626300 -222.157786
v 285.742819 0.000000 -271.070318
v 285.742819 0.359100 -271.070318
v 285.553722 0.000000 -271.264105
v 285.553722 0.359100 -271.264105
v 285.250000 0.000000 -271.421388
v 285.250000 0.359100 -271.421388
v 187.097198 0.000000 -286.517810
v 187.097198 0.359100 -286.517810
v 187.336483 0.000000 -286.644515
v 187.336483 0.359100 -286.644515
v 187.673745 0.000000 -286.701422
v 187.673745 0.359100 -286.701422
v 278.102802 0.000000 -222.282190
v 278.102802 0.359100 -222.282190
v 277.863517 0.000000 -222.155485
v 277.863517 0.359100 -222.155485
v 277.526255 0.000000 -222.098578
v 277.526255 0.359100 -222.098578
v 179.457181 0.000000 -237.729682
v 179.457181 0.359100 -237.729682
v 179.646278 0.000000 -237.535895
v 179.646278 0.359100 -237.535895
v 179.950000 0.000000 -237.378612
v 179.950000 0.359100 -237.378612
v 285.333095 0.852800 -271.193843
v 285.318716 0.626300 -271.347972
v 285.626637 0.626300 -271.128617
v 277.674931 0.852800 -222.289829
v 277.614124 0.626300 -222.147474
v 277.974360 0.626300 -222.262198
v 187.525069 0.852800 -286.510171
v 187.585876 0.626300 -286.652526
v 187.225640 0.626300 -286.537802
v 179.866905 0.852800 -237.606157
v 179.881284 0.626300 -237.452028
v 179.573363 0.626300 -237.671383
vt 0.023390 0.019940
vt 0.979590 0.019940
vt 0.979590 0.976130
vt 0.023390 0.976130
vt 0.023390 0.007870
vt 0.979590 0.007870
vt 0.979590 0.009620
vt 0.023390 0.009620
vt 0.023390 0.986450
vt 0.979590 0.986450
vt 0.979590 0.988200
vt 0.023390 0.988200
vt 0.989900 0.019940
vt 0.991660 0.019940
vt 0.991660 0.976130
vt 0.989900 0.976130
vt 0.011320 0.019940
vt 0.013070 0.019940
vt 0.013070 0.976130
vt 0.011320 0.976130
vt 0.023390 0.016200
vt 0.979590 0.016200
vt 0.023390 0.013040
vt 0.979590 0.013040
vt 0.023390 0.010920
vt 0.979590 0.010920
vt 0.979590 0.979860
vt 0.023390 0.979860
vt 0.979590 0.983030
vt 0.023390 0.983030
vt 0.979590 0.985140
vt 0.023390 0.985140
vt 0.983320 0.019940
vt 0.983320 0.976130
vt 0.986490 0.019940
vt 0.986490 0.976130
vt 0.988600 0.019940
vt 0.988600 0.976130
vt 0.019660 0.976130
vt 0.019660 0.019940
vt 0.016490 0.976130
vt 0.016490 0.019940
vt 0.014380 0.976130
vt 0.014380 0.019940
vt 0.983320 0.007870
vt 0.983320 0.009620
vt 0.986490 0.007870
vt 0.986490 0.009620
vt 0.991660 0.016200
vt 0.989900 0.016200
vt 0.989900 0.013040
vt 0.991660 0.013040
vt 0.983320 0.986450
vt 0.983320 0.988200
vt 0.986490 0.986450
vt 0.986490 0.988200
vt 0.989900 0.979860
vt 0.991660 0.979860
vt 0.991660 0.983030
vt 0.989900 0.983030
vt 0.019660 0.009620
vt 0.019660 0.007870
vt 0.016490 0.009620
vt 0.016490 0.007870
vt 0.013070 0.016200
vt 0.011320 0.016200
vt 0.011320 0.013040
vt 0.013070 0.013040
vt 0.019660 0.988200
vt 0.019660 0.986450
vt 0.016490 0.988200
vt 0.016490 0.986450
vt 0.011320 0.979860
vt 0.013070 0.979860
vt 0.013070 0.983030
vt 0.011320 0.983030
vt 0.984460 0.015060
vt 0.987390 0.015430
vt 0.984090 0.012130
vt 0.988600 0.015430
vt 0.986490 0.013040
vt 0.984090 0.010920
vt 0.018510 0.015060
vt 0.015590 0.015430
vt 0.018890 0.012130
vt 0.014380 0.015430
vt 0.016490 0.013040
vt 0.018890 0.010920
vt 0.984460 0.981010
vt 0.987390 0.980640
vt 0.984090 0.983940
vt 0.988600 0.980640
vt 0.986490 0.983030
vt 0.984090 0.985140
vt 0.018510 0.981010
vt 0.015590 0.980640
vt 0.018890 0.983940
vt 0.014380 0.980640
vt 0.016490 0.983030
vt 0.018890 0.985140
vn 0.000000 1.000000 0.000000
vn 0.000000 1.000000 0.000000
vn 0.000000 1.000000 0.000000
vn 0.000000 1.000000 0.000000
vn 0.939453 0.000000 0.342679
vn 0.999236 0.000000 -0.039088
vn 0.990880 0.128989 -0.038968
vn 0.931534 0.128989 0.340010
vn -0.990880 0.128989 0.038968
vn -0.931534 0.128989 -0.340010
vn -0.939453 0.000000 -0.342679
vn -0.999236 0.000000 0.039088
vn 0.202711 0.066064 -0.977008
vn 0.203102 0.000000 -0.979158
vn 0.105945 0.000000 -0.994372
vn 0.105660 0.066064 -0.992205
vn -0.105945 0.000000 0.994372
vn -0.105660 0.066064 0.992205
vn -0.202711 0.066064 0.977008
vn -0.203102 0.000000 0.979158
vn 0.190324 0.962212 0.194744
vn 0.240745 0.962212 -0.127241
vn 0.000000 1.000000 0.000000
vn 0.000000 1.000000 0.000000
vn 0.535255 0.776595 0.332267
vn 0.611205 0.776595 -0.152737
vn 0.240745 0.962212 -0.127241
vn 0.190324 0.962212 0.194744
vn 0.819126 0.424422 0.385873
vn 0.897874 0.424422 -0.116998
vn 0.611205 0.776595 -0.152737
vn 0.535255 0.776595 0.332267
vn 0.931534 0.128989 0.340010
vn 0.990880 0.128989 -0.038968
vn 0.897874 0.424422 -0.116998
vn 0.819126 0.424422 0.385873
vn 0.000000 1.000000 0.000000
vn 0.000000 1.000000 0.000000
vn -0.190324 0.962212 -0.194744
vn -0.240745 0.962212 0.127241
vn -0.240745 0.962212 0.127241
vn -0.190324 0.962212 -0.194744
vn -0.535255 0.776595 -0.332267
vn -0.611205 0.776595 0.152737
vn -0.611205 0.776595 0.152737
vn -0.535255 0.776595 -0.332267
vn -0.819126 0.424422 -0.385873
vn -0.897874 0.424422 0.116998
vn -0.897874 0.424422 0.116998
vn -0.819126 0.424422 -0.385873
vn -0.931534 0.128989 -0.340010
vn -0.990880 0.128989 0.038968
vn 0.139668 0.908043 -0.394906
vn -0.012261 0.908043 -0.418697
vn 0.000000 1.000000 0.000000
vn 0.000000 1.000000 0.000000
vn 0.214584 0.554038 -0.804360
vn 0.041578 0.554038 -0.831452
vn -0.012261 0.908043 -0.418697
vn 0.139668 0.908043 -0.394906
vn 0.220010 0.236642 -0.946359
vn 0.079819 0.236642 -0.968313
vn 0.041578 0.554038 -0.831452
vn 0.214584 0.554038 -0.804360
vn 0.202711 0.066064 -0.977008
vn 0.105660 0.066064 -0.992205
vn 0.079819 0.236642 -0.968313
vn 0.220010 0.236642 -0.946359
vn -0.139668 0.908043 0.394906
vn 0.012261 0.908043 0.418697
vn 0.000000 1.000000 0.000000
vn 0.000000 1.000000 0.000000
vn -0.214584 0.554038 0.804360
vn -0.041578 0.554038 0.831452
vn 0.012261 0.908043 0.418697
vn -0.139668 0.908043 0.394906
vn -0.220010 0.236642 0.946359
vn -0.079819 0.236642 0.968313
vn -0.041578 0.554038 0.831452
vn -0.214584 0.554038 0.804360
vn -0.202711 0.066064 0.977008
vn -0.105660 0.066064 0.992205
vn -0.079819 0.236642 0.968313
vn -0.220010 0.236642 0.946359
vn 0.859490 0.000000 -0.511152
vn 0.866161 0.138140 -0.480295
vn 0.990880 0.128989 -0.038968
vn 0.999236 0.000000 -0.039088
vn 0.580206 0.000000 -0.814470
vn 0.577328 0.099489 -0.810429
vn 0.866161 0.138140 -0.480295
vn 0.859490 0.000000 -0.511152
vn 0.351865 0.000000 -0.936051
vn 0.339378 0.086436 -0.936671
vn 0.577328 0.099489 -0.810429
vn 0.580206 0.000000 -0.814470
vn 0.203102 0.000000 -0.979158
vn 0.202711 0.066064 -0.977008
vn 0.339378 0.086436 -0.936671
vn 0.351865 0.000000 -0.936051
vn -0.677873 0.138140 -0.722084
vn -0.662089 0.000000 -0.749425
vn -0.939453 0.000000 -0.342679
vn -0.931534 0.128989 -0.340010
vn -0.301946 0.099489 -0.948119
vn -0.303452 0.000000 -0.952847
vn -0.662089 0.000000 -0.749425
vn -0.677873 0.138140 -0.722084
vn -0.036796 0.086436 -0.995578
vn -0.048875 0.000000 -0.998805
vn -0.303452 0.000000 -0.952847
vn -0.301946 0.099489 -0.948119
vn 0.105660 0.066064 -0.992205
vn 0.105945 0.000000 -0.994372
vn -0.048875 0.000000 -0.998805
vn -0.036796 0.086436 -0.995578
vn 0.677873 0.138140 0.722084
vn 0.662089 0.000000 0.749425
vn 0.939453 0.000000 0.342679
vn 0.931534 0.128989 0.340010
vn 0.301946 0.099489 0.948119
vn 0.303452 0.000000 0.952847
vn 0.662089 0.000000 0.749425
vn 0.677873 0.138140 0.722084
vn 0.036796 0.086436 0.995578
vn 0.048875 0.000000 0.998805
vn 0.303452 0.000000 0.952847
vn 0.301946 0.099489 0.948119
vn -0.105660 0.066064 0.992205
vn -0.105945 0.000000 0.994372
vn 0.048875 0.000000 0.998805
vn 0.036796 0.086436 0.995578
vn -0.859490 0.000000 0.511152
vn -0.866161 0.138140 0.480295
vn -0.990880 0.128989 0.038968
vn -0.999236 0.000000 0.039088
vn -0.580206 0.000000 0.814470
vn -0.577328 0.099489 0.810429
vn -0.866161 0.138140 0.480295
vn -0.859490 0.000000 0.511152
vn -0.351865 0.000000 0.936051
vn -0.339378 0.086436 0.936671
vn -0.577328 0.099489 0.810429
vn -0.580206 0.000000 0.814470
vn -0.203102 0.000000 0.979158
vn -0.202711 0.066064 0.977008
vn -0.339378 0.086436 0.936671
vn -0.351865 0.000000 0.936051
vn 0.240745 0.962212 -0.127241
vn 0.139668 0.908043 -0.394906
vn 0.000000 1.000000 0.000000
vn 0.419555 0.690730 -0.588954
vn 0.214584 0.554038 -0.804360
vn 0.139668 0.908043 -0.394906
vn 0.139668 0.908043 -0.394906
vn 0.240745 0.962212 -0.127241
vn 0.419555 0.690730 -0.588954
vn 0.611205 0.776595 -0.152737
vn 0.419555 0.690730 -0.588954
vn 0.240745 0.962212 -0.127241
vn 0.405310 0.298620 -0.864031
vn 0.220010 0.236642 -0.946359
vn 0.214584 0.554038 -0.804360
vn 0.214584 0.554038 -0.804360
vn 0.419555 0.690730 -0.588954
vn 0.405310 0.298620 -0.864031
vn 0.700493 0.390854 -0.597112
vn 0.405310 0.298620 -0.864031
vn 0.419555 0.690730 -0.588954
vn 0.419555 0.690730 -0.588954
vn 0.611205 0.776595 -0.152737
vn 0.700493 0.390854 -0.597112
vn 0.897874 0.424422 -0.116998
vn 0.700493 0.390854 -0.597112
vn 0.611205 0.776595 -0.152737
vn 0.339378 0.086436 -0.936671
vn 0.202711 0.066064 -0.977008
vn 0.220010 0.236642 -0.946359
vn 0.220010 0.236642 -0.946359
vn 0.405310 0.298620 -0.864031
vn 0.339378 0.086436 -0.936671
vn 0.577328 0.099489 -0.810429
vn 0.339378 0.086436 -0.936671
vn 0.405310 0.298620 -0.864031
vn 0.405310 0.298620 -0.864031
vn 0.700493 0.390854 -0.597112
vn 0.577328 0.099489 -0.810429
vn 0.866161 0.138140 -0.480295
vn 0.577328 0.099489 -0.810429
vn 0.700493 0.390854 -0.597112
vn 0.700493 0.390854 -0.597112
vn 0.897874 0.424422 -0.116998
vn 0.866161 0.138140 -0.480295
vn 0.990880 0.128989 -0.038968
vn 0.866161 0.138140 -0.480295
vn 0.897874 0.424422 -0.116998
vn 0.000000 1.000000 0.000000
vn 0.012261 0.908043 0.418697
vn 0.190324 0.962212 0.194744
vn 0.012261 0.908043 0.418697
vn -0.041578 0.554038 0.831452
vn 0.219430 0.690730 0.689016
vn 0.219430 0.690730 0.689016
vn 0.190324 0.962212 0.194744
vn 0.012261 0.908043 0.418697
vn 0.190324 0.962212 0.194744
vn 0.219430 0.690730 0.689016
vn 0.535255 0.776595 0.332267
vn -0.041578 0.554038 0.831452
vn -0.079819 0.236642 0.968313
vn 0.121778 0.298620 0.946571
vn 0.121778 0.298620 0.946571
vn 0.219430 0.690730 0.689016
vn -0.041578 0.554038 0.831452
vn 0.219430 0.690730 0.689016
vn 0.121778 0.298620 0.946571
vn 0.484426 0.390854 0.782665
vn 0.484426 0.390854 0.782665
vn 0.535255 0.776595 0.332267
vn 0.219430 0.690730 0.689016
vn 0.535255 0.776595 0.332267
vn 0.484426 0.390854 0.782665
vn 0.819126 0.424422 0.385873
vn -0.079819 0.236642 0.968313
vn -0.105660 0.066064 0.992205
vn 0.036796 0.086436 0.995578
vn 0.036796 0.086436 0.995578
vn 0.121778 0.298620 0.946571
vn -0.079819 0.236642 0.968313
vn 0.121778 0.298620 0.946571
vn 0.036796 0.086436 0.995578
vn 0.301946 0.099489 0.948119
vn 0.301946 0.099489 0.948119
vn 0.484426 0.390854 0.782665
vn 0.121778 0.298620 0.946571
vn 0.484426 0.390854 0.782665
vn 0.301946 0.099489 0.948119
vn 0.677873 0.138140 0.722084
vn 0.677873 0.138140 0.722084
vn 0.819126 0.424422 0.385873
vn 0.484426 0.390854 0.782665
vn 0.819126 0.424422 0.385873
vn 0.677873 0.138140 0.722084
vn 0.931534 0.128989 0.340010
vn 0.000000 1.000000 0.000000
vn -0.012261 0.908043 -0.418697
vn -0.190324 0.962212 -0.194744
vn -0.012261 0.908043 -0.418697
vn 0.041578 0.554038 -0.831452
vn -0.219430 0.690730 -0.689016
vn -0.219430 0.690730 -0.689016
vn -0.190324 0.962212 -0.194744
vn -0.012261 0.908043 -0.418697
vn -0.190324 0.962212 -0.194744
vn -0.219430 0.690730 -0.689016
vn -0.535255 0.776595 -0.332267
vn 0.041578 0.554038 -0.831452
vn 0.079819 0.236642 -0.968313
vn -0.121778 0.298620 -0.946571
vn -0.121778 0.298620 -0.946571
vn -0.219430 0.690730 -0.689016
vn 0.041578 0.554038 -0.831452
vn -0.219430 0.690730 -0.689016
vn -0.121778 0.298620 -0.946571
vn -0.484426 0.390854 -0.782665
vn -0.484426 0.390854 -0.782665
vn -0.535255 0.776595 -0.332267
vn -0.219430 0.690730 -0.689016
vn -0.535255 0.776595 -0.332267
vn -0.484426 0.390854 -0.782665
vn -0.819126 0.424422 -0.385873
vn 0.079819 0.236642 -0.968313
vn 0.105660 0.066064 -0.992205
vn -0.036796 0.086436 -0.995578
vn -0.036796 0.086436 -0.995578
vn -0.121778 0.298620 -0.946571
vn 0.079819 0.236642 -0.968313
vn -0.121778 0.298620 -0.946571
vn -0.036796 0.086436 -0.995578
vn -0.301946 0.099489 -0.948119
vn -0.301946 0.099489 -0.948119
vn -0.484426 0.390854 -0.782665
vn -0.121778 0.298620 -0.946571
vn -0.484426 0.390854 -0.782665
vn -0.301946 0.099489 -0.948119
vn -0.677873 0.138140 -0.722084
vn -0.677873 0.138140 -0.722084
vn -0.819126 0.424422 -0.385873
vn -0.484426 0.390854 -0.782665
vn -0.819126 0.424422 -0.385873
vn -0.677873 0.138140 -0.722084
vn -0.931534 0.128989 -0.340010
vn -0.240745 0.962212 0.127241
vn -0.139668 0.908043 0.394906
vn 0.000000 1.000000 0.000000
vn -0.419555 0.690730 0.588954
vn -0.214584 0.554038 0.804360
vn -0.139668 0.908043 0.394906
vn -0.139668 0.908043 0.394906
vn -0.240745 0.962212 0.127241
vn -0.419555 0.690730 0.588954
vn -0.611205 0.776595 0.152737
vn -0.419555 0.690730 0.588954
vn -0.240745 0.962212 0.127241
vn -0.405310 0.298620 0.864031
vn -0.220010 0.236642 0.946359
vn -0.214584 0.554038 0.804360
vn -0.214584 0.554038 0.804360
vn -0.419555 0.690730 0.588954
vn -0.405310 0.298620 0.864031
vn -0.700493 0.390854 0.597112
vn -0.405310 0.298620 0.864031
vn -0.419555 0.690730 0.588954
vn -0.419555 0.690730 0.588954
vn -0.611205 0.776595 0.152737
vn -0.700493 0.390854 0.597112
vn -0.897874 0.424422 0.116998
vn -0.700493 0.390854 0.597112
vn -0.611205 0.776595 0.152737
vn -0.339378 0.086436 0.936671
vn -0.202711 0.066064 0.977008
vn -0.220010 0.236642 0.946359
vn -0.220010 0.236642 0.946359
vn -0.405310 0.298620 0.864031
vn -0.339378 0.086436 0.936671
vn -0.577328 0.099489 0.810429
vn -0.339378 0.086436 0.936671
vn -0.405310 0.298620 0.864031
vn -0.405310 0.298620 0.864031
vn -0.700493 0.390854 0.597112
vn -0.577328 0.099489 0.810429
vn -0.866161 0.138140 0.480295
vn -0.577328 0.099489 0.810429
vn -0.700493 0.390854 0.597112
vn -0.700493 0.390854 0.597112
vn -0.897874 0.424422 0.116998
vn -0.866161 0.138140 0.480295
vn -0.990880 0.128989 0.038968
vn -0.866161 0.138140 0.480295
vn -0.897874 0.424422 0.116998
s off
g rug01
usemtl rug01SG
f 3/1/1 4/2/2 2/3/3 1/4/4
f 7/5/5 8/6/6 6/7/7 5/8/8
f 11/9/9 12/10/10 10/11/11 9/12/12
f 15/13/13 16/14/14 14/15/15 13/16/16
f 19/17/17 20/18/18 18/19/19 17/20/20
f 21/21/21 22/22/22 4/2/23 3/1/24
f 23/23/25 24/24/26 22/22/27 21/21/28
f 25/25/29 26/26/30 24/24/31 23/23/32
f 5/8/33 6/7/34 26/26/35 25/25/36
f 1/4/37 2/3/38 28/27/39 27/28/40
f 27/28/41 28/27/42 30/29/43 29/30/44
f 29/30/45 30/29/46 32/31/47 31/32/48
f 31/32/49 32/31/50 12/10/51 11/9/52
f 34/33/53 33/34/54 2/3/55 4/2/56
f 36/35/57 35/36/58 33/34/59 34/33/60
f 38/37/61 37/38/62 35/36/63 36/35/64
f 15/13/65 13/16/66 37/38/67 38/37/68
f 39/39/69 40/40/70 3/1/71 1/4/72
f 41/41/73 42/42/74 40/40/75 39/39/76
f 43/43/77 44/44/78 42/42/79 41/41/80
f 18/19/81 20/18/82 44/44/83 43/43/84
f 45/45/85 46/46/86 6/7/87 8/6/88
f 47/47/89 48/48/90 46/46/91 45/45/92
f 49/49/93 50/50/94 48/51/95 47/52/96
f 16/14/97 15/13/98 50/50/99 49/49/100
f 52/53/101 51/54/102 10/11/103 12/10/104
f 54/55/105 53/56/106 51/54/107 52/53/108
f 56/57/109 55/58/110 53/59/111 54/60/112
f 13/16/113 14/15/114 55/58/115 56/57/116
f 58/61/117 57/62/118 7/5/119 5/8/120
f 60/63/121 59/64/122 57/62/123 58/61/124
f 62/65/125 61/66/126 59/67/127 60/68/128
f 20/18/129 19/17/130 61/66/131 62/65/132
f 63/69/133 64/70/134 11/9/135 9/12/136
f 65/71/137 66/72/138 64/70/139 63/69/140
f 67/73/141 68/74/142 66/75/143 65/76/144
f 17/20/145 18/19/146 68/74/147 67/73/148
f 22/22/149 34/33/150 4/2/151
f 69/77/152 36/35/153 34/33/154
f 34/33/155 22/22/156 69/77/157
f 24/24/158 69/77/159 22/22/160
f 70/78/161 38/37/162 36/35/163
f 36/35/164 69/77/165 70/78/166
f 71/79/167 70/78/168 69/77/169
f 69/77/170 24/24/171 71/79/172
f 26/26/173 71/79/174 24/24/175
f 50/50/176 15/13/177 38/37/178
f 38/37/179 70/80/180 50/50/181
f 48/51/182 50/50/183 70/80/184
f 70/78/185 71/79/186 48/81/187
f 46/46/188 48/48/189 71/82/190
f 71/82/191 26/26/192 46/46/193
f 6/7/194 46/46/195 26/26/196
f 3/1/197 40/40/198 21/21/199
f 40/40/200 42/42/201 72/83/202
f 72/83/203 21/21/204 40/40/205
f 21/21/206 72/83/207 23/23/208
f 42/42/209 44/44/210 73/84/211
f 73/84/212 72/83/213 42/42/214
f 72/83/215 73/84/216 74/85/217
f 74/85/218 23/23/219 72/83/220
f 23/23/221 74/85/222 25/25/223
f 44/44/224 20/18/225 62/65/226
f 62/65/227 73/86/228 44/44/229
f 73/86/230 62/65/231 60/68/232
f 60/87/233 74/85/234 73/84/235
f 74/88/236 60/63/237 58/61/238
f 58/61/239 25/25/240 74/88/241
f 25/25/242 58/61/243 5/8/244
f 2/3/245 33/34/246 28/27/247
f 33/34/248 35/36/249 75/89/250
f 75/89/251 28/27/252 33/34/253
f 28/27/254 75/89/255 30/29/256
f 35/36/257 37/38/258 76/90/259
f 76/90/260 75/89/261 35/36/262
f 75/89/263 76/90/264 77/91/265
f 77/91/266 30/29/267 75/89/268
f 30/29/269 77/91/270 32/31/271
f 37/38/272 13/16/273 56/57/274
f 56/57/275 76/92/276 37/38/277
f 76/92/278 56/57/279 54/60/280
f 54/93/281 77/91/282 76/90/283
f 77/94/284 54/55/285 52/53/286
f 52/53/287 32/31/288 77/94/289
f 32/31/290 52/53/291 12/10/292
f 27/28/293 39/39/294 1/4/295
f 78/95/296 41/41/297 39/39/298
f 39/39/299 27/28/300 78/95/301
f 29/30/302 78/95/303 27/28/304
f 79/96/305 43/43/306 41/41/307
f 41/41/308 78/95/309 79/96/310
f 80/97/311 79/96/312 78/95/313
f 78/95/314 29/30/315 80/97/316
f 31/32/317 80/97/318 29/30/319
f 68/74/320 18/19/321 43/43/322
f 43/43/323 79/98/324 68/74/325
f 66/75/326 68/74/327 79/98/328
f 79/96/329 80/97/330 66/99/331
f 64/70/332 66/72/333 80/100/334
f 80/100/335 31/32/336 64/70/337
f 11/9/338 64/70/339 31/32/340
