# This file uses meters as units for non-parametric coordinates.

mtllib 75_2.mtl
g default
v 102.862239 1.000000 458.601700
v 108.198300 1.000000 223.462239
v 338.001700 1.000000 463.937761
v 343.337761 1.000000 228.798300
v 340.401083 0.359100 463.992211
v 345.737144 0.359100 228.852749
v 340.401083 0.000000 463.992211
v 345.737144 0.000000 228.852749
v 100.462856 0.000000 458.547251
v 105.798917 0.000000 223.407789
v 100.462856 0.359100 458.547251
v 105.798917 0.359100 223.407789
v 108.252749 0.359100 221.062856
v 108.252749 0.000000 221.062856
v 343.392211 0.359100 226.398917
v 343.392211 0.000000 226.398917
v 102.807789 0.000000 461.001083
v 102.807789 0.359100 461.001083
v 337.947251 0.000000 466.337144
v 337.947251 0.359100 466.337144
v 338.919949 1.000000 463.958599
v 344.256009 1.000000 228.819138
v 339.698303 0.852800 463.976263
v 345.034364 0.852800 228.836801
v 340.218491 0.626300 463.988067
v 345.554552 0.626300 228.848606
v 101.943991 1.000000 458.580862
v 107.280051 1.000000 223.441401
v 101.165636 0.852800 458.563199
v 106.501697 0.852800 223.423737
v 100.645448 0.626300 458.551394
v 105.981509 0.626300 223.411933
v 108.219138 1.000000 222.543991
v 343.358599 1.000000 227.880051
v 108.236801 0.852800 221.765636
v 343.376263 0.852800 227.101697
v 108.248606 0.626300 221.245448
v 343.388067 0.626300 226.581509
v 102.841401 1.000000 459.519949
v 337.980862 1.000000 464.856009
v 102.823737 0.852800 460.298303
v 337.963199 0.852800 465.634364
v 102.811933 0.626300 460.818491
v 337.951394 0.626300 466.154552
v 345.575390 0.000000 227.930358
v 345.575390 0.359100 227.930358
v 345.072866 0.000000 227.140198
v 345.072866 0.359100 227.140198
v 344.306315 0.000000 226.602347
v 344.306315 0.359100 226.602347
v 106.002347 0.000000 222.493685
v 106.002347 0.359100 222.493685
v 106.540198 0.000000 221.727134
v 106.540198 0.359100 221.727134
v 107.330358 0.000000 221.224610
v 107.330358 0.359100 221.224610
v 340.197653 0.000000 464.906315
v 340.197653 0.359100 464.906315
v 339.659802 0.000000 465.672866
v 339.659802 0.359100 465.672866
v 338.869642 0.000000 466.175390
v 338.869642 0.359100 466.175390
v 100.624610 0.000000 459.469642
v 100.624610 0.359100 459.469642
v 101.127134 0.000000 460.259802
v 101.127134 0.359100 460.259802
v 101.893685 0.000000 460.797653
v 101.893685 0.359100 460.797653
v 344.564677 0.852800 227.625833
v 344.489717 0.626300 226.903711
v 345.282656 0.626300 227.733474
v 339.174167 0.852800 465.164677
v 339.066526 0.626300 465.882656
v 339.896289 0.626300 465.089717
v 107.025833 0.852800 222.235323
v 107.133474 0.626300 221.517344
v 106.303711 0.626300 222.310283
v 101.635323 0.852800 459.774167
v 101.710283 0.626300 460.496289
v 100.917344 0.626300 459.666526
vt 0.023390 0.019940
vt 0.979590 0.019940
vt 0.979590 0.976130
vt 0.023390 0.976130
vt 0.023390 0.007870
vt 0.979590 0.007870
vt 0.979590 0.009620
vt 0.023390 0.009620
vt 0.023390 0.986450
vt 0.979590 0.986450
vt 0.979590 0.988200
vt 0.023390 0.988200
vt 0.989900 0.019940
vt 0.991660 0.019940
vt 0.991660 0.976130
vt 0.989900 0.976130
vt 0.011320 0.019940
vt 0.013070 0.019940
vt 0.013070 0.976130
vt 0.011320 0.976130
vt 0.023390 0.016200
vt 0.979590 0.016200
vt 0.023390 0.013040
vt 0.979590 0.013040
vt 0.023390 0.010920
vt 0.979590 0.010920
vt 0.979590 0.979860
vt 0.023390 0.979860
vt 0.979590 0.983030
vt 0.023390 0.983030
vt 0.979590 0.985140
vt 0.023390 0.985140
vt 0.983320 0.019940
vt 0.983320 0.976130
vt 0.986490 0.019940
vt 0.986490 0.976130
vt 0.988600 0.019940
vt 0.988600 0.976130
vt 0.019660 0.976130
vt 0.019660 0.019940
vt 0.016490 0.976130
vt 0.016490 0.019940
vt 0.014380 0.976130
vt 0.014380 0.019940
vt 0.983320 0.007870
vt 0.983320 0.009620
vt 0.986490 0.007870
vt 0.986490 0.009620
vt 0.991660 0.016200
vt 0.989900 0.016200
vt 0.989900 0.013040
vt 0.991660 0.013040
vt 0.983320 0.986450
vt 0.983320 0.988200
vt 0.986490 0.986450
vt 0.986490 0.988200
vt 0.989900 0.979860
vt 0.991660 0.979860
vt 0.991660 0.983030
vt 0.989900 0.983030
vt 0.019660 0.009620
vt 0.019660 0.007870
vt 0.016490 0.009620
vt 0.016490 0.007870
vt 0.013070 0.016200
vt 0.011320 0.016200
vt 0.011320 0.013040
vt 0.013070 0.013040
vt 0.019660 0.988200
vt 0.019660 0.986450
vt 0.016490 0.988200
vt 0.016490 0.986450
vt 0.011320 0.979860
vt 0.013070 0.979860
vt 0.013070 0.983030
vt 0.011320 0.983030
vt 0.984460 0.015060
vt 0.987390 0.015430
vt 0.984090 0.012130
vt 0.988600 0.015430
vt 0.986490 0.013040
vt 0.984090 0.010920
vt 0.018510 0.015060
vt 0.015590 0.015430
vt 0.018890 0.012130
vt 0.014380 0.015430
vt 0.016490 0.013040
vt 0.018890 0.010920
vt 0.984460 0.981010
vt 0.987390 0.980640
vt 0.984090 0.983940
vt 0.988600 0.980640
vt 0.986490 0.983030
vt 0.984090 0.985140
vt 0.018510 0.981010
vt 0.015590 0.980640
vt 0.018890 0.983940
vt 0.014380 0.980640
vt 0.016490 0.983030
vt 0.018890 0.985140
vn 0.000000 1.000000 0.000000
vn 0.000000 1.000000 0.000000
vn 0.000000 1.000000 0.000000
vn 0.000000 1.000000 0.000000
vn 0.992709 0.000000 0.120539
vn 0.997155 0.000000 -0.075383
vn 0.950625 0.301881 -0.071968
vn 0.946382 0.301881 0.115017
vn -0.950625 0.301881 0.071968
vn -0.946382 0.301881 -0.115017
vn -0.992709 0.000000 -0.120539
vn -0.997155 0.000000 0.075383
vn 0.115017 0.301881 -0.946382
vn 0.120539 0.000000 -0.992709
vn -0.075383 0.000000 -0.997155
vn -0.071968 0.301881 -0.950625
vn 0.075383 0.000000 0.997155
vn 0.071968 0.301881 0.950625
vn -0.115017 0.301881 0.946382
vn -0.120539 0.000000 0.992709
vn 0.093173 0.994954 0.037228
vn 0.094766 0.994954 -0.032963
vn 0.000000 1.000000 0.000000
vn 0.000000 1.000000 0.000000
vn 0.295148 0.952923 0.069462
vn 0.297995 0.952923 -0.056001
vn 0.094766 0.994954 -0.032963
vn 0.093173 0.994954 0.037228
vn 0.643785 0.757368 0.109248
vn 0.648078 0.757368 -0.079931
vn 0.297995 0.952923 -0.056001
vn 0.295148 0.952923 0.069462
vn 0.946382 0.301881 0.115017
vn 0.950625 0.301881 -0.071968
vn 0.648078 0.757368 -0.079931
vn 0.643785 0.757368 0.109248
vn 0.000000 1.000000 0.000000
vn 0.000000 1.000000 0.000000
vn -0.093173 0.994954 -0.037228
vn -0.094766 0.994954 0.032963
vn -0.094766 0.994954 0.032963
vn -0.093173 0.994954 -0.037228
vn -0.295148 0.952923 -0.069462
vn -0.297995 0.952923 0.056001
vn -0.297995 0.952923 0.056001
vn -0.295148 0.952923 -0.069462
vn -0.643785 0.757368 -0.109248
vn -0.648078 0.757368 0.079931
vn -0.648078 0.757368 0.079931
vn -0.643785 0.757368 -0.109248
vn -0.946382 0.301881 -0.115017
vn -0.950625 0.301881 0.071968
vn 0.037228 0.994954 -0.093173
vn -0.032963 0.994954 -0.094766
vn 0.000000 1.000000 0.000000
vn 0.000000 1.000000 0.000000
vn 0.069462 0.952923 -0.295148
vn -0.056001 0.952923 -0.297995
vn -0.032963 0.994954 -0.094766
vn 0.037228 0.994954 -0.093173
vn 0.109248 0.757368 -0.643785
vn -0.079931 0.757368 -0.648078
vn -0.056001 0.952923 -0.297995
vn 0.069462 0.952923 -0.295148
vn 0.115017 0.301881 -0.946382
vn -0.071968 0.301881 -0.950625
vn -0.079931 0.757368 -0.648078
vn 0.109248 0.757368 -0.643785
vn -0.037228 0.994954 0.093173
vn 0.032963 0.994954 0.094766
vn 0.000000 1.000000 0.000000
vn 0.000000 1.000000 0.000000
vn -0.069462 0.952923 0.295148
vn 0.056001 0.952923 0.297995
vn 0.032963 0.994954 0.094766
vn -0.037228 0.994954 0.093173
vn -0.109248 0.757368 0.643785
vn 0.079931 0.757368 0.648078
vn 0.056001 0.952923 0.297995
vn -0.069462 0.952923 0.295148
vn -0.115017 0.301881 0.946382
vn 0.071968 0.301881 0.950625
vn 0.079931 0.757368 0.648078
vn -0.109248 0.757368 0.643785
vn 0.932318 0.000000 -0.361640
vn 0.874018 0.367666 -0.317669
vn 0.950625 0.301881 -0.071968
vn 0.997155 0.000000 -0.075383
vn 0.722967 0.000000 -0.690882
vn 0.675949 0.354740 -0.645951
vn 0.874018 0.367666 -0.317669
vn 0.932318 0.000000 -0.361640
vn 0.403561 0.000000 -0.914953
vn 0.356990 0.367666 -0.858708
vn 0.675949 0.354740 -0.645951
vn 0.722967 0.000000 -0.690882
vn 0.120539 0.000000 -0.992709
vn 0.115017 0.301881 -0.946382
vn 0.356990 0.367666 -0.858708
vn 0.403561 0.000000 -0.914953
vn -0.858708 0.367666 -0.356990
vn -0.914953 0.000000 -0.403561
vn -0.992709 0.000000 -0.120539
vn -0.946382 0.301881 -0.115017
vn -0.645951 0.354740 -0.675949
vn -0.690882 0.000000 -0.722967
vn -0.914953 0.000000 -0.403561
vn -0.858708 0.367666 -0.356990
vn -0.317669 0.367666 -0.874018
vn -0.361640 0.000000 -0.932318
vn -0.690882 0.000000 -0.722967
vn -0.645951 0.354740 -0.675949
vn -0.071968 0.301881 -0.950625
vn -0.075383 0.000000 -0.997155
vn -0.361640 0.000000 -0.932318
vn -0.317669 0.367666 -0.874018
vn 0.858708 0.367666 0.356990
vn 0.914953 0.000000 0.403561
vn 0.992709 0.000000 0.120539
vn 0.946382 0.301881 0.115017
vn 0.645951 0.354740 0.675949
vn 0.690882 0.000000 0.722967
vn 0.914953 0.000000 0.403561
vn 0.858708 0.367666 0.356990
vn 0.317669 0.367666 0.874018
vn 0.361640 0.000000 0.932318
vn 0.690882 0.000000 0.722967
vn 0.645951 0.354740 0.675949
vn 0.071968 0.301881 0.950625
vn 0.075383 0.000000 0.997155
vn 0.361640 0.000000 0.932318
vn 0.317669 0.367666 0.874018
vn -0.932318 0.000000 0.361640
vn -0.874018 0.367666 0.317669
vn -0.950625 0.301881 0.071968
vn -0.997155 0.000000 0.075383
vn -0.722967 0.000000 0.690882
vn -0.675949 0.354740 0.645951
vn -0.874018 0.367666 0.317669
vn -0.932318 0.000000 0.361640
vn -0.403561 0.000000 0.914953
vn -0.356990 0.367666 0.858708
vn -0.675949 0.354740 0.645951
vn -0.722967 0.000000 0.690882
vn -0.120539 0.000000 0.992709
vn -0.115017 0.301881 0.946382
vn -0.356990 0.367666 0.858708
vn -0.403561 0.000000 0.914953
vn 0.094766 0.994954 -0.032963
vn 0.037228 0.994954 -0.093173
vn 0.000000 1.000000 0.000000
vn 0.192268 0.963989 -0.183735
vn 0.069462 0.952923 -0.295148
vn 0.037228 0.994954 -0.093173
vn 0.037228 0.994954 -0.093173
vn 0.094766 0.994954 -0.032963
vn 0.192268 0.963989 -0.183735
vn 0.297995 0.952923 -0.056001
vn 0.192268 0.963989 -0.183735
vn 0.094766 0.994954 -0.032963
vn 0.310815 0.803941 -0.507024
vn 0.109248 0.757368 -0.643785
vn 0.069462 0.952923 -0.295148
vn 0.069462 0.952923 -0.295148
vn 0.192268 0.963989 -0.183735
vn 0.310815 0.803941 -0.507024
vn 0.520602 0.803941 -0.287495
vn 0.310815 0.803941 -0.507024
vn 0.192268 0.963989 -0.183735
vn 0.192268 0.963989 -0.183735
vn 0.297995 0.952923 -0.056001
vn 0.520602 0.803941 -0.287495
vn 0.648078 0.757368 -0.079931
vn 0.520602 0.803941 -0.287495
vn 0.297995 0.952923 -0.056001
vn 0.356990 0.367666 -0.858708
vn 0.115017 0.301881 -0.946382
vn 0.109248 0.757368 -0.643785
vn 0.109248 0.757368 -0.643785
vn 0.310815 0.803941 -0.507024
vn 0.356990 0.367666 -0.858708
vn 0.675949 0.354740 -0.645951
vn 0.356990 0.367666 -0.858708
vn 0.310815 0.803941 -0.507024
vn 0.310815 0.803941 -0.507024
vn 0.520602 0.803941 -0.287495
vn 0.675949 0.354740 -0.645951
vn 0.874018 0.367666 -0.317669
vn 0.675949 0.354740 -0.645951
vn 0.520602 0.803941 -0.287495
vn 0.520602 0.803941 -0.287495
vn 0.648078 0.757368 -0.079931
vn 0.874018 0.367666 -0.317669
vn 0.950625 0.301881 -0.071968
vn 0.874018 0.367666 -0.317669
vn 0.648078 0.757368 -0.079931
vn 0.000000 1.000000 0.000000
vn 0.032963 0.994954 0.094766
vn 0.093173 0.994954 0.037228
vn 0.032963 0.994954 0.094766
vn 0.056001 0.952923 0.297995
vn 0.183735 0.963989 0.192268
vn 0.183735 0.963989 0.192268
vn 0.093173 0.994954 0.037228
vn 0.032963 0.994954 0.094766
vn 0.093173 0.994954 0.037228
vn 0.183735 0.963989 0.192268
vn 0.295148 0.952923 0.069462
vn 0.056001 0.952923 0.297995
vn 0.079931 0.757368 0.648078
vn 0.287495 0.803941 0.520602
vn 0.287495 0.803941 0.520602
vn 0.183735 0.963989 0.192268
vn 0.056001 0.952923 0.297995
vn 0.183735 0.963989 0.192268
vn 0.287495 0.803941 0.520602
vn 0.507024 0.803941 0.310815
vn 0.507024 0.803941 0.310815
vn 0.295148 0.952923 0.069462
vn 0.183735 0.963989 0.192268
vn 0.295148 0.952923 0.069462
vn 0.507024 0.803941 0.310815
vn 0.643785 0.757368 0.109248
vn 0.079931 0.757368 0.648078
vn 0.071968 0.301881 0.950625
vn 0.317669 0.367666 0.874018
vn 0.317669 0.367666 0.874018
vn 0.287495 0.803941 0.520602
vn 0.079931 0.757368 0.648078
vn 0.287495 0.803941 0.520602
vn 0.317669 0.367666 0.874018
vn 0.645951 0.354740 0.675949
vn 0.645951 0.354740 0.675949
vn 0.507024 0.803941 0.310815
vn 0.287495 0.803941 0.520602
vn 0.507024 0.803941 0.310815
vn 0.645951 0.354740 0.675949
vn 0.858708 0.367666 0.356990
vn 0.858708 0.367666 0.356990
vn 0.643785 0.757368 0.109248
vn 0.507024 0.803941 0.310815
vn 0.643785 0.757368 0.109248
vn 0.858708 0.367666 0.356990
vn 0.946382 0.301881 0.115017
vn 0.000000 1.000000 0.000000
vn -0.032963 0.994954 -0.094766
vn -0.093173 0.994954 -0.037228
vn -0.032963 0.994954 -0.094766
vn -0.056001 0.952923 -0.297995
vn -0.183735 0.963989 -0.192268
vn -0.183735 0.963989 -0.192268
vn -0.093173 0.994954 -0.037228
vn -0.032963 0.994954 -0.094766
vn -0.093173 0.994954 -0.037228
vn -0.183735 0.963989 -0.192268
vn -0.295148 0.952923 -0.069462
vn -0.056001 0.952923 -0.297995
vn -0.079931 0.757368 -0.648078
vn -0.287495 0.803941 -0.520602
vn -0.287495 0.803941 -0.520602
vn -0.183735 0.963989 -0.192268
vn -0.056001 0.952923 -0.297995
vn -0.183735 0.963989 -0.192268
vn -0.287495 0.803941 -0.520602
vn -0.507024 0.803941 -0.310815
vn -0.507024 0.803941 -0.310815
vn -0.295148 0.952923 -0.069462
vn -0.183735 0.963989 -0.192268
vn -0.295148 0.952923 -0.069462
vn -0.507024 0.803941 -0.310815
vn -0.643785 0.757368 -0.109248
vn -0.079931 0.757368 -0.648078
vn -0.071968 0.301881 -0.950625
vn -0.317669 0.367666 -0.874018
vn -0.317669 0.367666 -0.874018
vn -0.287495 0.803941 -0.520602
vn -0.079931 0.757368 -0.648078
vn -0.287495 0.803941 -0.520602
vn -0.317669 0.367666 -0.874018
vn -0.645951 0.354740 -0.675949
vn -0.645951 0.354740 -0.675949
vn -0.507024 0.803941 -0.310815
vn -0.287495 0.803941 -0.520602
vn -0.507024 0.803941 -0.310815
vn -0.645951 0.354740 -0.675949
vn -0.858708 0.367666 -0.356990
vn -0.858708 0.367666 -0.356990
vn -0.643785 0.757368 -0.109248
vn -0.507024 0.803941 -0.310815
vn -0.643785 0.757368 -0.109248
vn -0.858708 0.367666 -0.356990
vn -0.946382 0.301881 -0.115017
vn -0.094766 0.994954 0.032963
vn -0.037228 0.994954 0.093173
vn 0.000000 1.000000 0.000000
vn -0.192268 0.963989 0.183735
vn -0.069462 0.952923 0.295148
vn -0.037228 0.994954 0.093173
vn -0.037228 0.994954 0.093173
vn -0.094766 0.994954 0.032963
vn -0.192268 0.963989 0.183735
vn -0.297995 0.952923 0.056001
vn -0.192268 0.963989 0.183735
vn -0.094766 0.994954 0.032963
vn -0.310815 0.803941 0.507024
vn -0.109248 0.757368 0.643785
vn -0.069462 0.952923 0.295148
vn -0.069462 0.952923 0.295148
vn -0.192268 0.963989 0.183735
vn -0.310815 0.803941 0.507024
vn -0.520602 0.803941 0.287495
vn -0.310815 0.803941 0.507024
vn -0.192268 0.963989 0.183735
vn -0.192268 0.963989 0.183735
vn -0.297995 0.952923 0.056001
vn -0.520602 0.803941 0.287495
vn -0.648078 0.757368 0.079931
vn -0.520602 0.803941 0.287495
vn -0.297995 0.952923 0.056001
vn -0.356990 0.367666 0.858708
vn -0.115017 0.301881 0.946382
vn -0.109248 0.757368 0.643785
vn -0.109248 0.757368 0.643785
vn -0.310815 0.803941 0.507024
vn -0.356990 0.367666 0.858708
vn -0.675949 0.354740 0.645951
vn -0.356990 0.367666 0.858708
vn -0.310815 0.803941 0.507024
vn -0.310815 0.803941 0.507024
vn -0.520602 0.803941 0.287495
vn -0.675949 0.354740 0.645951
vn -0.874018 0.367666 0.317669
vn -0.675949 0.354740 0.645951
vn -0.520602 0.803941 0.287495
vn -0.520602 0.803941 0.287495
vn -0.648078 0.757368 0.079931
vn -0.874018 0.367666 0.317669
vn -0.950625 0.301881 0.071968
vn -0.874018 0.367666 0.317669
vn -0.648078 0.757368 0.079931
s off
g rug01
usemtl rug01SG
f 3/1/1 4/2/2 2/3/3 1/4/4
f 7/5/5 8/6/6 6/7/7 5/8/8
f 11/9/9 12/10/10 10/11/11 9/12/12
f 15/13/13 16/14/14 14/15/15 13/16/16
f 19/17/17 20/18/18 18/19/19 17/20/20
f 21/21/21 22/22/22 4/2/23 3/1/24
f 23/23/25 24/24/26 22/22/27 21/21/28
f 25/25/29 26/26/30 24/24/31 23/23/32
f 5/8/33 6/7/34 26/26/35 25/25/36
f 1/4/37 2/3/38 28/27/39 27/28/40
f 27/28/41 28/27/42 30/29/43 29/30/44
f 29/30/45 30/29/46 32/31/47 31/32/48
f 31/32/49 32/31/50 12/10/51 11/9/52
f 34/33/53 33/34/54 2/3/55 4/2/56
f 36/35/57 35/36/58 33/34/59 34/33/60
f 38/37/61 37/38/62 35/36/63 36/35/64
f 15/13/65 13/16/66 37/38/67 38/37/68
f 39/39/69 40/40/70 3/1/71 1/4/72
f 41/41/73 42/42/74 40/40/75 39/39/76
f 43/43/77 44/44/78 42/42/79 41/41/80
f 18/19/81 20/18/82 44/44/83 43/43/84
f 45/45/85 46/46/86 6/7/87 8/6/88
f 47/47/89 48/48/90 46/46/91 45/45/92
f 49/49/93 50/50/94 48/51/95 47/52/96
f 16/14/97 15/13/98 50/50/99 49/49/100
f 52/53/101 51/54/102 10/11/103 12/10/104
f 54/55/105 53/56/106 51/54/107 52/53/108
f 56/57/109 55/58/110 53/59/111 54/60/112
f 13/16/113 14/15/114 55/58/115 56/57/116
f 58/61/117 57/62/118 7/5/119 5/8/120
f 60/63/121 59/64/122 57/62/123 58/61/124
f 62/65/125 61/66/126 59/67/127 60/68/128
f 20/18/129 19/17/130 61/66/131 62/65/132
f 63/69/133 64/70/134 11/9/135 9/12/136
f 65/71/137 66/72/138 64/70/139 63/69/140
f 67/73/141 68/74/142 66/75/143 65/76/144
f 17/20/145 18/19/146 68/74/147 67/73/148
f 22/22/149 34/33/150 4/2/151
f 69/77/152 36/35/153 34/33/154
f 34/33/155 22/22/156 69/77/157
f 24/24/158 69/77/159 22/22/160
f 70/78/161 38/37/162 36/35/163
f 36/35/164 69/77/165 70/78/166
f 71/79/167 70/78/168 69/77/169
f 69/77/170 24/24/171 71/79/172
f 26/26/173 71/79/174 24/24/175
f 50/50/176 15/13/177 38/37/178
f 38/37/179 70/80/180 50/50/181
f 48/51/182 50/50/183 70/80/184
f 70/78/185 71/79/186 48/81/187
f 46/46/188 48/48/189 71/82/190
f 71/82/191 26/26/192 46/46/193
f 6/7/194 46/46/195 26/26/196
f 3/1/197 40/40/198 21/21/199
f 40/40/200 42/42/201 72/83/202
f 72/83/203 21/21/204 40/40/205
f 21/21/206 72/83/207 23/23/208
f 42/42/209 44/44/210 73/84/211
f 73/84/212 72/83/213 42/42/214
f 72/83/215 73/84/216 74/85/217
f 74/85/218 23/23/219 72/83/220
f 23/23/221 74/85/222 25/25/223
f 44/44/224 20/18/225 62/65/226
f 62/65/227 73/86/228 44/44/229
f 73/86/230 62/65/231 60/68/232
f 60/87/233 74/85/234 73/84/235
f 74/88/236 60/63/237 58/61/238
f 58/61/239 25/25/240 74/88/241
f 25/25/242 58/61/243 5/8/244
f 2/3/245 33/34/246 28/27/247
f 33/34/248 35/36/249 75/89/250
f 75/89/251 28/27/252 33/34/253
f 28/27/254 75/89/255 30/29/256
f 35/36/257 37/38/258 76/90/259
f 76/90/260 75/89/261 35/36/262
f 75/89/263 76/90/264 77/91/265
f 77/91/266 30/29/267 75/89/268
f 30/29/269 77/91/270 32/31/271
f 37/38/272 13/16/273 56/57/274
f 56/57/275 76/92/276 37/38/277
f 76/92/278 56/57/279 54/60/280
f 54/93/281 77/91/282 76/90/283
f 77/94/284 54/55/285 52/53/286
f 52/53/287 32/31/288 77/94/289
f 32/31/290 52/53/291 12/10/292
f 27/28/293 39/39/294 1/4/295
f 78/95/296 41/41/297 39/39/298
f 39/39/299 27/28/300 78/95/301
f 29/30/302 78/95/303 27/28/304
f 79/96/305 43/43/306 41/41/307
f 41/41/308 78/95/309 79/96/310
f 80/97/311 79/96/312 78/95/313
f 78/95/314 29/30/315 80/97/316
f 31/32/317 80/97/318 29/30/319
f 68/74/320 18/19/321 43/43/322
f 43/43/323 79/98/324 68/74/325
f 66/75/326 68/74/327 79/98/328
f 79/96/329 80/97/330 66/99/331
f 64/70/332 66/72/333 80/100/334
f 80/100/335 31/32/336 64/70/337
f 11/9/338 64/70/339 31/32/340
