# This file uses meters as units for non-parametric coordinates.

mtllib 78_2.mtl
g default
v -334.000015 180.000001 69.500038
v -348.500001 180.000000 69.500038
v -350.000000 180.000000 69.500038
v -348.500002 181.499999 71.000037
v -350.000000 180.000000 71.000037
v -334.000015 181.500000 71.000037
v -334.000015 180.000001 71.000037
v -348.500001 180.000000 71.000037
v -334.000017 199.999982 69.500038
v -348.500003 199.999981 69.500038
v -350.000002 199.999981 69.500038
v -348.500003 199.999981 71.000037
v -350.000002 199.999981 71.000037
v -334.000017 199.999982 71.000037
v -334.500016 200.499982 69.500038
v -348.500003 200.499980 69.500038
v -350.000002 200.499980 69.500038
v -348.500003 200.499980 71.000037
v -350.000002 200.499980 71.000037
v -334.500016 200.499982 71.000037
v -334.000015 180.000001 149.499962
v -348.500001 180.000000 149.499962
v -350.000000 180.000000 149.499962
v -348.500002 181.499999 147.999963
v -350.000000 180.000000 147.999963
v -334.000015 181.500000 147.999963
v -334.000015 180.000001 147.999963
v -348.500001 180.000000 147.999963
v -334.000017 199.999982 149.499962
v -348.500003 199.999981 149.499962
v -350.000002 199.999981 149.499962
v -348.500003 199.999981 147.999963
v -350.000002 199.999981 147.999963
v -334.000017 199.999982 147.999963
v -334.500016 200.499982 149.499962
v -348.500003 200.499980 149.499962
v -350.000002 200.499980 149.499962
v -348.500003 200.499980 147.999963
v -350.000002 200.499980 147.999963
v -334.500016 200.499982 147.999963
vt 0.938320 0.984420
vt 0.585600 0.232190
vt 0.411960 0.237610
vt 0.411960 0.232190
vt 0.916430 0.593730
vt 0.849920 0.548760
vt 0.369450 0.015140
vt 0.615140 0.031420
vt 0.900150 0.968140
vt 0.849920 0.737500
vt 0.788780 0.237610
vt 0.849920 0.580140
vt 0.849920 0.565030
vt 0.030560 0.237610
vt 0.866200 0.984420
vt 0.030560 0.232190
vt 0.615140 0.232190
vt 0.187920 0.015140
vt 0.187920 0.232190
vt 0.900150 0.984420
vt 0.030560 0.015140
vt 0.816060 0.031420
vt 0.938320 0.968140
vt 0.954600 0.984420
vt 0.580170 0.237610
vt 0.900150 0.816210
vt 0.772500 0.031420
vt 0.816060 0.205060
vt 0.849920 0.273160
vt 0.849920 0.329540
vt 0.849920 0.310920
vt 0.030560 0.984420
vt 0.030560 0.761950
vt 0.030560 0.978990
vt 0.212090 0.015140
vt 0.954600 0.593730
vt 0.954600 0.810780
vt 0.938320 0.810780
vt 0.938320 0.610010
vt 0.428240 0.232190
vt 0.428240 0.031420
vt 0.772500 0.237610
vt 0.799780 0.031420
vt 0.217520 0.237610
vt 0.954600 0.816210
vt 0.788780 0.232190
vt 0.585600 0.031420
vt 0.916430 0.968140
vt 0.799780 0.205060
vt 0.849920 0.256880
vt 0.849920 0.294640
vt 0.882480 0.984420
vt 0.014290 0.232190
vt 0.014290 0.015140
vt 0.014290 0.237610
vt 0.182500 0.237610
vt 0.014290 0.737500
vt 0.014290 0.580140
vt 0.014290 0.565030
vt 0.620570 0.237610
vt 0.014290 0.761950
vt 0.385730 0.237610
vt 0.799780 0.047700
vt 0.938320 0.816210
vt 0.938320 0.593730
vt 0.428240 0.237610
vt 0.772500 0.232190
vt 0.849920 0.530310
vt 0.014290 0.984420
vt 0.014290 0.548760
vt 0.014290 0.273160
vt 0.014290 0.256880
vt 0.014290 0.530310
vt 0.014290 0.329540
vt 0.014290 0.310920
vt 0.014290 0.294640
vt 0.369450 0.232190
vt 0.369450 0.237610
vt 0.882480 0.761950
vt 0.882480 0.978990
vt 0.866200 0.978990
vt 0.866200 0.761950
vt 0.916430 0.610010
vt 0.916430 0.810780
vt 0.900150 0.810780
vt 0.900150 0.593730
vt 0.916430 0.816210
vt 0.916430 0.984420
vt 0.385730 0.015140
vt 0.385730 0.232190
vt 0.212090 0.232190
vt 0.835260 0.205060
vt 0.835260 0.031420
vt 0.851540 0.031420
vt 0.851540 0.047700
vt 0.835260 0.047700
vt 0.851540 0.205060
vt 0.014290 0.978990
vt 0.816060 0.047700
vt 0.954600 0.968140
vt 0.849920 0.737500
vt 0.014290 0.737500
vt 0.014290 0.580140
vt 0.849920 0.580140
vn 0.000000 -1.000000 0.000000
vn 0.000000 -1.000000 0.000000
vn 0.000000 -1.000000 0.000000
vn 0.000000 -1.000000 0.000000
vn 0.000000 -1.000000 0.000000
vn 0.000000 -1.000000 0.000000
vn 0.000000 -1.000000 0.000000
vn 0.000000 -1.000000 0.000000
vn -1.000000 -0.000000 0.000000
vn -1.000000 -0.000000 0.000000
vn -1.000000 -0.000000 0.000000
vn -1.000000 -0.000000 0.000000
vn 0.000000 0.000000 -1.000000
vn 0.000000 0.000000 -1.000000
vn 0.000000 0.000000 -1.000000
vn 0.000000 0.000000 -1.000000
vn 0.000000 0.000000 -1.000000
vn 0.000000 0.000000 -1.000000
vn 0.000000 0.000000 -1.000000
vn 0.000000 0.000000 -1.000000
vn 1.000000 0.000000 -0.000000
vn 0.923879 0.382684 -0.000000
vn 0.923879 0.382684 -0.000000
vn 1.000000 0.000000 -0.000000
vn 0.000000 0.000000 1.000000
vn 0.000000 0.000000 1.000000
vn 0.000000 0.000000 1.000000
vn 0.000000 0.000000 1.000000
vn 0.000000 0.000000 1.000000
vn 0.000000 0.000000 1.000000
vn 0.000000 0.000000 1.000000
vn 0.000000 0.000000 1.000000
vn -1.000000 -0.000000 0.000000
vn -1.000000 -0.000000 0.000000
vn -1.000000 -0.000000 0.000000
vn -1.000000 -0.000000 0.000000
vn 0.000000 0.000000 -1.000000
vn 0.000000 0.000000 -1.000000
vn 0.000000 0.000000 -1.000000
vn 0.000000 0.000000 -1.000000
vn -0.000000 1.000000 -0.000000
vn -0.000000 1.000000 -0.000000
vn 0.000000 1.000000 0.000000
vn 0.000000 1.000000 0.000000
vn 0.000000 0.000000 -1.000000
vn 0.000000 0.000000 -1.000000
vn 0.000000 0.000000 -1.000000
vn 0.000000 0.000000 -1.000000
vn 0.382683 0.923880 0.000000
vn 0.923879 0.382684 -0.000000
vn 0.923879 0.382684 -0.000000
vn 0.382683 0.923880 0.000000
vn 0.000000 0.000000 1.000000
vn 0.000000 0.000000 1.000000
vn 0.000000 0.000000 1.000000
vn 0.000000 0.000000 1.000000
vn -0.000000 1.000000 -0.000000
vn 0.382683 0.923880 0.000000
vn 0.382683 0.923880 0.000000
vn -0.000000 1.000000 -0.000000
vn 1.000000 0.000000 -0.000000
vn 1.000000 0.000000 -0.000000
vn 1.000000 0.000000 0.000000
vn 0.000000 -1.000000 0.000000
vn 0.000000 -1.000000 0.000000
vn 0.000000 -1.000000 0.000000
vn 0.000000 -1.000000 0.000000
vn 0.000000 -1.000000 0.000000
vn 0.000000 -1.000000 0.000000
vn 0.000000 -1.000000 0.000000
vn 0.000000 -1.000000 0.000000
vn -1.000000 -0.000000 0.000000
vn -1.000000 -0.000000 0.000000
vn -1.000000 -0.000000 0.000000
vn -1.000000 -0.000000 0.000000
vn 0.000000 0.000000 1.000000
vn 0.000000 0.000000 1.000000
vn 0.000000 0.000000 1.000000
vn 0.000000 0.000000 1.000000
vn 0.000000 0.000000 1.000000
vn 0.000000 0.000000 1.000000
vn 0.000000 0.000000 1.000000
vn 0.000000 0.000000 1.000000
vn 1.000000 0.000000 0.000000
vn 0.923879 0.382684 0.000000
vn 0.923879 0.382684 0.000000
vn 1.000000 0.000000 0.000000
vn 0.000000 0.000000 -1.000000
vn 0.000000 0.000000 -1.000000
vn 0.000000 0.000000 -1.000000
vn 0.000000 0.000000 -1.000000
vn 0.000000 0.000000 -1.000000
vn 0.000000 0.000000 -1.000000
vn 0.000000 0.000000 -1.000000
vn 0.000000 0.000000 -1.000000
vn -1.000000 -0.000000 0.000000
vn -1.000000 -0.000000 0.000000
vn -1.000000 -0.000000 0.000000
vn -1.000000 -0.000000 0.000000
vn 0.000000 0.000000 1.000000
vn 0.000000 0.000000 1.000000
vn 0.000000 0.000000 1.000000
vn 0.000000 0.000000 1.000000
vn -0.000000 1.000000 -0.000000
vn -0.000000 1.000000 -0.000000
vn 0.000000 1.000000 0.000000
vn 0.000000 1.000000 0.000000
vn 0.000000 0.000000 1.000000
vn 0.000000 0.000000 1.000000
vn 0.000000 0.000000 1.000000
vn 0.000000 0.000000 1.000000
vn 0.923879 0.382684 0.000000
vn 0.382683 0.923880 0.000000
vn 0.382683 0.923880 0.000000
vn 0.923879 0.382684 0.000000
vn 0.000000 0.000000 -1.000000
vn 0.000000 0.000000 -1.000000
vn 0.000000 0.000000 -1.000000
vn 0.000000 0.000000 -1.000000
vn 0.382683 0.923880 0.000000
vn -0.000000 1.000000 -0.000000
vn -0.000000 1.000000 -0.000000
vn 0.382683 0.923880 0.000000
vn 1.000000 0.000000 0.000000
vn 1.000000 0.000000 0.000000
vn 1.000000 0.000000 0.000000
vn -0.000000 1.000000 -0.000000
vn -0.000000 1.000000 -0.000000
vn -0.000000 1.000000 -0.000000
vn -0.000000 1.000000 -0.000000
vn 1.000000 0.000000 -0.000000
vn 1.000000 0.000000 0.000000
vn 1.000000 0.000000 0.000000
vn 1.000000 0.000000 0.000000
vn 0.000000 -1.000000 0.000000
vn 0.000000 -1.000000 0.000000
vn 0.000000 -1.000000 0.000000
vn 0.000000 -1.000000 0.000000
vn 0.000000 -1.000000 0.000000
vn 0.000000 -1.000000 0.000000
vn 0.000000 -1.000000 0.000000
vn 0.000000 -1.000000 0.000000
vn 1.000000 0.000000 0.000000
vn 1.000000 0.000000 0.000000
vn 1.000000 0.000000 0.000000
vn 1.000000 0.000000 0.000000
vn -1.000000 -0.000000 0.000000
vn -1.000000 -0.000000 0.000000
vn -1.000000 -0.000000 0.000000
vn -1.000000 -0.000000 0.000000
vn 0.000000 1.000000 0.000000
vn 0.000000 1.000000 0.000000
vn 0.000000 1.000000 0.000000
vn 0.000000 1.000000 0.000000
s off
g shelf01
usemtl shelf01SG
f 5/93/1 3/94/2 2/95/3 8/96/4
f 2/95/5 1/97/6 7/92/7 8/96/8
f 11/98/9 3/61/10 5/33/11 13/34/12
f 10/77/13 2/7/14 3/89/15 11/90/16
f 9/91/17 1/35/18 2/7/19 10/77/20
f 1/36/21 9/37/22 14/38/23 6/39/24
f 12/40/25 4/41/26 6/47/27 14/2/28
f 19/3/29 13/4/30 12/40/31 18/66/32
f 17/69/33 11/98/34 13/34/35 19/32/36
f 16/78/37 10/77/38 11/90/39 17/62/40
f 18/23/41 16/100/42 17/24/43 19/1/44
f 15/44/45 9/91/46 10/77/47 16/78/48
f 20/64/49 14/38/50 9/37/51 15/45/52
f 18/66/53 12/40/54 14/2/55 20/25/56
f 18/23/57 20/64/58 15/45/59 16/100/60
f 1/36/61 6/39/62 7/65/63
f 23/43/64 25/22/65 28/99/66 22/63/67
f 28/99/68 27/28/69 21/49/70 22/63/71
f 23/79/72 31/80/73 33/81/74 25/82/75
f 22/21/76 30/16/77 31/53/78 23/54/79
f 21/18/80 29/19/81 30/16/82 22/21/83
f 26/83/84 34/84/85 29/85/86 21/86/87
f 24/27/88 32/67/89 34/17/90 26/8/91
f 33/46/92 39/11/93 38/42/94 32/67/95
f 31/80/96 37/52/97 39/15/98 33/81/99
f 30/16/100 36/14/101 37/55/102 31/53/103
f 36/9/104 38/48/105 39/88/106 37/20/107
f 29/19/108 35/56/109 36/14/110 30/16/111
f 34/84/112 40/87/113 35/26/114 29/85/115
f 32/67/116 38/42/117 40/60/118 34/17/119
f 40/87/120 38/48/121 36/9/122 35/26/123
f 26/83/124 21/86/125 27/5/126
f 4/10/127 24/57/128 26/58/129 6/12/130
f 6/13/131 26/59/132 27/70/133 7/6/134
f 8/29/135 28/71/136 25/72/137 5/50/138
f 7/101/139 27/102/140 28/103/141 8/104/142
f 12/68/143 32/73/144 24/74/145 4/30/146
f 5/33/147 25/82/148 33/81/149 13/34/150
f 13/31/151 33/75/152 32/76/153 12/51/154
