# This file uses meters as units for non-parametric coordinates.

mtllib 97.mtl
g default
v 276.000033 6.499997 -19.000031
v 276.000033 0.000003 -19.000031
v 278.000031 6.499996 -17.000033
v 278.000031 0.000002 -17.000033
v 277.234633 6.499996 -19.000031
v 276.585834 6.999996 -19.000031
v 276.152231 6.999996 -19.000031
v 278.000031 6.499996 -18.234633
v 278.000031 6.999996 -17.585834
v 278.000031 6.999996 -17.152231
v 276.152231 0.000003 -18.234633
v 276.152231 6.499997 -18.234633
v 276.585834 0.000003 -17.585834
v 276.585834 6.499996 -17.585834
v 277.234633 0.000003 -17.152231
v 277.234633 6.499996 -17.152231
v 277.000032 6.999996 -18.000032
v 277.076133 6.999996 -17.399832
v 276.399832 6.999996 -18.076133
v 278.000031 2.000001 -19.000031
v 277.234633 2.000001 -19.000031
v 278.000031 2.000001 -18.234633
v 276.000033 6.499997 -84.999969
v 276.000033 0.000003 -84.999969
v 278.000031 6.499996 -86.999967
v 278.000031 0.000002 -86.999967
v 277.234633 6.499996 -84.999969
v 276.585834 6.999996 -84.999969
v 276.152231 6.999996 -84.999969
v 278.000031 6.499996 -85.765367
v 278.000031 6.999996 -86.414166
v 278.000031 6.999996 -86.847769
v 276.152231 0.000003 -85.765367
v 276.152231 6.499997 -85.765367
v 276.585834 0.000003 -86.414166
v 276.585834 6.499996 -86.414166
v 277.234633 0.000003 -86.847769
v 277.234633 6.499996 -86.847769
v 277.000032 6.999996 -85.999968
v 277.076133 6.999996 -86.600168
v 276.399832 6.999996 -85.923867
v 278.000031 2.000001 -84.999969
v 277.234633 2.000001 -84.999969
v 278.000031 2.000001 -85.765367
v 345.999967 6.499991 -19.000031
v 345.999967 -0.000003 -19.000031
v 343.999969 6.499992 -17.000033
v 343.999969 -0.000002 -17.000033
v 344.765367 6.499992 -19.000031
v 345.414166 6.999991 -19.000031
v 345.847769 6.999990 -19.000031
v 343.999969 6.499992 -18.234633
v 343.999969 6.999991 -17.585834
v 343.999969 6.999991 -17.152231
v 345.847769 -0.000003 -18.234633
v 345.847769 6.499991 -18.234633
v 345.414166 -0.000003 -17.585834
v 345.414166 6.499992 -17.585834
v 344.765367 -0.000003 -17.152231
v 344.765367 6.499992 -17.152231
v 344.999968 6.999991 -18.000032
v 344.923867 6.999991 -17.399832
v 345.600168 6.999990 -18.076133
v 343.999969 1.999996 -19.000031
v 344.765367 1.999995 -19.000031
v 343.999969 1.999996 -18.234633
v 345.999967 6.499991 -84.999969
v 345.999967 -0.000003 -84.999969
v 343.999969 6.499992 -86.999967
v 343.999969 -0.000002 -86.999967
v 344.765367 6.499992 -84.999969
v 345.414166 6.999991 -84.999969
v 345.847769 6.999990 -84.999969
v 343.999969 6.499992 -85.765367
v 343.999969 6.999991 -86.414166
v 343.999969 6.999991 -86.847769
v 345.847769 -0.000003 -85.765367
v 345.847769 6.499991 -85.765367
v 345.414166 -0.000003 -86.414166
v 345.414166 6.499992 -86.414166
v 344.765367 -0.000003 -86.847769
v 344.765367 6.499992 -86.847769
v 344.999968 6.999991 -85.999968
v 344.923867 6.999991 -86.600168
v 345.600168 6.999990 -85.923867
v 343.999969 1.999996 -84.999969
v 344.765367 1.999995 -84.999969
v 343.999969 1.999996 -85.765367
vt 0.793590 0.979250
vt 0.623450 0.381960
vt 0.834590 0.371020
vt 0.636340 0.013600
vt 0.642250 0.072810
vt 0.901960 0.986220
vt 0.702140 0.972350
vt 0.724120 0.972350
vt 0.022010 0.273590
vt 0.641210 0.261990
vt 0.638030 0.251370
vt 0.630420 0.381960
vt 0.638030 0.192150
vt 0.631390 0.349060
vt 0.631060 0.281430
vt 0.027770 0.170510
vt 0.027770 0.081230
vt 0.631060 0.340640
vt 0.029800 0.356610
vt 0.019640 0.351270
vt 0.029470 0.349060
vt 0.642250 0.162090
vt 0.636340 0.162090
vt 0.029800 0.192150
vt 0.661150 0.972350
vt 0.028100 0.178060
vt 0.028100 0.166640
vt 0.643940 0.251370
vt 0.631060 0.345200
vt 0.834590 0.986220
vt 0.623450 0.374980
vt 0.631060 0.356610
vt 0.793590 0.377990
vt 0.623450 0.990190
vt 0.630420 0.983220
vt 0.629360 0.013600
vt 0.860960 0.979250
vt 0.015220 0.102870
vt 0.015220 0.162090
vt 0.015220 0.255920
vt 0.015220 0.983220
vt 0.016910 0.192150
vt 0.016910 0.251370
vt 0.724120 0.371090
vt 0.029800 0.340640
vt 0.016910 0.340640
vt 0.022010 0.362860
vt 0.629360 0.178060
vt 0.629690 0.170510
vt 0.639070 0.173940
vt 0.021320 0.345500
vt 0.029800 0.345200
vt 0.015220 0.345200
vt 0.638030 0.340640
vt 0.028100 0.088780
vt 0.765110 0.972350
vt 0.643940 0.192150
vt 0.638840 0.362860
vt 0.834590 0.979250
vt 0.793590 0.371020
vt 0.629360 0.072810
vt 0.629360 0.088780
vt 0.629690 0.081230
vt 0.639070 0.084670
vt 0.637780 0.077370
vt 0.629360 0.077370
vt 0.019640 0.261990
vt 0.643940 0.281430
vt 0.639530 0.345500
vt 0.638030 0.281430
vt 0.015220 0.381960
vt 0.015220 0.013600
vt 0.015220 0.072810
vt 0.028100 0.077370
vt 0.641210 0.351270
vt 0.022820 0.281430
vt 0.022820 0.340640
vt 0.021130 0.102870
vt 0.021130 0.162090
vt 0.021130 0.013600
vt 0.021130 0.072810
vt 0.022820 0.192150
vt 0.022820 0.251370
vt 0.029800 0.281430
vt 0.029470 0.259780
vt 0.022190 0.983220
vt 0.022190 0.990190
vt 0.028100 0.072810
vt 0.643940 0.340640
vt 0.793590 0.986220
vt 0.631060 0.267330
vt 0.631390 0.259780
vt 0.834590 0.377990
vt 0.623450 0.983220
vt 0.636340 0.072810
vt 0.642250 0.013600
vt 0.901960 0.979250
vt 0.702140 0.371090
vt 0.021380 0.255920
vt 0.860960 0.986220
vt 0.765120 0.371090
vt 0.638840 0.273590
vt 0.639530 0.256220
vt 0.631060 0.255920
vt 0.645630 0.255920
vt 0.860960 0.371020
vt 0.901960 0.371020
vt 0.901960 0.377990
vt 0.860960 0.377990
vt 0.022190 0.374980
vt 0.022190 0.381960
vt 0.661150 0.371090
vt 0.028100 0.102870
vt 0.028100 0.162090
vt 0.018400 0.084670
vt 0.629360 0.162090
vt 0.629360 0.102870
vt 0.636340 0.102870
vt 0.642250 0.102870
vt 0.016910 0.281430
vt 0.645630 0.345200
vt 0.019690 0.166640
vt 0.019690 0.077370
vt 0.631060 0.192150
vt 0.631060 0.251370
vt 0.029800 0.251370
vt 0.029800 0.267330
vt 0.029800 0.255920
vt 0.018400 0.173940
vt 0.028100 0.013600
vt 0.637780 0.166640
vt 0.629360 0.166640
vn -0.917370 0.152351 0.367723
vn -0.984718 0.145239 0.096104
vn -0.995190 0.000000 0.097966
vn -0.923880 0.000000 0.382682
vn -0.923880 0.000000 0.382682
vn -0.707107 0.000000 0.707107
vn -0.698489 0.155647 0.698489
vn -0.917370 0.152351 0.367723
vn -0.707107 0.000000 0.707107
vn -0.382682 0.000000 0.923880
vn -0.367723 0.152351 0.917370
vn -0.698489 0.155647 0.698489
vn -0.382682 0.000000 0.923880
vn -0.097966 0.000000 0.995190
vn -0.096104 0.145239 0.984718
vn -0.367723 0.152351 0.917370
vn 0.301260 0.519476 -0.799617
vn 0.160134 0.974020 -0.160134
vn 0.051547 0.957389 -0.284165
vn 0.160134 0.974020 -0.160134
vn 0.301260 0.519476 -0.799617
vn 0.799617 0.519476 -0.301260
vn 0.799617 0.519476 -0.301260
vn 0.284165 0.957389 -0.051547
vn 0.160134 0.974020 -0.160134
vn 0.051547 0.957389 -0.284165
vn -0.318437 0.770120 0.552732
vn -0.069522 0.785131 0.615415
vn -0.318437 0.770120 0.552732
vn 0.051547 0.957389 -0.284165
vn 0.160134 0.974020 -0.160134
vn 0.160134 0.974020 -0.160134
vn -0.552732 0.770120 0.318437
vn -0.318437 0.770120 0.552732
vn -0.552732 0.770120 0.318437
vn 0.160134 0.974020 -0.160134
vn 0.284165 0.957389 -0.051547
vn 0.284165 0.957389 -0.051547
vn -0.615415 0.785131 0.069522
vn -0.552732 0.770120 0.318437
vn -0.069522 0.785131 0.615415
vn -0.367723 0.152351 0.917370
vn -0.096104 0.145239 0.984718
vn -0.367723 0.152351 0.917370
vn -0.069522 0.785131 0.615415
vn -0.318437 0.770120 0.552732
vn -0.318437 0.770120 0.552732
vn -0.698489 0.155647 0.698489
vn -0.367723 0.152351 0.917370
vn -0.698489 0.155647 0.698489
vn -0.318437 0.770120 0.552732
vn -0.552732 0.770120 0.318437
vn -0.552732 0.770120 0.318437
vn -0.917370 0.152351 0.367723
vn -0.698489 0.155647 0.698489
vn -0.917370 0.152351 0.367723
vn -0.552732 0.770120 0.318437
vn -0.615415 0.785131 0.069522
vn -0.615415 0.785131 0.069522
vn -0.984718 0.145239 0.096104
vn -0.917370 0.152351 0.367723
vn 0.717294 0.630253 -0.297105
vn 0.799617 0.519476 -0.301260
vn 0.301260 0.519476 -0.799617
vn 0.297105 0.630253 -0.717294
vn 0.000000 1.000000 0.000000
vn 0.717294 0.630253 -0.297105
vn 0.297105 0.630253 -0.717294
vn -0.923880 0.000000 -0.382682
vn -0.995190 0.000000 -0.097966
vn -0.984718 0.145239 -0.096104
vn -0.917370 0.152351 -0.367723
vn -0.707107 0.000000 -0.707107
vn -0.923880 0.000000 -0.382682
vn -0.917370 0.152351 -0.367723
vn -0.698489 0.155647 -0.698489
vn -0.382682 0.000000 -0.923880
vn -0.707107 0.000000 -0.707107
vn -0.698489 0.155647 -0.698489
vn -0.367723 0.152351 -0.917370
vn -0.097966 0.000000 -0.995190
vn -0.382682 0.000000 -0.923880
vn -0.367723 0.152351 -0.917370
vn -0.096104 0.145239 -0.984718
vn 0.160134 0.974020 0.160134
vn 0.301260 0.519476 0.799617
vn 0.051547 0.957389 0.284165
vn 0.301260 0.519476 0.799617
vn 0.160134 0.974020 0.160134
vn 0.799617 0.519476 0.301260
vn 0.284165 0.957389 0.051547
vn 0.799617 0.519476 0.301260
vn 0.160134 0.974020 0.160134
vn -0.318437 0.770120 -0.552732
vn 0.051547 0.957389 0.284165
vn -0.069522 0.785131 -0.615415
vn 0.051547 0.957389 0.284165
vn -0.318437 0.770120 -0.552732
vn 0.160134 0.974020 0.160134
vn -0.552732 0.770120 -0.318437
vn 0.160134 0.974020 0.160134
vn -0.318437 0.770120 -0.552732
vn 0.160134 0.974020 0.160134
vn -0.552732 0.770120 -0.318437
vn 0.284165 0.957389 0.051547
vn -0.615415 0.785131 -0.069522
vn 0.284165 0.957389 0.051547
vn -0.552732 0.770120 -0.318437
vn -0.367723 0.152351 -0.917370
vn -0.069522 0.785131 -0.615415
vn -0.096104 0.145239 -0.984718
vn -0.069522 0.785131 -0.615415
vn -0.367723 0.152351 -0.917370
vn -0.318437 0.770120 -0.552732
vn -0.698489 0.155647 -0.698489
vn -0.318437 0.770120 -0.552732
vn -0.367723 0.152351 -0.917370
vn -0.318437 0.770120 -0.552732
vn -0.698489 0.155647 -0.698489
vn -0.552732 0.770120 -0.318437
vn -0.917370 0.152351 -0.367723
vn -0.552732 0.770120 -0.318437
vn -0.698489 0.155647 -0.698489
vn -0.552732 0.770120 -0.318437
vn -0.917370 0.152351 -0.367723
vn -0.615415 0.785131 -0.069522
vn -0.984718 0.145239 -0.096104
vn -0.615415 0.785131 -0.069522
vn -0.917370 0.152351 -0.367723
vn 0.799617 0.519476 0.301260
vn 0.717294 0.630253 0.297105
vn 0.297105 0.630253 0.717294
vn 0.301260 0.519476 0.799617
vn 0.717294 0.630253 0.297105
vn 0.000000 1.000000 0.000000
vn 0.297105 0.630253 0.717294
vn 0.923880 0.000000 0.382682
vn 0.995190 0.000000 0.097966
vn 0.984718 0.145239 0.096104
vn 0.917370 0.152351 0.367723
vn 0.707107 0.000000 0.707107
vn 0.923880 0.000000 0.382682
vn 0.917370 0.152351 0.367723
vn 0.698489 0.155647 0.698489
vn 0.382682 0.000000 0.923880
vn 0.707107 0.000000 0.707107
vn 0.698489 0.155647 0.698489
vn 0.367723 0.152351 0.917370
vn 0.097966 0.000000 0.995190
vn 0.382682 0.000000 0.923880
vn 0.367723 0.152351 0.917370
vn 0.096104 0.145239 0.984718
vn -0.160134 0.974020 -0.160134
vn -0.301260 0.519476 -0.799617
vn -0.051547 0.957389 -0.284165
vn -0.301260 0.519476 -0.799617
vn -0.160134 0.974020 -0.160134
vn -0.799617 0.519476 -0.301260
vn -0.284165 0.957389 -0.051547
vn -0.799617 0.519476 -0.301260
vn -0.160134 0.974020 -0.160134
vn 0.318437 0.770120 0.552732
vn -0.051547 0.957389 -0.284165
vn 0.069522 0.785131 0.615415
vn -0.051547 0.957389 -0.284165
vn 0.318437 0.770120 0.552732
vn -0.160134 0.974020 -0.160134
vn 0.552732 0.770120 0.318437
vn -0.160134 0.974020 -0.160134
vn 0.318437 0.770120 0.552732
vn -0.160134 0.974020 -0.160134
vn 0.552732 0.770120 0.318437
vn -0.284165 0.957389 -0.051547
vn 0.615415 0.785131 0.069522
vn -0.284165 0.957389 -0.051547
vn 0.552732 0.770120 0.318437
vn 0.367723 0.152351 0.917370
vn 0.069522 0.785131 0.615415
vn 0.096104 0.145239 0.984718
vn 0.069522 0.785131 0.615415
vn 0.367723 0.152351 0.917370
vn 0.318437 0.770120 0.552732
vn 0.698489 0.155647 0.698489
vn 0.318437 0.770120 0.552732
vn 0.367723 0.152351 0.917370
vn 0.318437 0.770120 0.552732
vn 0.698489 0.155647 0.698489
vn 0.552732 0.770120 0.318437
vn 0.917370 0.152351 0.367723
vn 0.552732 0.770120 0.318437
vn 0.698489 0.155647 0.698489
vn 0.552732 0.770120 0.318437
vn 0.917370 0.152351 0.367723
vn 0.615415 0.785131 0.069522
vn 0.984718 0.145239 0.096104
vn 0.615415 0.785131 0.069522
vn 0.917370 0.152351 0.367723
vn -0.799617 0.519476 -0.301260
vn -0.717294 0.630253 -0.297105
vn -0.297105 0.630253 -0.717294
vn -0.301260 0.519476 -0.799617
vn -0.717294 0.630253 -0.297105
vn 0.000000 1.000000 0.000000
vn -0.297105 0.630253 -0.717294
vn 0.995190 0.000000 -0.097966
vn 0.923880 0.000000 -0.382682
vn 0.917370 0.152351 -0.367723
vn 0.984718 0.145239 -0.096104
vn 0.923880 0.000000 -0.382682
vn 0.707107 0.000000 -0.707107
vn 0.698489 0.155647 -0.698489
vn 0.917370 0.152351 -0.367723
vn 0.707107 0.000000 -0.707107
vn 0.382682 0.000000 -0.923880
vn 0.367723 0.152351 -0.917370
vn 0.698489 0.155647 -0.698489
vn 0.382682 0.000000 -0.923880
vn 0.097966 0.000000 -0.995190
vn 0.096104 0.145239 -0.984718
vn 0.367723 0.152351 -0.917370
vn -0.301260 0.519476 0.799617
vn -0.160134 0.974020 0.160134
vn -0.051547 0.957389 0.284165
vn -0.160134 0.974020 0.160134
vn -0.301260 0.519476 0.799617
vn -0.799617 0.519476 0.301260
vn -0.799617 0.519476 0.301260
vn -0.284165 0.957389 0.051547
vn -0.160134 0.974020 0.160134
vn -0.051547 0.957389 0.284165
vn 0.318437 0.770120 -0.552732
vn 0.069522 0.785131 -0.615415
vn 0.318437 0.770120 -0.552732
vn -0.051547 0.957389 0.284165
vn -0.160134 0.974020 0.160134
vn -0.160134 0.974020 0.160134
vn 0.552732 0.770120 -0.318437
vn 0.318437 0.770120 -0.552732
vn 0.552732 0.770120 -0.318437
vn -0.160134 0.974020 0.160134
vn -0.284165 0.957389 0.051547
vn -0.284165 0.957389 0.051547
vn 0.615415 0.785131 -0.069522
vn 0.552732 0.770120 -0.318437
vn 0.069522 0.785131 -0.615415
vn 0.367723 0.152351 -0.917370
vn 0.096104 0.145239 -0.984718
vn 0.367723 0.152351 -0.917370
vn 0.069522 0.785131 -0.615415
vn 0.318437 0.770120 -0.552732
vn 0.318437 0.770120 -0.552732
vn 0.698489 0.155647 -0.698489
vn 0.367723 0.152351 -0.917370
vn 0.698489 0.155647 -0.698489
vn 0.318437 0.770120 -0.552732
vn 0.552732 0.770120 -0.318437
vn 0.552732 0.770120 -0.318437
vn 0.917370 0.152351 -0.367723
vn 0.698489 0.155647 -0.698489
vn 0.917370 0.152351 -0.367723
vn 0.552732 0.770120 -0.318437
vn 0.615415 0.785131 -0.069522
vn 0.615415 0.785131 -0.069522
vn 0.984718 0.145239 -0.096104
vn 0.917370 0.152351 -0.367723
vn -0.717294 0.630253 0.297105
vn -0.799617 0.519476 0.301260
vn -0.301260 0.519476 0.799617
vn -0.297105 0.630253 0.717294
vn 0.000000 1.000000 0.000000
vn -0.717294 0.630253 0.297105
vn -0.297105 0.630253 0.717294
vn 0.051547 0.957389 -0.284165
vn -0.051547 0.957389 -0.284165
vn -0.301260 0.519476 -0.799617
vn 0.301260 0.519476 -0.799617
vn -0.069522 0.785131 0.615415
vn 0.069522 0.785131 0.615415
vn -0.051547 0.957389 -0.284165
vn 0.051547 0.957389 -0.284165
vn -0.096104 0.145239 0.984718
vn 0.096104 0.145239 0.984718
vn 0.069522 0.785131 0.615415
vn -0.069522 0.785131 0.615415
vn -0.097966 0.000000 0.995190
vn 0.097966 0.000000 0.995190
vn 0.096104 0.145239 0.984718
vn -0.096104 0.145239 0.984718
vn 0.301260 0.519476 -0.799617
vn -0.301260 0.519476 -0.799617
vn -0.297105 0.630253 -0.717294
vn 0.297105 0.630253 -0.717294
vn 0.297105 0.630253 -0.717294
vn -0.297105 0.630253 -0.717294
vn 0.000000 1.000000 0.000000
vn 0.000000 1.000000 0.000000
vn 0.301260 0.519476 0.799617
vn -0.301260 0.519476 0.799617
vn -0.051547 0.957389 0.284165
vn 0.051547 0.957389 0.284165
vn 0.051547 0.957389 0.284165
vn -0.051547 0.957389 0.284165
vn 0.069522 0.785131 -0.615415
vn -0.069522 0.785131 -0.615415
vn -0.069522 0.785131 -0.615415
vn 0.069522 0.785131 -0.615415
vn 0.096104 0.145239 -0.984718
vn -0.096104 0.145239 -0.984718
vn -0.096104 0.145239 -0.984718
vn 0.096104 0.145239 -0.984718
vn 0.097966 0.000000 -0.995190
vn -0.097966 0.000000 -0.995190
vn 0.297105 0.630253 0.717294
vn -0.297105 0.630253 0.717294
vn -0.301260 0.519476 0.799617
vn 0.301260 0.519476 0.799617
vn 0.000000 1.000000 0.000000
vn 0.000000 1.000000 0.000000
vn -0.297105 0.630253 0.717294
vn 0.297105 0.630253 0.717294
vn 0.799617 0.519476 -0.301260
vn 0.799617 0.519476 0.301260
vn 0.284165 0.957389 0.051547
vn 0.284165 0.957389 -0.051547
vn 0.284165 0.957389 -0.051547
vn 0.284165 0.957389 0.051547
vn -0.615415 0.785131 -0.069522
vn -0.615415 0.785131 0.069522
vn -0.984718 0.145239 -0.096104
vn -0.984718 0.145239 0.096104
vn -0.615415 0.785131 0.069522
vn -0.615415 0.785131 -0.069522
vn -0.984718 0.145239 0.096104
vn -0.984718 0.145239 -0.096104
vn -0.995190 0.000000 -0.097966
vn -0.995190 0.000000 0.097966
vn 0.717294 0.630253 -0.297105
vn 0.717294 0.630253 0.297105
vn 0.799617 0.519476 0.301260
vn 0.799617 0.519476 -0.301260
vn 0.000000 1.000000 0.000000
vn 0.000000 1.000000 0.000000
vn 0.717294 0.630253 0.297105
vn 0.717294 0.630253 -0.297105
vn -0.284165 0.957389 -0.051547
vn -0.284165 0.957389 0.051547
vn -0.799617 0.519476 0.301260
vn -0.799617 0.519476 -0.301260
vn 0.615415 0.785131 0.069522
vn 0.615415 0.785131 -0.069522
vn -0.284165 0.957389 0.051547
vn -0.284165 0.957389 -0.051547
vn 0.984718 0.145239 0.096104
vn 0.984718 0.145239 -0.096104
vn 0.615415 0.785131 -0.069522
vn 0.615415 0.785131 0.069522
vn 0.995190 0.000000 0.097966
vn 0.995190 0.000000 -0.097966
vn 0.984718 0.145239 -0.096104
vn 0.984718 0.145239 0.096104
vn -0.799617 0.519476 -0.301260
vn -0.799617 0.519476 0.301260
vn -0.717294 0.630253 0.297105
vn -0.717294 0.630253 -0.297105
vn -0.717294 0.630253 -0.297105
vn -0.717294 0.630253 0.297105
vn 0.000000 1.000000 0.000000
vn 0.000000 1.000000 0.000000
vn 0.000000 1.000000 0.000000
vn 0.000000 1.000000 0.000000
vn 0.000000 1.000000 0.000000
vn 0.000000 1.000000 0.000000
s off
g washingFBXASC045machine01_pan_1
usemtl washingFBXASC045machine01_pan_1SG
f 12/23/1 1/116/2 2/117/3 11/118/4
f 11/118/5 13/119/6 14/22/7 12/23/8
f 13/120/9 15/76/10 16/77/11 14/46/12
f 15/76/13 4/84/14 3/45/15 16/77/16
f 8/19/17 17/20/18 9/21/19
f 17/20/20 8/19/21 5/47/22
f 5/48/23 6/49/24 17/50/25
f 9/21/26 18/51/27 10/52/28
f 18/51/29 9/21/30 17/20/31
f 17/20/32 19/53/33 18/51/34
f 19/131/35 17/50/36 6/49/37
f 6/49/38 7/132/39 19/131/40
f 10/52/41 16/77/42 3/45/43
f 16/77/44 10/52/45 18/51/46
f 18/51/47 14/46/48 16/77/49
f 14/46/50 18/51/51 19/53/52
f 19/131/53 12/23/54 14/22/55
f 12/23/56 19/131/57 7/132/58
f 7/132/59 1/116/60 12/23/61
f 21/30/62 5/90/63 8/1/64 22/59/65
f 20/2/66 21/31/67 22/12/68
f 33/78/69 24/113/70 23/114/71 34/79/72
f 35/38/73 33/78/74 34/79/75 36/39/76
f 37/13/77 35/57/78 36/28/79 38/11/80
f 26/124/81 37/13/82 38/11/83 25/125/84
f 39/10/85 30/91/86 31/92/87
f 30/91/88 39/10/89 27/102/90
f 28/16/91 27/26/92 39/129/93
f 40/103/94 31/92/95 32/104/96
f 31/92/97 40/103/98 39/10/99
f 41/105/100 39/10/101 40/103/102
f 39/129/103 41/122/104 28/16/105
f 29/27/106 28/16/107 41/122/108
f 38/11/109 32/104/110 25/125/111
f 32/104/112 38/11/113 40/103/114
f 36/28/115 40/103/116 38/11/117
f 40/103/118 36/28/119 41/105/120
f 34/79/121 41/122/122 36/39/123
f 41/122/124 34/79/125 29/27/126
f 23/114/127 29/27/128 34/79/129
f 27/106/130 43/107/131 44/108/132 30/109/133
f 43/110/134 42/111/135 44/71/136
f 55/80/137 46/130/138 45/88/139 56/81/140
f 57/72/141 55/80/142 56/81/143 58/73/144
f 59/70/145 57/68/146 58/89/147 60/54/148
f 48/15/149 59/70/150 60/54/151 47/18/152
f 61/75/153 52/32/154 53/14/155
f 52/32/156 61/75/157 49/58/158
f 50/17/159 49/55/160 61/115/161
f 62/69/162 53/14/163 54/29/164
f 53/14/165 62/69/166 61/75/167
f 63/121/168 61/75/169 62/69/170
f 61/115/171 63/123/172 50/17/173
f 51/74/174 50/17/175 63/123/176
f 60/54/177 54/29/178 47/18/179
f 54/29/180 60/54/181 62/69/182
f 58/89/183 62/69/184 60/54/185
f 62/69/186 58/89/187 63/121/188
f 56/81/189 63/123/190 58/73/191
f 63/123/192 56/81/193 51/74/194
f 45/88/195 51/74/196 56/81/197
f 49/60/198 65/3/199 66/93/200 52/33/201
f 65/34/202 64/94/203 66/35/204
f 68/36/205 77/4/206 78/95/207 67/61/208
f 77/4/209 79/96/210 80/5/211 78/95/212
f 79/42/213 81/82/214 82/83/215 80/43/216
f 81/82/217 70/24/218 69/126/219 82/83/220
f 74/127/221 83/67/222 75/85/223
f 83/67/224 74/127/225 71/9/226
f 71/62/227 72/63/228 83/64/229
f 75/85/230 84/99/231 76/128/232
f 84/99/233 75/85/234 83/67/235
f 83/67/236 85/40/237 84/99/238
f 85/65/239 83/64/240 72/63/241
f 72/63/242 73/66/243 85/65/244
f 76/128/245 82/83/246 69/126/247
f 82/83/248 76/128/249 84/99/250
f 84/99/251 80/43/252 82/83/253
f 80/43/254 84/99/255 85/40/256
f 85/65/257 78/95/258 80/5/259
f 78/95/260 85/65/261 73/66/262
f 73/66/263 67/61/264 78/95/265
f 87/6/266 71/100/267 74/37/268 88/97/269
f 86/86/270 87/87/271 88/41/272
f 9/21/273 53/14/274 52/32/275 8/19/276
f 10/52/277 54/29/278 53/14/279 9/21/280
f 3/45/281 47/18/282 54/29/283 10/52/284
f 4/84/285 48/15/286 47/18/287 3/45/288
f 8/1/289 52/33/290 66/93/291 22/59/292
f 22/12/293 66/35/294 64/94/295 20/2/296
f 30/91/297 74/127/298 75/85/299 31/92/300
f 31/92/301 75/85/302 76/128/303 32/104/304
f 32/104/305 76/128/306 69/126/307 25/125/308
f 25/125/309 69/126/310 70/24/311 26/124/312
f 44/108/313 88/97/314 74/37/315 30/109/316
f 42/111/317 86/86/318 88/41/319 44/71/320
f 5/48/321 27/26/322 28/16/323 6/49/324
f 6/49/325 28/16/326 29/27/327 7/132/328
f 23/114/329 1/116/330 7/132/331 29/27/332
f 1/116/333 23/114/334 24/113/335 2/117/336
f 21/98/337 43/7/338 27/25/339 5/112/340
f 20/2/341 42/111/342 43/110/343 21/31/344
f 50/17/345 72/63/346 71/62/347 49/55/348
f 51/74/349 73/66/350 72/63/351 50/17/352
f 45/88/353 67/61/354 73/66/355 51/74/356
f 46/130/357 68/36/358 67/61/359 45/88/360
f 49/8/361 71/44/362 87/101/363 65/56/364
f 65/34/365 87/87/366 86/86/367 64/94/368
f 64/94/369 86/86/370 42/111/371 20/2/372
